<?xml version="1.0" encoding="utf-8"?>
<!-- Generator: Adobe Illustrator 16.0.0, SVG Export Plug-In . SVG Version: 6.00 Build 0)  -->
<!DOCTYPE svg PUBLIC "-//W3C//DTD SVG 1.1//EN" "http://www.w3.org/Graphics/SVG/1.1/DTD/svg11.dtd">
<svg version="1.1" xmlns="http://www.w3.org/2000/svg" xmlns:xlink="http://www.w3.org/1999/xlink" x="0px" y="0px" width="4776px"
	 height="3384px" viewBox="0 0 4776 3384" enable-background="new 0 0 4776 3384" xml:space="preserve">
<g id="Layer_1">
	
		<image display="none" overflow="visible" enable-background="new    " width="1900" height="1346" xlink:href="shepherd.jpg"  transform="matrix(2.5141 0 0 2.5141 0 0)">
	</image>
	<text transform="matrix(0.9993 0 0 1 767.2812 836.7236)" fill="#223344" font-family="'Oxygen-Regular'" font-size="60">Light sensors</text>
	<polyline fill="none" stroke="#223344" stroke-width="2" stroke-miterlimit="10" points="1185,825.711 1578.812,1011.348 
		1769,1101 	"/>
	<text transform="matrix(0.9993 0 0 1 1079.6738 486.7236)" fill="#223344" font-family="'Oxygen-Regular'" font-size="60">Solenoids</text>
	<line fill="none" stroke="#223344" stroke-width="2" stroke-miterlimit="10" x1="1410" y1="475.711" x2="1704.126" y2="614.357"/>
	<text transform="matrix(0.9993 0 0 1 4046.4297 2558.5527)" fill="#223344" font-family="'Oxygen-Regular'" font-size="60">Arduino Uno</text>
	<line fill="none" stroke="#223344" stroke-width="2" stroke-miterlimit="10" x1="3669" y1="2137" x2="3977" y2="2518.553"/>
</g>
<g id="Layer_2" display="none">
	
		<text transform="matrix(0.9993 0 0 1 3857.7148 903.5527)" display="inline" fill="#223344" font-family="'Oxygen-Regular'" font-size="60">Transistors for solenoids</text>
	
		<line display="inline" fill="none" stroke="#223344" stroke-width="2" stroke-miterlimit="10" x1="3788.285" y1="888" x2="3480.285" y2="1269.553"/>
	
		<text transform="matrix(0.9993 0 0 1 3782.2852 2856.1055)" display="inline" fill="#223344" font-family="'Oxygen-Regular'" font-size="60">Resistors for light sensors &amp; LEDs</text>
	
		<line display="inline" fill="none" stroke="#223344" stroke-width="2" stroke-miterlimit="10" x1="2893.924" y1="1808.58" x2="3710.708" y2="2820.42"/>
	
		<text transform="matrix(0.9993 0 0 1 400.2852 2420.1055)" display="inline" fill="#223344" font-family="'Oxygen-Regular'" font-size="60">LEDs</text>
</g>
</svg>
