<?xml version="1.0" encoding="utf-8"?>
<!-- Generator: Adobe Illustrator 16.0.0, SVG Export Plug-In . SVG Version: 6.00 Build 0)  -->
<!DOCTYPE svg PUBLIC "-//W3C//DTD SVG 1.1//EN" "http://www.w3.org/Graphics/SVG/1.1/DTD/svg11.dtd">
<svg version="1.1" xmlns="http://www.w3.org/2000/svg" xmlns:xlink="http://www.w3.org/1999/xlink" x="0px" y="0px" width="4776px"
	 height="3384px" viewBox="0 0 4776 3384" enable-background="new 0 0 4776 3384" xml:space="preserve">
<g id="Layer_1">
	
		<image display="none" overflow="visible" enable-background="new    " width="1900" height="1346" xlink:href="shepherd.jpg"  transform="matrix(2.5141 0 0 2.5141 0 0)">
	</image>
	<g enable-background="new    ">
		<path fill="#223344" d="M772.375,836.724v-43.33h5.095v38.818h19.059l-0.176,4.512H772.375z"/>
		<path fill="#223344" d="M807.127,792.896v5.801h-4.919v-5.801H807.127z M807.127,804.585v32.139h-4.919v-32.139H807.127z"/>
		<path fill="#223344" d="M821.267,851.431l-0.438-4.424h5.972c1.659,0,3.104-0.117,4.333-0.352s2.255-0.62,3.074-1.157
			c0.82-0.537,1.483-1.133,1.991-1.787c0.507-0.654,0.893-1.504,1.156-2.549s0.439-2.08,0.527-3.105
			c0.087-1.025,0.131-2.28,0.131-3.765v-2.842c-1.171,1.68-2.527,2.974-4.069,3.882s-3.503,1.362-5.884,1.362
			c-1.835,0-3.528-0.317-5.08-0.952s-2.859-1.479-3.923-2.534c-1.064-1.055-1.972-2.275-2.723-3.662
			c-0.752-1.387-1.298-2.822-1.64-4.307s-0.512-2.979-0.512-4.482c0-2.344,0.287-4.512,0.863-6.504
			c0.575-1.992,1.43-3.77,2.562-5.332s2.62-2.788,4.465-3.677s3.957-1.333,6.338-1.333c2.108,0,3.947,0.405,5.519,1.216
			s2.981,2.056,4.23,3.735v-4.277h4.772v29.824c0,1.367-0.034,2.563-0.103,3.589s-0.234,2.163-0.498,3.413
			c-0.263,1.25-0.619,2.324-1.068,3.223s-1.078,1.802-1.889,2.71c-0.81,0.908-1.775,1.641-2.897,2.197
			c-1.123,0.557-2.514,1.011-4.172,1.362c-1.659,0.352-3.533,0.527-5.621,0.527H821.267z M828.791,832.534
			c1.659,0,3.113-0.293,4.362-0.879s2.225-1.396,2.928-2.432c0.702-1.035,1.225-2.188,1.566-3.457
			c0.341-1.27,0.512-2.656,0.512-4.16v-2.373c0-1.562-0.176-3.003-0.526-4.321c-0.352-1.318-0.894-2.5-1.625-3.545
			c-0.732-1.045-1.708-1.86-2.928-2.446s-2.64-0.879-4.26-0.879c-1.347,0-2.571,0.254-3.674,0.762
			c-1.104,0.508-2.011,1.177-2.723,2.007c-0.713,0.83-1.317,1.797-1.815,2.9s-0.854,2.222-1.068,3.354
			c-0.215,1.133-0.322,2.275-0.322,3.428c0,1.133,0.117,2.256,0.352,3.369c0.233,1.113,0.604,2.197,1.112,3.252
			c0.507,1.055,1.122,1.978,1.845,2.769c0.722,0.791,1.624,1.431,2.708,1.919C826.317,832.29,827.503,832.534,828.791,832.534z"/>
		<path fill="#223344" d="M872.705,836.724V817.3c0-3.223-0.512-5.566-1.536-7.031c-1.025-1.465-2.816-2.197-5.373-2.197
			c-2.459,0-4.533,0.615-6.221,1.846c-1.688,1.23-2.786,2.822-3.294,4.775c-0.176,1.465-0.264,3.096-0.264,4.893v17.139h-4.889
			v-44.619l4.889-0.293v13.066c0,1.113-0.039,2.49-0.116,4.131c2.752-3.398,6.401-5.098,10.949-5.098
			c7.162,0,10.744,4.209,10.744,12.627v20.186H872.705z"/>
		<path fill="#223344" d="M893.873,837.31c-3.162,0-5.407-0.771-6.734-2.314s-2.029-4.033-2.107-7.471v-19.307h-4.772l0.205-3.223
			l4.538-0.41l1.669-7.354l3.221-0.117v7.471h8.929v3.633h-8.929v18.428c0,2.441,0.37,4.16,1.112,5.156
			c0.741,0.996,2.01,1.494,3.806,1.494c0.645,0,2.039-0.156,4.187-0.469l0.205,3.867C896.878,837.104,895.103,837.31,893.873,837.31
			z"/>
		<path fill="#223344" d="M928.945,837.397c-2.186,0-4.201-0.234-6.046-0.703c-1.844-0.469-3.342-1.074-4.493-1.816l0.614-4.131
			c3.26,1.738,6.46,2.607,9.603,2.607c4.763,0,7.212-1.68,7.349-5.039c0-1.426-0.508-2.549-1.522-3.369s-3.006-1.738-5.973-2.754
			l-2.43-0.85c-2.811-0.938-4.815-2.1-6.016-3.486c-1.201-1.387-1.811-3.115-1.83-5.186c0-2.52,1.01-4.609,3.03-6.27
			c2.02-1.66,4.786-2.49,8.3-2.49c3.63,0,6.938,0.703,9.925,2.109l-1.435,3.75c-3.026-1.25-5.855-1.875-8.49-1.875
			c-2.05,0-3.655,0.405-4.816,1.216s-1.742,1.948-1.742,3.413c0,1.25,0.42,2.207,1.26,2.871c0.839,0.664,2.518,1.426,5.035,2.285
			c0.644,0.234,1.454,0.508,2.43,0.82c3.24,1.055,5.533,2.3,6.88,3.735s2.021,3.374,2.021,5.815
			c-0.04,2.969-1.104,5.269-3.191,6.899C935.317,836.582,932.497,837.397,928.945,837.397z"/>
		<path fill="#223344" d="M960.856,837.397c-4.665,0-8.339-1.484-11.022-4.453s-4.025-7.031-4.025-12.188
			c0-4.98,1.298-9.019,3.894-12.114s6.012-4.673,10.247-4.731c3.981,0,7.139,1.362,9.471,4.087s3.499,6.362,3.499,10.913
			c0,0.234-0.006,0.664-0.015,1.289c-0.011,0.625-0.015,1.074-0.015,1.348h-22.046c0.059,3.652,1,6.499,2.825,8.54
			s4.279,3.062,7.363,3.062c3.396,0,6.802-0.898,10.218-2.695l0.761,3.955C968.751,836.401,965.033,837.397,960.856,837.397z
			 M965.79,810.518c-1.435-1.709-3.401-2.563-5.899-2.563c-2.499,0-4.538,0.884-6.119,2.651s-2.508,4.185-2.781,7.251h16.951
			C967.941,814.673,967.225,812.227,965.79,810.518z"/>
		<path fill="#223344" d="M979.711,836.724v-32.139h4.099l0.615,4.6c1.269-1.582,2.854-2.856,4.757-3.823
			c1.903-0.967,3.957-1.45,6.163-1.45c3.708,0,6.45,1.04,8.227,3.12c1.775,2.08,2.664,5.278,2.664,9.595v20.098h-4.89
			c0-12.891-0.01-19.795-0.028-20.713c-0.079-2.734-0.63-4.736-1.654-6.006c-1.025-1.27-2.737-1.904-5.139-1.904
			c-2.518,0-4.615,0.605-6.294,1.816s-2.771,2.783-3.279,4.717c-0.195,1.309-0.293,2.812-0.293,4.512v17.578H979.711z"/>
		<path fill="#223344" d="M1023.947,837.397c-2.186,0-4.201-0.234-6.046-0.703c-1.844-0.469-3.342-1.074-4.493-1.816l0.614-4.131
			c3.26,1.738,6.46,2.607,9.603,2.607c4.763,0,7.212-1.68,7.349-5.039c0-1.426-0.508-2.549-1.522-3.369s-3.006-1.738-5.973-2.754
			l-2.43-0.85c-2.811-0.938-4.815-2.1-6.016-3.486c-1.201-1.387-1.811-3.115-1.83-5.186c0-2.52,1.01-4.609,3.03-6.27
			c2.02-1.66,4.786-2.49,8.3-2.49c3.63,0,6.938,0.703,9.925,2.109l-1.435,3.75c-3.026-1.25-5.855-1.875-8.49-1.875
			c-2.05,0-3.655,0.405-4.816,1.216s-1.742,1.948-1.742,3.413c0,1.25,0.42,2.207,1.26,2.871c0.839,0.664,2.518,1.426,5.035,2.285
			c0.644,0.234,1.454,0.508,2.43,0.82c3.24,1.055,5.533,2.3,6.88,3.735s2.021,3.374,2.021,5.815
			c-0.04,2.969-1.104,5.269-3.191,6.899C1030.319,836.582,1027.499,837.397,1023.947,837.397z"/>
		<path fill="#223344" d="M1070.526,820.64c0,4.98-1.328,9.019-3.981,12.114c-2.655,3.096-6.324,4.644-11.009,4.644
			c-4.508,0-8.095-1.562-10.759-4.688s-3.996-7.139-3.996-12.041c0-5,1.337-9.043,4.011-12.129s6.343-4.629,11.008-4.629
			c4.587,0,8.188,1.548,10.804,4.644C1069.219,811.65,1070.526,815.679,1070.526,820.64z M1045.846,820.728
			c0,3.809,0.845,6.86,2.533,9.155c1.688,2.295,4.151,3.442,7.392,3.442c3.201,0,5.616-1.143,7.246-3.428s2.444-5.361,2.444-9.229
			c0-3.926-0.805-7.017-2.415-9.272s-4.064-3.384-7.363-3.384c-3.201,0-5.641,1.152-7.318,3.457
			C1046.686,813.774,1045.846,816.86,1045.846,820.728z"/>
		<path fill="#223344" d="M1091.84,804.292c0.878,0,1.678,0.059,2.4,0.176l-0.176,4.512c-0.897-0.156-1.679-0.234-2.342-0.234
			c-2.733,0-4.953,0.952-6.66,2.856c-1.709,1.904-2.562,4.263-2.562,7.075v18.047h-4.889c-0.02-19.727-0.029-30.439-0.029-32.139
			h4.069l0.469,5.771c1.112-1.816,2.527-3.281,4.245-4.395C1088.082,804.849,1089.907,804.292,1091.84,804.292z"/>
		<path fill="#223344" d="M1108.849,837.397c-2.186,0-4.201-0.234-6.046-0.703c-1.844-0.469-3.342-1.074-4.493-1.816l0.614-4.131
			c3.26,1.738,6.46,2.607,9.603,2.607c4.763,0,7.212-1.68,7.349-5.039c0-1.426-0.508-2.549-1.522-3.369s-3.006-1.738-5.973-2.754
			l-2.43-0.85c-2.811-0.938-4.815-2.1-6.016-3.486c-1.201-1.387-1.811-3.115-1.83-5.186c0-2.52,1.01-4.609,3.03-6.27
			c2.02-1.66,4.786-2.49,8.3-2.49c3.63,0,6.938,0.703,9.925,2.109l-1.435,3.75c-3.026-1.25-5.855-1.875-8.49-1.875
			c-2.05,0-3.655,0.405-4.816,1.216s-1.742,1.948-1.742,3.413c0,1.25,0.42,2.207,1.26,2.871c0.839,0.664,2.518,1.426,5.035,2.285
			c0.644,0.234,1.454,0.508,2.43,0.82c3.24,1.055,5.533,2.3,6.88,3.735s2.021,3.374,2.021,5.815
			c-0.04,2.969-1.104,5.269-3.191,6.899C1115.221,836.582,1112.4,837.397,1108.849,837.397z"/>
	</g>
	<g>
		
			<rect x="1154.184" y="962.356" transform="matrix(0.9045 0.4264 -0.4264 0.9045 551.7569 -537.8135)" fill="#223344" width="645.632" height="2"/>
	</g>
	<g enable-background="new    ">
		<path fill="#223344" d="M1083.948,479.575c4.509,2.227,9.339,3.34,14.492,3.34c6.343,0,9.515-2.891,9.515-8.672
			c0-1.875-0.503-3.394-1.508-4.556c-1.006-1.162-2.835-2.075-5.489-2.739l-8.607-2.168c-6.578-1.66-9.866-5.176-9.866-10.547
			c0-4.121,1.415-7.183,4.245-9.185s6.743-3.003,11.74-3.003c2.614,0,5.064,0.283,7.348,0.85c2.284,0.566,4.196,1.328,5.738,2.285
			l-1.464,4.131c-1.308-0.723-3.04-1.367-5.196-1.934c-2.157-0.566-4.338-0.85-6.543-0.85c-7.066,0-10.599,2.451-10.599,7.354
			c0,1.66,0.542,2.993,1.625,3.999s2.708,1.772,4.875,2.3l8.227,1.992c3.513,0.84,6.177,2.183,7.992,4.028s2.723,4.468,2.723,7.866
			c0,4.414-1.352,7.739-4.055,9.976c-2.704,2.236-6.378,3.354-11.022,3.354c-3.475,0-6.563-0.356-9.267-1.069
			s-4.845-1.558-6.426-2.534L1083.948,479.575z"/>
		<path fill="#223344" d="M1148.034,470.64c0,4.98-1.328,9.019-3.981,12.114c-2.655,3.096-6.324,4.644-11.009,4.644
			c-4.508,0-8.095-1.562-10.759-4.688s-3.996-7.139-3.996-12.041c0-5,1.337-9.043,4.011-12.129s6.343-4.629,11.008-4.629
			c4.587,0,8.188,1.548,10.804,4.644C1146.727,461.65,1148.034,465.679,1148.034,470.64z M1123.354,470.728
			c0,3.809,0.845,6.86,2.533,9.155c1.688,2.295,4.151,3.442,7.392,3.442c3.201,0,5.616-1.143,7.246-3.428s2.444-5.361,2.444-9.229
			c0-3.926-0.805-7.017-2.415-9.272s-4.064-3.384-7.363-3.384c-3.201,0-5.641,1.152-7.318,3.457
			C1124.193,463.774,1123.354,466.86,1123.354,470.728z"/>
		<path fill="#223344" d="M1163.58,487.31c-3.123,0-5.334-0.84-6.631-2.52c-1.299-1.68-1.947-4.6-1.947-8.76v-33.926l4.859-0.293
			v32.285c0,1.328,0.015,2.393,0.044,3.193s0.103,1.587,0.22,2.358s0.273,1.353,0.469,1.743c0.194,0.391,0.478,0.747,0.849,1.069
			s0.815,0.537,1.332,0.645c0.518,0.107,1.157,0.161,1.918,0.161c0.624,0,1.854-0.117,3.688-0.352l0.264,3.896
			C1166.634,487.144,1164.946,487.31,1163.58,487.31z"/>
		<path fill="#223344" d="M1185.186,487.397c-4.665,0-8.339-1.484-11.022-4.453s-4.025-7.031-4.025-12.188
			c0-4.98,1.298-9.019,3.894-12.114s6.012-4.673,10.247-4.731c3.981,0,7.139,1.362,9.471,4.087s3.499,6.362,3.499,10.913
			c0,0.234-0.006,0.664-0.015,1.289c-0.011,0.625-0.015,1.074-0.015,1.348h-22.046c0.059,3.652,1,6.499,2.825,8.54
			s4.279,3.062,7.363,3.062c3.396,0,6.802-0.898,10.218-2.695l0.761,3.955C1193.08,486.401,1189.362,487.397,1185.186,487.397z
			 M1190.119,460.518c-1.435-1.709-3.401-2.563-5.899-2.563c-2.499,0-4.538,0.884-6.119,2.651s-2.508,4.185-2.781,7.251h16.951
			C1192.271,464.673,1191.554,462.227,1190.119,460.518z"/>
		<path fill="#223344" d="M1204.04,486.724v-32.139h4.099l0.615,4.6c1.269-1.582,2.854-2.856,4.757-3.823
			c1.903-0.967,3.957-1.45,6.163-1.45c3.708,0,6.45,1.04,8.227,3.12c1.775,2.08,2.664,5.278,2.664,9.595v20.098h-4.89
			c0-12.891-0.01-19.795-0.028-20.713c-0.079-2.734-0.63-4.736-1.654-6.006c-1.025-1.27-2.737-1.904-5.139-1.904
			c-2.518,0-4.615,0.605-6.294,1.816s-2.771,2.783-3.279,4.717c-0.195,1.309-0.293,2.812-0.293,4.512v17.578H1204.04z"/>
		<path fill="#223344" d="M1266.955,470.64c0,4.98-1.328,9.019-3.981,12.114c-2.655,3.096-6.324,4.644-11.009,4.644
			c-4.508,0-8.095-1.562-10.759-4.688s-3.996-7.139-3.996-12.041c0-5,1.337-9.043,4.011-12.129s6.343-4.629,11.008-4.629
			c4.587,0,8.188,1.548,10.804,4.644C1265.647,461.65,1266.955,465.679,1266.955,470.64z M1242.274,470.728
			c0,3.809,0.845,6.86,2.533,9.155c1.688,2.295,4.151,3.442,7.392,3.442c3.201,0,5.616-1.143,7.246-3.428s2.444-5.361,2.444-9.229
			c0-3.926-0.805-7.017-2.415-9.272s-4.064-3.384-7.363-3.384c-3.201,0-5.641,1.152-7.318,3.457
			C1243.114,463.774,1242.274,466.86,1242.274,470.728z"/>
		<path fill="#223344" d="M1279.632,442.896v5.801h-4.919v-5.801H1279.632z M1279.632,454.585v32.139h-4.919v-32.139H1279.632z"/>
		<path fill="#223344" d="M1310.986,482.065c-1.054,1.621-2.459,2.91-4.216,3.867s-3.718,1.436-5.885,1.436
			c-4.235,0-7.553-1.509-9.954-4.526c-2.4-3.018-3.601-7.124-3.601-12.319c0-4.961,1.22-8.97,3.659-12.026
			c2.44-3.057,5.709-4.585,9.808-4.585c2.128,0,4.133,0.464,6.017,1.392s3.294,2.173,4.23,3.735l-0.088-2.783v-14.15l4.831-0.293
			v44.912h-4.157L1310.986,482.065z M1301.354,483.179c3.221,0,5.616-1.035,7.188-3.105c1.57-2.07,2.356-5.029,2.356-8.877
			c0-4.336-0.757-7.603-2.269-9.8c-1.513-2.197-3.958-3.296-7.334-3.296c-1.503,0-2.83,0.322-3.981,0.967
			c-1.152,0.645-2.079,1.543-2.781,2.695c-0.703,1.152-1.234,2.476-1.596,3.97s-0.542,3.13-0.542,4.907
			c0,2.5,0.308,4.668,0.923,6.504c0.614,1.836,1.604,3.301,2.972,4.395C1297.655,482.632,1299.344,483.179,1301.354,483.179z"/>
		<path fill="#223344" d="M1333.852,487.397c-2.186,0-4.201-0.234-6.046-0.703c-1.844-0.469-3.342-1.074-4.493-1.816l0.614-4.131
			c3.26,1.738,6.46,2.607,9.603,2.607c4.763,0,7.212-1.68,7.349-5.039c0-1.426-0.508-2.549-1.522-3.369s-3.006-1.738-5.973-2.754
			l-2.43-0.85c-2.811-0.938-4.815-2.1-6.016-3.486c-1.201-1.387-1.811-3.115-1.83-5.186c0-2.52,1.01-4.609,3.03-6.27
			c2.02-1.66,4.786-2.49,8.3-2.49c3.63,0,6.938,0.703,9.925,2.109l-1.435,3.75c-3.026-1.25-5.855-1.875-8.49-1.875
			c-2.05,0-3.655,0.405-4.816,1.216s-1.742,1.948-1.742,3.413c0,1.25,0.42,2.207,1.26,2.871c0.839,0.664,2.518,1.426,5.035,2.285
			c0.644,0.234,1.454,0.508,2.43,0.82c3.24,1.055,5.533,2.3,6.88,3.735s2.021,3.374,2.021,5.815
			c-0.04,2.969-1.104,5.269-3.191,6.899C1340.224,486.582,1337.403,487.397,1333.852,487.397z"/>
	</g>
	<g>
		
			<rect x="1394.48" y="544.034" transform="matrix(0.9045 0.4264 -0.4264 0.9045 381.0294 -611.881)" fill="#223344" width="325.166" height="2"/>
	</g>
	<g enable-background="new    ">
		<path fill="#223344" d="M4079.248,2558.553l-5.064-13.74h-17.273l-5.24,13.74h-5.152l16.629-43.418h5.182l16.132,43.418H4079.248z
			 M4072.544,2540.564c-4.118-11.973-6.392-18.701-6.821-20.186l-7.114,20.186H4072.544z"/>
		<path fill="#223344" d="M4103.139,2526.121c0.878,0,1.678,0.059,2.4,0.176l-0.176,4.512c-0.897-0.156-1.679-0.234-2.342-0.234
			c-2.733,0-4.953,0.952-6.66,2.856c-1.709,1.904-2.562,4.263-2.562,7.075v18.047h-4.889c-0.02-19.727-0.029-30.439-0.029-32.139
			h4.069l0.469,5.771c1.112-1.816,2.527-3.281,4.245-4.395C4099.381,2526.678,4101.206,2526.121,4103.139,2526.121z"/>
		<path fill="#223344" d="M4132.15,2553.895c-1.054,1.621-2.459,2.91-4.216,3.867s-3.718,1.436-5.885,1.436
			c-4.235,0-7.553-1.509-9.954-4.526c-2.4-3.018-3.601-7.124-3.601-12.319c0-4.961,1.22-8.97,3.659-12.026
			c2.44-3.057,5.709-4.585,9.808-4.585c2.128,0,4.133,0.464,6.017,1.392s3.294,2.173,4.23,3.735l-0.088-2.783v-14.15l4.831-0.293
			v44.912h-4.157L4132.15,2553.895z M4122.519,2555.008c3.221,0,5.616-1.035,7.188-3.105c1.57-2.07,2.356-5.029,2.356-8.877
			c0-4.336-0.757-7.603-2.269-9.8c-1.513-2.197-3.958-3.296-7.334-3.296c-1.503,0-2.83,0.322-3.981,0.967
			c-1.152,0.645-2.079,1.543-2.781,2.695c-0.703,1.152-1.234,2.476-1.596,3.97s-0.542,3.13-0.542,4.907
			c0,2.5,0.308,4.668,0.923,6.504c0.614,1.836,1.604,3.301,2.972,4.395C4118.819,2554.461,4120.508,2555.008,4122.519,2555.008z"/>
		<path fill="#223344" d="M4144.33,2547.83v-21.416h4.918v21.475c0,1.406,0.2,2.598,0.601,3.574
			c0.399,0.977,0.976,1.733,1.728,2.271c0.751,0.537,1.6,0.923,2.547,1.157c0.946,0.234,2.034,0.352,3.264,0.352
			c2.537,0,4.514-0.557,5.929-1.67s2.123-3.008,2.123-5.684v-21.475h4.918v21.416c0,1.641-0.234,3.115-0.702,4.424
			c-0.469,1.309-1.099,2.397-1.889,3.267s-1.742,1.587-2.854,2.153s-2.288,0.977-3.527,1.23c-1.24,0.254-2.572,0.381-3.997,0.381
			c-1.405,0-2.732-0.127-3.981-0.381s-2.435-0.669-3.557-1.245c-1.123-0.576-2.089-1.299-2.898-2.168
			c-0.811-0.869-1.449-1.958-1.918-3.267C4144.564,2550.916,4144.33,2549.451,4144.33,2547.83z"/>
		<path fill="#223344" d="M4183.414,2514.725v5.801h-4.919v-5.801H4183.414z M4183.414,2526.414v32.139h-4.919v-32.139H4183.414z"/>
		<path fill="#223344" d="M4192.606,2558.553v-32.139h4.099l0.615,4.6c1.269-1.582,2.854-2.856,4.757-3.823
			c1.903-0.967,3.957-1.45,6.163-1.45c3.708,0,6.45,1.04,8.227,3.12c1.775,2.08,2.664,5.278,2.664,9.595v20.098h-4.89
			c0-12.891-0.01-19.795-0.028-20.713c-0.079-2.734-0.63-4.736-1.654-6.006c-1.025-1.27-2.737-1.904-5.139-1.904
			c-2.518,0-4.615,0.605-6.294,1.816s-2.771,2.783-3.279,4.717c-0.195,1.309-0.293,2.812-0.293,4.512v17.578H4192.606z"/>
		<path fill="#223344" d="M4255.521,2542.469c0,4.98-1.328,9.019-3.981,12.114c-2.655,3.096-6.324,4.644-11.009,4.644
			c-4.508,0-8.095-1.562-10.759-4.688s-3.996-7.139-3.996-12.041c0-5,1.337-9.043,4.011-12.129s6.343-4.629,11.008-4.629
			c4.587,0,8.188,1.548,10.804,4.644C4254.214,2533.479,4255.521,2537.508,4255.521,2542.469z M4230.841,2542.557
			c0,3.809,0.845,6.86,2.533,9.155c1.688,2.295,4.151,3.442,7.392,3.442c3.201,0,5.616-1.143,7.246-3.428s2.444-5.361,2.444-9.229
			c0-3.926-0.805-7.017-2.415-9.272s-4.064-3.384-7.363-3.384c-3.201,0-5.641,1.152-7.318,3.457
			C4231.681,2535.604,4230.841,2538.689,4230.841,2542.557z"/>
		<path fill="#223344" d="M4310.59,2515.223v28.125c0,4.98-1.361,8.867-4.084,11.66s-6.865,4.189-12.428,4.189
			s-9.671-1.396-12.325-4.189s-3.981-6.699-3.981-11.719v-28.066h5.094v28.154c0,3.926,0.927,6.816,2.781,8.672
			s4.724,2.783,8.607,2.783c3.786,0,6.611-0.938,8.476-2.812c1.863-1.875,2.796-4.766,2.796-8.672v-28.125H4310.59z"/>
		<path fill="#223344" d="M4319.49,2558.553v-32.139h4.099l0.615,4.6c1.269-1.582,2.854-2.856,4.757-3.823
			c1.903-0.967,3.957-1.45,6.163-1.45c3.708,0,6.45,1.04,8.227,3.12c1.775,2.08,2.664,5.278,2.664,9.595v20.098h-4.89
			c0-12.891-0.01-19.795-0.028-20.713c-0.079-2.734-0.63-4.736-1.654-6.006c-1.025-1.27-2.737-1.904-5.139-1.904
			c-2.518,0-4.615,0.605-6.294,1.816s-2.771,2.783-3.279,4.717c-0.195,1.309-0.293,2.812-0.293,4.512v17.578H4319.49z"/>
		<path fill="#223344" d="M4382.405,2542.469c0,4.98-1.328,9.019-3.981,12.114c-2.655,3.096-6.324,4.644-11.009,4.644
			c-4.508,0-8.095-1.562-10.759-4.688s-3.996-7.139-3.996-12.041c0-5,1.337-9.043,4.011-12.129s6.343-4.629,11.008-4.629
			c4.587,0,8.188,1.548,10.804,4.644C4381.098,2533.479,4382.405,2537.508,4382.405,2542.469z M4357.725,2542.557
			c0,3.809,0.845,6.86,2.533,9.155c1.688,2.295,4.151,3.442,7.392,3.442c3.201,0,5.616-1.143,7.246-3.428s2.444-5.361,2.444-9.229
			c0-3.926-0.805-7.017-2.415-9.272s-4.064-3.384-7.363-3.384c-3.201,0-5.641,1.152-7.318,3.457
			C4358.564,2535.604,4357.725,2538.689,4357.725,2542.557z"/>
	</g>
	<g>
		
			<rect x="3577.823" y="2326.776" transform="matrix(0.6281 0.7781 -0.7781 0.6281 3232.9878 -2109.0869)" fill="#223344" width="490.353" height="2"/>
	</g>
</g>
<g id="Layer_2" display="none">
	
		<text transform="matrix(0.9993 0 0 1 3857.7148 903.5527)" display="inline" fill="#223344" font-family="'Oxygen-Regular'" font-size="60">Transistors for solenoids</text>
	
		<line display="inline" fill="none" stroke="#223344" stroke-width="2" stroke-miterlimit="10" x1="3788.285" y1="888" x2="3480.285" y2="1269.553"/>
	
		<text transform="matrix(0.9993 0 0 1 3782.2852 2856.1055)" display="inline" fill="#223344" font-family="'Oxygen-Regular'" font-size="60">Resistors for light sensors &amp; LEDs</text>
	
		<line display="inline" fill="none" stroke="#223344" stroke-width="2" stroke-miterlimit="10" x1="2893.924" y1="1808.58" x2="3710.708" y2="2820.42"/>
	
		<text transform="matrix(0.9993 0 0 1 400.2852 2420.1055)" display="inline" fill="#223344" font-family="'Oxygen-Regular'" font-size="60">LEDs</text>
</g>
</svg>
