<?xml version="1.0" encoding="utf-8"?>
<!-- Generator: Adobe Illustrator 16.0.0, SVG Export Plug-In . SVG Version: 6.00 Build 0)  -->
<!DOCTYPE svg PUBLIC "-//W3C//DTD SVG 1.1//EN" "http://www.w3.org/Graphics/SVG/1.1/DTD/svg11.dtd">
<svg version="1.1" id="Layer_1" xmlns="http://www.w3.org/2000/svg" xmlns:xlink="http://www.w3.org/1999/xlink" x="0px" y="0px"
	 width="490.666px" height="294px" viewBox="0 0 490.666 294" enable-background="new 0 0 490.666 294" xml:space="preserve">
<rect x="22.301" y="76.746" fill="none" stroke="#000234" stroke-width="1.2" stroke-miterlimit="10" width="12.399" height="37.355"/>
<line fill="none" stroke="#000234" stroke-width="1.2" stroke-miterlimit="10" x1="28.265" y1="237.091" x2="28.265" y2="278.667"/>
<line fill="none" stroke="#000234" stroke-width="1.2" stroke-miterlimit="10" x1="28.265" y1="114.101" x2="28.265" y2="186.878"/>
<line fill="none" stroke="#000234" stroke-width="1.2" stroke-miterlimit="10" x1="28.265" y1="24" x2="28.265" y2="76.746"/>
<polygon fill="none" stroke="#000234" stroke-width="1.2" stroke-miterlimit="10" points="36.523,237.091 28.265,237.091 
	19.857,237.091 19.857,186.878 28.265,186.878 36.523,186.878 "/>
<circle fill="none" stroke="#000234" stroke-width="1.2" stroke-miterlimit="10" cx="28.5" cy="95.424" r="25.645"/>
<g>
	<g>
		<line fill="none" stroke="#000234" stroke-width="1.2" stroke-miterlimit="10" x1="54.754" y1="58.869" x2="46.557" y2="68.803"/>
		<g>
			<polygon points="44.806,66.223 43.816,72.124 49.421,70.032 			"/>
		</g>
	</g>
</g>
<g>
	<g>
		<line fill="none" stroke="#000234" stroke-width="1.2" stroke-miterlimit="10" x1="60.026" y1="63.591" x2="51.828" y2="73.524"/>
		<g>
			<polygon points="50.078,70.945 49.087,76.845 54.693,74.753 			"/>
		</g>
	</g>
</g>
<line fill="none" stroke="#000234" stroke-width="1.2" stroke-miterlimit="10" x1="28.265" y1="150.49" x2="77" y2="150.49"/>
<g>
	<line fill="none" stroke="#000234" stroke-width="1.2" stroke-miterlimit="10" x1="20" y1="281.257" x2="36.381" y2="281.257"/>
	
		<line fill="none" stroke="#000234" stroke-width="1.2" stroke-miterlimit="10" x1="22.722" y1="286.167" x2="33.659" y2="286.167"/>
	
		<line fill="none" stroke="#000234" stroke-width="1.2" stroke-miterlimit="10" x1="25.557" y1="291.077" x2="30.824" y2="291.077"/>
</g>
<circle fill="none" stroke="#000234" stroke-width="1.2" stroke-miterlimit="10" cx="28.5" cy="24" r="3.15"/>
<circle fill="none" stroke="#000234" stroke-width="1.2" stroke-miterlimit="10" cx="77" cy="150.49" r="3.15"/>
<circle fill="none" stroke="#000234" stroke-width="1.2" stroke-miterlimit="10" cx="410.875" cy="208.667" r="25.646"/>
<line fill="none" stroke="#000234" stroke-width="1.2" stroke-miterlimit="10" x1="364.666" y1="208.667" x2="398.766" y2="208.667"/>
<line fill="none" stroke="#000234" stroke-width="1.2" stroke-miterlimit="10" x1="398.766" y1="193.833" x2="398.766" y2="223.5"/>
<path fill="none" stroke="#000234" stroke-width="1.2" stroke-miterlimit="10" d="M419.1,208.667"/>
<g>
	<polyline fill="none" stroke="#000234" stroke-width="1.2" stroke-miterlimit="10" points="419.1,113.69 419.1,191.284 
		398.766,202.133 	"/>
	<polyline fill="none" stroke="#000234" stroke-width="1.2" stroke-miterlimit="10" points="419.1,278.643 419.1,226.049 
		398.766,215.2 	"/>
</g>
<g>
	<g>
		
			<line fill="none" stroke="#000234" stroke-width="1.2" stroke-miterlimit="10" x1="402.289" y1="217.081" x2="408.933" y2="220.624"/>
		<g>
			<polygon points="406.752,222.852 412.731,222.65 409.568,217.572 			"/>
		</g>
	</g>
</g>
<g>
	<g>
		<g>
			<polyline fill="none" stroke="#000234" stroke-width="1.2" stroke-miterlimit="10" points="419.1,124.334 379.751,124.334 
				379.751,122.857 379.751,97.57 			"/>
			<g>
				<polygon points="386.99,99.688 379.751,87.15 372.511,99.688 				"/>
			</g>
		</g>
	</g>
	<polyline fill="none" stroke="#000234" stroke-width="1.2" stroke-miterlimit="10" points="379.751,98.274 379.751,65.524 
		419.1,65.524 	"/>
	<line fill="none" stroke="#000234" stroke-width="1.2" stroke-miterlimit="10" x1="372.271" y1="87.857" x2="387.23" y2="87.857"/>
</g>
<path fill="none" stroke="#000234" stroke-width="1.2" stroke-miterlimit="10" d="M419.1,181.047v-66.649
	c-3.51,0-6.356-2.167-6.356-4.84c0-2.673,2.848-4.842,6.356-4.842c-3.51,0-6.356-2.167-6.356-4.841c0-2.673,2.848-4.841,6.356-4.841
	v0.004c-3.51,0-6.356-2.167-6.356-4.841c0-2.673,2.848-4.842,6.356-4.842c-3.51,0-6.356-2.167-6.356-4.841
	c0-2.674,2.848-4.841,6.356-4.841V23.667"/>
<polygon fill="none" stroke="#000234" stroke-width="1.2" stroke-miterlimit="10" points="364.666,200.333 364.666,208.592 
	364.666,217 314.454,217 314.454,208.592 314.454,200.333 "/>
<line fill="none" stroke="#000234" stroke-width="1.2" stroke-miterlimit="10" x1="314.454" y1="208.592" x2="283.814" y2="208.592"/>
<circle fill="none" stroke="#000234" stroke-width="1.2" stroke-miterlimit="10" cx="419.1" cy="24" r="3.149"/>
<circle fill="none" stroke="#000234" stroke-width="1.2" stroke-miterlimit="10" cx="283.814" cy="208.667" r="3.149"/>
<g>
	
		<line fill="none" stroke="#000234" stroke-width="1.2" stroke-miterlimit="10" x1="410.908" y1="281.257" x2="427.289" y2="281.257"/>
	
		<line fill="none" stroke="#000234" stroke-width="1.2" stroke-miterlimit="10" x1="413.632" y1="286.167" x2="424.567" y2="286.167"/>
	
		<line fill="none" stroke="#000234" stroke-width="1.2" stroke-miterlimit="10" x1="416.466" y1="291.077" x2="421.733" y2="291.077"/>
</g>
<text transform="matrix(1 0 0 1 48.6672 211.9844)" enable-background="new    "><tspan x="0" y="0" fill="#4E5153" font-family="'Oxygen-Regular'" font-size="14">10 K</tspan><tspan x="24.746" y="0" fill="#4E5153" font-family="'KiteOne-Regular'" font-size="14">Ω</tspan></text>
<text transform="matrix(1 0 0 1 448.0012 211.9844)" fill="#4E5153" font-family="'Oxygen-Regular'" font-size="14">TIP122</text>
<text transform="matrix(1 0 0 1 318.3352 191.8164)" enable-background="new    "><tspan x="0" y="0" fill="#4E5153" font-family="'Oxygen-Regular'" font-size="14">2.2 K</tspan><tspan x="30.617" y="0" fill="#4E5153" font-family="'KiteOne-Regular'" font-size="14">Ω</tspan></text>
<text transform="matrix(1 0 0 1 406.6165 13.1504)" fill="#4E5153" font-family="'Oxygen-Regular'" font-size="14">12V</text>
<text transform="matrix(1 0 0 1 20.2234 13.1504)" fill="#4E5153" font-family="'Oxygen-Regular'" font-size="14">5V</text>
<text transform="matrix(1 0 0 1 87.9998 154.6396)" fill="#4E5153" font-family="'Oxygen-Regular'" font-size="14">Pin A0</text>
<text transform="matrix(1 0 0 1 243.6663 211.9844)" fill="#4E5153" font-family="'Oxygen-Regular'" font-size="14">Pin 8</text>
</svg>
