<?xml version="1.0" encoding="utf-8"?>
<!-- Generator: Adobe Illustrator 16.0.0, SVG Export Plug-In . SVG Version: 6.00 Build 0)  -->
<!DOCTYPE svg PUBLIC "-//W3C//DTD SVG 1.1//EN" "http://www.w3.org/Graphics/SVG/1.1/DTD/svg11.dtd">
<svg version="1.1" id="Layer_1" xmlns="http://www.w3.org/2000/svg" xmlns:xlink="http://www.w3.org/1999/xlink" x="0px" y="0px"
	 width="490.666px" height="294px" viewBox="0 0 490.666 294" enable-background="new 0 0 490.666 294" xml:space="preserve">
<g>
	<path fill="#000234" d="M35.3,114.701h-13.6V76.146h13.6V114.701z M22.901,113.501H34.1V77.346H22.901V113.501z"/>
</g>
<g>
	<rect x="27.665" y="237.091" fill="#000234" width="1.2" height="41.576"/>
</g>
<g>
	<rect x="27.665" y="114.101" fill="#000234" width="1.2" height="72.777"/>
</g>
<g>
	<rect x="27.665" y="24" fill="#000234" width="1.2" height="52.746"/>
</g>
<g>
	<path fill="#000234" d="M37.123,237.69H19.257v-51.412h17.866V237.69z M20.457,236.491h15.466v-49.014H20.457V236.491z"/>
</g>
<g>
	<path fill="#000234" d="M28.5,121.669c-14.472,0-26.245-11.773-26.245-26.245S14.028,69.179,28.5,69.179
		s26.245,11.773,26.245,26.245S42.972,121.669,28.5,121.669z M28.5,70.379c-13.81,0-25.045,11.235-25.045,25.045
		S14.69,120.469,28.5,120.469s25.045-11.235,25.045-25.045S42.31,70.379,28.5,70.379z"/>
</g>
<g>
	<g>
		<g>
			
				<rect x="50.055" y="57.397" transform="matrix(0.7714 0.6363 -0.6363 0.7714 52.2002 -17.6418)" fill="#000234" width="1.2" height="12.879"/>
		</g>
		<g>
			<g>
				<polygon points="44.806,66.223 43.816,72.124 49.421,70.032 				"/>
			</g>
		</g>
	</g>
</g>
<g>
	<g>
		<g>
			
				<rect x="55.327" y="62.118" transform="matrix(0.7714 0.6363 -0.6363 0.7714 56.4096 -19.917)" fill="#000234" width="1.2" height="12.879"/>
		</g>
		<g>
			<g>
				<polygon points="50.078,70.945 49.087,76.845 54.693,74.753 				"/>
			</g>
		</g>
	</g>
</g>
<g>
	<rect x="28.265" y="149.891" fill="#000234" width="48.735" height="1.199"/>
</g>
<g>
	<g>
		<rect x="20" y="280.657" fill="#000234" width="16.381" height="1.199"/>
	</g>
	<g>
		<rect x="22.722" y="285.567" fill="#000234" width="10.937" height="1.199"/>
	</g>
	<g>
		<rect x="25.557" y="290.478" fill="#000234" width="5.267" height="1.199"/>
	</g>
</g>
<g>
	<path fill="#000234" d="M28.5,27.75c-2.068,0-3.75-1.682-3.75-3.75s1.682-3.75,3.75-3.75s3.75,1.682,3.75,3.75
		S30.568,27.75,28.5,27.75z M28.5,21.45c-1.406,0-2.55,1.144-2.55,2.55s1.144,2.55,2.55,2.55s2.55-1.144,2.55-2.55
		S29.906,21.45,28.5,21.45z"/>
</g>
<g>
	<path fill="#000234" d="M77,154.24c-2.068,0-3.75-1.682-3.75-3.75s1.682-3.75,3.75-3.75s3.75,1.682,3.75,3.75
		S79.068,154.24,77,154.24z M77,147.939c-1.406,0-2.55,1.145-2.55,2.551s1.144,2.551,2.55,2.551s2.55-1.145,2.55-2.551
		S78.406,147.939,77,147.939z"/>
</g>
<g>
	<path fill="#000234" d="M410.875,234.912c-14.472,0-26.245-11.773-26.245-26.245s11.773-26.245,26.245-26.245
		c14.473,0,26.246,11.773,26.246,26.245S425.348,234.912,410.875,234.912z M410.875,183.621c-13.811,0-25.046,11.235-25.046,25.046
		s11.235,25.046,25.046,25.046s25.047-11.235,25.047-25.046S424.686,183.621,410.875,183.621z"/>
</g>
<g>
	<rect x="364.666" y="208.067" fill="#000234" width="34.1" height="1.199"/>
</g>
<g>
	<rect x="398.166" y="193.833" fill="#000234" width="1.199" height="29.667"/>
</g>
<g>
	<path fill="none" stroke="#000234" stroke-width="1.2" stroke-miterlimit="10" d="M419.1,208.667"/>
</g>
<g>
	<g>
		<polygon fill="#000234" points="399.048,202.662 398.483,201.604 418.5,190.924 418.5,113.69 419.699,113.69 419.699,191.645 		
			"/>
	</g>
	<g>
		<polygon fill="#000234" points="419.699,278.643 418.5,278.643 418.5,226.409 398.483,215.729 399.048,214.671 419.699,225.688 		
			"/>
	</g>
</g>
<g>
	<g>
		<g>
			
				<rect x="401.846" y="218.253" transform="matrix(0.8824 0.4706 -0.4706 0.8824 150.6967 -165.1205)" fill="#000234" width="7.529" height="1.2"/>
		</g>
		<g>
			<g>
				<polygon points="406.752,222.852 412.73,222.65 409.568,217.572 				"/>
			</g>
		</g>
	</g>
</g>
<g>
	<g>
		<g>
			<g>
				<polygon fill="#000234" points="419.1,124.934 379.151,124.934 379.151,97.57 380.351,97.57 380.351,123.734 419.1,123.734 				
					"/>
			</g>
			<g>
				<g>
					<polygon points="386.99,99.688 379.751,87.15 372.511,99.688 					"/>
				</g>
			</g>
		</g>
	</g>
	<g>
		<polygon fill="#000234" points="380.351,98.274 379.151,98.274 379.151,64.924 419.1,64.924 419.1,66.124 380.351,66.124 		"/>
	</g>
	<g>
		<rect x="372.271" y="87.257" fill="#000234" width="14.959" height="1.2"/>
	</g>
</g>
<g>
	<path fill="#000234" d="M419.699,181.047H418.5v-66.069c-3.556-0.239-6.355-2.579-6.355-5.42c0-2.107,1.538-3.938,3.782-4.842
		c-2.244-0.904-3.782-2.734-3.782-4.841c0-2.105,1.536-3.935,3.777-4.839c-2.241-0.905-3.777-2.734-3.777-4.839
		c0-2.107,1.538-3.938,3.782-4.842c-2.244-0.904-3.782-2.734-3.782-4.841c0-2.842,2.8-5.183,6.355-5.421V23.667h1.199v52.606h-0.6
		c-3.174,0-5.756,1.902-5.756,4.241c0,2.338,2.582,4.241,5.756,4.241v1.2c-3.174,0-5.756,1.903-5.756,4.242
		c0,2.294,2.484,4.168,5.574,4.239c0.061-0.001,0.121-0.002,0.182-0.002h0.6v1.2l-0.6,0.004c-0.061,0-0.121,0-0.182-0.002
		c-3.09,0.071-5.574,1.945-5.574,4.239c0,2.338,2.582,4.241,5.756,4.241v1.2c-3.174,0-5.756,1.903-5.756,4.242
		c0,2.338,2.582,4.24,5.756,4.24h0.6V181.047z"/>
</g>
<g>
	<path fill="#000234" d="M365.266,217.6h-51.411v-17.866h51.411V217.6z M315.054,216.4h49.013v-15.468h-49.013V216.4z"/>
</g>
<g>
	<rect x="283.813" y="207.992" fill="#000234" width="30.641" height="1.199"/>
</g>
<g>
	<path fill="#000234" d="M419.1,27.749c-2.066,0-3.748-1.682-3.748-3.749s1.682-3.749,3.748-3.749c2.067,0,3.749,1.682,3.749,3.749
		S421.167,27.749,419.1,27.749z M419.1,21.451c-1.405,0-2.549,1.144-2.549,2.549s1.144,2.549,2.549,2.549s2.55-1.144,2.55-2.549
		S420.505,21.451,419.1,21.451z"/>
</g>
<g>
	<path fill="#000234" d="M283.813,212.416c-2.067,0-3.748-1.682-3.748-3.749s1.681-3.749,3.748-3.749s3.749,1.682,3.749,3.749
		S285.881,212.416,283.813,212.416z M283.813,206.117c-1.405,0-2.549,1.145-2.549,2.55s1.144,2.55,2.549,2.55s2.55-1.145,2.55-2.55
		S285.219,206.117,283.813,206.117z"/>
</g>
<g>
	<g>
		<rect x="410.908" y="280.657" fill="#000234" width="16.381" height="1.199"/>
	</g>
	<g>
		<rect x="413.632" y="285.567" fill="#000234" width="10.936" height="1.199"/>
	</g>
	<g>
		<rect x="416.466" y="290.478" fill="#000234" width="5.268" height="1.199"/>
	</g>
</g>
<g enable-background="new    ">
	<path fill="#4E5153" d="M50.731,201.758h1.087v10.227h-1.21v-8.962c-0.46,0.301-1.023,0.559-1.688,0.772v-1.142
		c0.073-0.032,0.221-0.096,0.444-0.191s0.391-0.169,0.502-0.219s0.252-0.121,0.42-0.212S50.604,201.849,50.731,201.758z"/>
	<path fill="#4E5153" d="M58.788,211.742c-0.454,0.266-0.983,0.399-1.589,0.399s-1.137-0.134-1.593-0.399
		c-0.456-0.268-0.821-0.642-1.097-1.125s-0.481-1.039-0.615-1.668s-0.202-1.328-0.202-2.099c0-0.634,0.044-1.219,0.133-1.757
		s0.227-1.025,0.414-1.463s0.418-0.809,0.694-1.114s0.605-0.541,0.988-0.708c0.383-0.166,0.809-0.249,1.278-0.249
		c0.583,0,1.1,0.128,1.548,0.383s0.813,0.618,1.094,1.091c0.28,0.471,0.491,1.027,0.632,1.668c0.141,0.64,0.212,1.356,0.212,2.149
		c0,0.771-0.066,1.47-0.198,2.099s-0.335,1.185-0.608,1.668S59.241,211.475,58.788,211.742z M58.395,203.148
		c-0.333-0.366-0.731-0.55-1.196-0.55s-0.864,0.184-1.196,0.55c-0.333,0.367-0.582,0.864-0.749,1.49
		c-0.167,0.627-0.25,1.351-0.25,2.171c0,0.834,0.083,1.571,0.25,2.212c0.167,0.64,0.416,1.146,0.749,1.521s0.731,0.561,1.196,0.561
		s0.864-0.187,1.196-0.561s0.582-0.881,0.749-1.521c0.167-0.641,0.25-1.378,0.25-2.212c0-0.82-0.083-1.544-0.25-2.171
		C58.977,204.013,58.727,203.516,58.395,203.148z"/>
	<path fill="#4E5153" d="M73.536,211.984h-1.449l-3.869-4.826l-0.923,0.813v4.013h-1.189v-10.11h1.189v4.963l4.443-4.963h1.483
		l-4.102,4.553L73.536,211.984z"/>
</g>
<g enable-background="new    ">
	<path fill="#4E5153" d="M81.645,207.603c0.392-0.635,0.658-1.268,0.798-1.897c0.14-0.63,0.21-1.176,0.21-1.638
		s-0.033-0.831-0.098-1.106c-0.065-0.274-0.178-0.55-0.336-0.825c-0.159-0.275-0.359-0.516-0.602-0.722
		c-0.532-0.466-1.237-0.699-2.114-0.699c-0.644,0-1.208,0.172-1.694,0.518s-0.854,0.789-1.106,1.33
		c-0.495,1.063-0.742,2.156-0.742,3.275c0,1.728,0.518,2.786,1.554,3.179l-0.364,2.478c-0.046,0.327-0.229,0.49-0.546,0.49h-2.142
		c-0.327,0-0.49-0.145-0.49-0.434c0-0.149,0.049-0.269,0.147-0.357s0.231-0.133,0.399-0.133h1.624l0.224-1.554
		c-1.055-0.616-1.582-1.919-1.582-3.906c0-1.12,0.224-2.156,0.672-3.108c0.243-0.522,0.539-0.982,0.889-1.379
		s0.795-0.719,1.337-0.966c0.541-0.247,1.164-0.371,1.869-0.371c0.705,0,1.344,0.121,1.918,0.364
		c0.574,0.242,1.024,0.569,1.351,0.979c0.663,0.831,0.994,1.778,0.994,2.842c0,1.064-0.222,2.105-0.665,3.122
		c-0.443,1.018-1.08,1.797-1.911,2.339l-0.14,1.638h1.694c0.327,0,0.49,0.145,0.49,0.434c0,0.149-0.049,0.269-0.147,0.357
		c-0.098,0.089-0.231,0.133-0.399,0.133h-2.31c-0.327,0-0.49-0.116-0.49-0.35c0-0.112,0.009-0.252,0.028-0.42l0.196-2.198
		C80.758,208.708,81.253,208.237,81.645,207.603z"/>
</g>
<g enable-background="new    ">
	<path fill="#4E5153" d="M452.349,211.984h-1.189v-9.064h-3.11v-1.046h7.41v1.046h-3.11V211.984z"/>
	<path fill="#4E5153" d="M457.94,211.984h-1.183v-10.11h1.183V211.984z"/>
	<path fill="#4E5153" d="M461.413,211.984h-1.21v-10.227h3.295c0.501,0,0.954,0.053,1.36,0.157s0.766,0.265,1.08,0.479
		s0.559,0.501,0.731,0.861s0.26,0.779,0.26,1.258c0,0.396-0.036,0.751-0.109,1.063c-0.073,0.312-0.198,0.604-0.376,0.878
		s-0.41,0.5-0.697,0.681c-0.287,0.18-0.655,0.32-1.104,0.424c-0.449,0.102-0.971,0.153-1.562,0.153
		c-0.469,0-1.025-0.029-1.668-0.089V211.984z M463.197,206.666c0.446,0,0.829-0.043,1.148-0.13s0.563-0.193,0.735-0.321
		c0.17-0.128,0.305-0.294,0.402-0.499c0.099-0.205,0.158-0.394,0.182-0.563c0.023-0.172,0.034-0.378,0.034-0.619
		c0-0.579-0.194-1.005-0.585-1.278c-0.389-0.273-0.919-0.41-1.589-0.41h-2.112v3.808
		C462.292,206.661,462.888,206.666,463.197,206.666z"/>
	<path fill="#4E5153" d="M469.192,201.758h1.087v10.227h-1.21v-8.962c-0.461,0.301-1.023,0.559-1.688,0.772v-1.142
		c0.073-0.032,0.222-0.096,0.444-0.191s0.391-0.169,0.502-0.219c0.112-0.05,0.252-0.121,0.421-0.212
		S469.065,201.849,469.192,201.758z"/>
	<path fill="#4E5153" d="M472.18,211.984l-0.157-1.121l3.534-3.924c0.237-0.265,0.466-0.606,0.687-1.025
		c0.222-0.419,0.383-0.774,0.482-1.066l0.157-0.431c0-0.565-0.157-1.004-0.472-1.315c-0.314-0.312-0.762-0.469-1.34-0.469
		c-0.967,0-1.727,0.28-2.283,0.841l-0.396-1.025c0.629-0.593,1.549-0.889,2.762-0.889c0.93,0,1.67,0.252,2.222,0.755
		c0.552,0.504,0.827,1.178,0.827,2.021c-0.018,0.063-0.045,0.149-0.082,0.257c-0.037,0.106-0.115,0.315-0.236,0.625
		c-0.12,0.31-0.246,0.604-0.379,0.882s-0.3,0.583-0.502,0.916c-0.203,0.333-0.41,0.61-0.619,0.834l-2.885,3.083h4.737l-0.075,1.053
		H472.18z"/>
	<path fill="#4E5153" d="M479.809,211.984l-0.157-1.121l3.534-3.924c0.237-0.265,0.466-0.606,0.687-1.025
		c0.222-0.419,0.383-0.774,0.482-1.066l0.157-0.431c0-0.565-0.157-1.004-0.472-1.315c-0.314-0.312-0.762-0.469-1.34-0.469
		c-0.967,0-1.727,0.28-2.283,0.841l-0.396-1.025c0.629-0.593,1.549-0.889,2.762-0.889c0.93,0,1.67,0.252,2.222,0.755
		c0.552,0.504,0.827,1.178,0.827,2.021c-0.018,0.063-0.045,0.149-0.082,0.257c-0.037,0.106-0.115,0.315-0.236,0.625
		c-0.12,0.31-0.246,0.604-0.379,0.882s-0.3,0.583-0.502,0.916c-0.203,0.333-0.41,0.61-0.619,0.834l-2.885,3.083h4.737l-0.075,1.053
		H479.809z"/>
</g>
<g enable-background="new    ">
	<path fill="#4E5153" d="M319.107,191.816l-0.157-1.121l3.534-3.924c0.237-0.265,0.466-0.606,0.687-1.025
		c0.222-0.419,0.383-0.774,0.482-1.066l0.157-0.431c0-0.565-0.157-1.004-0.472-1.315c-0.314-0.312-0.762-0.469-1.34-0.469
		c-0.967,0-1.727,0.28-2.283,0.841l-0.396-1.025c0.629-0.593,1.549-0.889,2.762-0.889c0.93,0,1.67,0.252,2.222,0.755
		c0.552,0.504,0.827,1.178,0.827,2.021c-0.018,0.063-0.045,0.149-0.082,0.257c-0.037,0.106-0.115,0.315-0.236,0.625
		c-0.12,0.31-0.246,0.604-0.379,0.882s-0.3,0.583-0.502,0.916c-0.203,0.333-0.41,0.61-0.619,0.834l-2.885,3.083h4.737l-0.075,1.053
		H319.107z"/>
	<path fill="#4E5153" d="M327.748,191.898c-0.282,0-0.505-0.09-0.667-0.27c-0.161-0.181-0.242-0.392-0.242-0.633
		c0-0.246,0.08-0.458,0.239-0.636s0.383-0.267,0.67-0.267s0.511,0.089,0.67,0.267s0.239,0.39,0.239,0.636s-0.08,0.458-0.239,0.636
		S328.035,191.898,327.748,191.898z"/>
	<path fill="#4E5153" d="M330.113,191.816l-0.157-1.121l3.534-3.924c0.237-0.265,0.466-0.606,0.687-1.025
		c0.222-0.419,0.383-0.774,0.482-1.066l0.157-0.431c0-0.565-0.157-1.004-0.472-1.315c-0.314-0.312-0.762-0.469-1.34-0.469
		c-0.967,0-1.727,0.28-2.283,0.841l-0.396-1.025c0.629-0.593,1.549-0.889,2.762-0.889c0.93,0,1.67,0.252,2.222,0.755
		c0.552,0.504,0.827,1.178,0.827,2.021c-0.018,0.063-0.045,0.149-0.082,0.257c-0.037,0.106-0.115,0.315-0.236,0.625
		c-0.12,0.31-0.246,0.604-0.379,0.882s-0.3,0.583-0.502,0.916c-0.203,0.333-0.41,0.61-0.619,0.834l-2.885,3.083h4.737l-0.075,1.053
		H330.113z"/>
	<path fill="#4E5153" d="M349.076,191.816h-1.449l-3.869-4.826l-0.923,0.813v4.013h-1.189v-10.11h1.189v4.963l4.443-4.963h1.483
		l-4.102,4.553L349.076,191.816z"/>
</g>
<g enable-background="new    ">
	<path fill="#4E5153" d="M357.185,187.435c0.392-0.635,0.658-1.268,0.797-1.897c0.141-0.63,0.211-1.176,0.211-1.638
		s-0.033-0.831-0.098-1.106c-0.066-0.274-0.178-0.55-0.336-0.825c-0.16-0.275-0.359-0.516-0.603-0.722
		c-0.532-0.466-1.237-0.699-2.114-0.699c-0.645,0-1.209,0.172-1.693,0.518c-0.486,0.346-0.854,0.789-1.106,1.33
		c-0.495,1.063-0.742,2.156-0.742,3.275c0,1.728,0.519,2.786,1.554,3.179l-0.363,2.478c-0.047,0.327-0.229,0.49-0.547,0.49h-2.142
		c-0.327,0-0.489-0.145-0.489-0.434c0-0.149,0.049-0.269,0.146-0.357s0.23-0.133,0.398-0.133h1.625l0.224-1.554
		c-1.055-0.616-1.582-1.919-1.582-3.906c0-1.12,0.224-2.156,0.672-3.108c0.243-0.522,0.539-0.982,0.89-1.379
		c0.35-0.396,0.795-0.719,1.336-0.966s1.164-0.371,1.869-0.371s1.344,0.121,1.918,0.364c0.574,0.242,1.024,0.569,1.352,0.979
		c0.662,0.831,0.994,1.778,0.994,2.842c0,1.064-0.223,2.105-0.666,3.122c-0.443,1.018-1.08,1.797-1.91,2.339l-0.141,1.638h1.694
		c0.327,0,0.49,0.145,0.49,0.434c0,0.149-0.05,0.269-0.147,0.357s-0.23,0.133-0.398,0.133h-2.311c-0.326,0-0.49-0.116-0.49-0.35
		c0-0.112,0.01-0.252,0.028-0.42l0.196-2.198C356.298,188.54,356.792,188.069,357.185,187.435z"/>
</g>
<g enable-background="new    ">
	<path fill="#4E5153" d="M408.681,2.924h1.087V13.15h-1.21V4.188c-0.461,0.301-1.023,0.559-1.688,0.772V3.819
		c0.073-0.032,0.222-0.096,0.444-0.191s0.391-0.169,0.502-0.219c0.112-0.05,0.252-0.121,0.421-0.212S408.554,3.015,408.681,2.924z"
		/>
	<path fill="#4E5153" d="M411.668,13.15l-0.157-1.121l3.534-3.924c0.237-0.265,0.466-0.606,0.687-1.025
		c0.222-0.419,0.383-0.774,0.482-1.066l0.157-0.431c0-0.565-0.157-1.004-0.472-1.315c-0.314-0.312-0.762-0.469-1.34-0.469
		c-0.967,0-1.727,0.28-2.283,0.841l-0.396-1.025c0.629-0.593,1.549-0.889,2.762-0.889c0.93,0,1.67,0.252,2.222,0.755
		c0.552,0.504,0.827,1.178,0.827,2.021c-0.018,0.063-0.045,0.149-0.082,0.257c-0.037,0.106-0.115,0.315-0.236,0.625
		c-0.12,0.31-0.246,0.604-0.379,0.882s-0.3,0.583-0.502,0.916c-0.203,0.333-0.41,0.61-0.619,0.834l-2.885,3.083h4.737l-0.075,1.053
		H411.668z"/>
	<path fill="#4E5153" d="M425.784,3.04h1.265l-3.671,10.11h-1.23L418.49,3.04h1.265l2.249,6.412c0.292,0.834,0.544,1.62,0.759,2.358
		c0.068-0.342,0.324-1.135,0.766-2.379C424.239,7.395,424.991,5.264,425.784,3.04z"/>
</g>
<g enable-background="new    ">
	<path fill="#4E5153" d="M27.087,2.924l-0.096,1.121h-4.177c-0.045,1.326-0.08,2.399-0.103,3.22
		c0.515-0.328,1.073-0.492,1.675-0.492c0.506,0,0.958,0.081,1.357,0.243c0.399,0.161,0.725,0.384,0.978,0.666
		s0.445,0.611,0.578,0.988c0.132,0.375,0.198,0.782,0.198,1.22c0,1.034-0.332,1.862-0.995,2.485
		c-0.663,0.621-1.564,0.933-2.704,0.933c-1.144,0-2.06-0.312-2.748-0.937l0.444-0.964c0.674,0.528,1.456,0.793,2.345,0.793
		c0.748,0,1.337-0.212,1.771-0.636s0.649-0.978,0.649-1.661c0-0.61-0.182-1.106-0.547-1.487c-0.365-0.38-0.884-0.57-1.559-0.57
		s-1.217,0.226-1.627,0.677l-0.95-0.13l0.267-5.469H27.087z"/>
	<path fill="#4E5153" d="M35.529,3.04h1.265l-3.671,10.11h-1.23L28.235,3.04H29.5l2.249,6.412c0.292,0.834,0.544,1.62,0.759,2.358
		c0.068-0.342,0.324-1.135,0.766-2.379C33.984,7.395,34.736,5.264,35.529,3.04z"/>
</g>
<g enable-background="new    ">
	<path fill="#4E5153" d="M90.208,154.64h-1.21v-10.227h3.295c0.501,0,0.955,0.053,1.36,0.157s0.766,0.265,1.08,0.479
		s0.558,0.501,0.731,0.861s0.26,0.779,0.26,1.258c0,0.396-0.037,0.751-0.109,1.063c-0.073,0.312-0.198,0.604-0.376,0.878
		s-0.41,0.5-0.697,0.681c-0.287,0.18-0.655,0.32-1.104,0.424c-0.449,0.102-0.97,0.153-1.562,0.153c-0.469,0-1.025-0.029-1.668-0.089
		V154.64z M91.992,149.321c0.447,0,0.83-0.043,1.148-0.13s0.564-0.193,0.735-0.321s0.305-0.294,0.403-0.499s0.158-0.394,0.181-0.563
		c0.023-0.172,0.034-0.378,0.034-0.619c0-0.579-0.195-1.005-0.584-1.278s-0.919-0.41-1.589-0.41h-2.112v3.808
		C91.087,149.316,91.682,149.321,91.992,149.321z"/>
	<path fill="#4E5153" d="M98.247,144.413v1.354h-1.148v-1.354H98.247z M98.247,147.141v7.499h-1.148v-7.499H98.247z"/>
	<path fill="#4E5153" d="M100.394,154.64v-7.499h0.957l0.144,1.073c0.296-0.369,0.667-0.666,1.111-0.893
		c0.444-0.225,0.924-0.338,1.439-0.338c0.866,0,1.506,0.242,1.921,0.729c0.415,0.484,0.622,1.231,0.622,2.238v4.689h-1.142
		c0-3.008-0.002-4.619-0.007-4.833c-0.018-0.638-0.147-1.105-0.386-1.401s-0.639-0.444-1.2-0.444c-0.588,0-1.078,0.142-1.47,0.424
		s-0.647,0.649-0.766,1.101c-0.045,0.306-0.068,0.656-0.068,1.053v4.102H100.394z"/>
	<path fill="#4E5153" d="M118.666,154.64l-1.183-3.206h-4.033l-1.224,3.206h-1.203l3.883-10.131h1.21l3.767,10.131H118.666z
		 M117.101,150.442c-0.961-2.794-1.493-4.363-1.593-4.71l-1.661,4.71H117.101z"/>
	<path fill="#4E5153" d="M125.745,154.397c-0.454,0.266-0.983,0.399-1.589,0.399s-1.137-0.134-1.593-0.399
		c-0.456-0.268-0.821-0.642-1.097-1.125s-0.481-1.039-0.615-1.668s-0.202-1.328-0.202-2.099c0-0.634,0.044-1.219,0.133-1.757
		s0.227-1.025,0.414-1.463s0.418-0.809,0.694-1.114s0.605-0.541,0.988-0.708c0.383-0.166,0.809-0.249,1.278-0.249
		c0.583,0,1.1,0.128,1.548,0.383s0.813,0.618,1.094,1.091c0.28,0.471,0.491,1.027,0.632,1.668c0.141,0.64,0.212,1.356,0.212,2.149
		c0,0.771-0.066,1.47-0.198,2.099s-0.335,1.185-0.608,1.668S126.198,154.13,125.745,154.397z M125.352,145.804
		c-0.333-0.366-0.731-0.55-1.196-0.55s-0.864,0.184-1.196,0.55c-0.333,0.367-0.582,0.864-0.749,1.49
		c-0.167,0.627-0.25,1.351-0.25,2.171c0,0.834,0.083,1.571,0.25,2.212c0.167,0.64,0.416,1.146,0.749,1.521s0.731,0.561,1.196,0.561
		s0.864-0.187,1.196-0.561s0.582-0.881,0.749-1.521c0.167-0.641,0.25-1.378,0.25-2.212c0-0.82-0.083-1.544-0.25-2.171
		C125.934,146.668,125.684,146.171,125.352,145.804z"/>
</g>
<g enable-background="new    ">
	<path fill="#4E5153" d="M245.874,211.984h-1.209v-10.227h3.295c0.501,0,0.954,0.053,1.359,0.157
		c0.406,0.104,0.766,0.265,1.08,0.479s0.559,0.501,0.732,0.861c0.173,0.36,0.26,0.779,0.26,1.258c0,0.396-0.037,0.751-0.109,1.063
		c-0.073,0.312-0.199,0.604-0.377,0.878s-0.41,0.5-0.697,0.681c-0.287,0.18-0.654,0.32-1.104,0.424
		c-0.449,0.102-0.97,0.153-1.562,0.153c-0.469,0-1.025-0.029-1.668-0.089V211.984z M247.659,206.666c0.446,0,0.829-0.043,1.148-0.13
		c0.318-0.087,0.563-0.193,0.734-0.321s0.305-0.294,0.403-0.499s0.158-0.394,0.181-0.563c0.023-0.172,0.035-0.378,0.035-0.619
		c0-0.579-0.195-1.005-0.585-1.278s-0.919-0.41-1.589-0.41h-2.113v3.808C246.754,206.661,247.349,206.666,247.659,206.666z"/>
	<path fill="#4E5153" d="M253.913,201.758v1.354h-1.148v-1.354H253.913z M253.913,204.485v7.499h-1.148v-7.499H253.913z"/>
	<path fill="#4E5153" d="M256.06,211.984v-7.499h0.957l0.145,1.073c0.296-0.369,0.666-0.666,1.11-0.893
		c0.444-0.225,0.924-0.338,1.438-0.338c0.866,0,1.507,0.242,1.922,0.729c0.414,0.484,0.621,1.231,0.621,2.238v4.689h-1.141
		c0-3.008-0.003-4.619-0.008-4.833c-0.018-0.638-0.146-1.105-0.386-1.401s-0.64-0.444-1.2-0.444c-0.588,0-1.077,0.142-1.469,0.424
		c-0.393,0.282-0.647,0.649-0.766,1.101c-0.046,0.306-0.068,0.656-0.068,1.053v4.102H256.06z"/>
	<path fill="#4E5153" d="M270.729,212.142c-0.619,0-1.179-0.104-1.678-0.312c-0.499-0.207-0.903-0.524-1.213-0.953
		c-0.311-0.429-0.465-0.937-0.465-1.524c0-0.651,0.187-1.219,0.561-1.702c0.373-0.483,0.895-0.834,1.564-1.053
		c-1.275-0.451-1.914-1.271-1.914-2.461c0-0.807,0.292-1.438,0.875-1.894c0.584-0.456,1.34-0.684,2.27-0.684
		c0.926,0,1.676,0.228,2.25,0.684s0.861,1.087,0.861,1.894c0,0.602-0.155,1.107-0.465,1.518c-0.311,0.41-0.743,0.725-1.299,0.943
		c0.615,0.219,1.098,0.569,1.449,1.053c0.351,0.483,0.525,1.051,0.525,1.702c0,0.875-0.314,1.559-0.946,2.051
		S271.683,212.142,270.729,212.142z M270.729,207.179c-0.651,0.15-1.173,0.402-1.564,0.755c-0.393,0.354-0.588,0.799-0.588,1.337
		c0,0.561,0.202,1.006,0.607,1.337c0.406,0.33,0.921,0.495,1.545,0.495c0.625,0,1.135-0.165,1.528-0.495
		c0.394-0.331,0.591-0.776,0.591-1.337c0-0.542-0.191-0.99-0.574-1.343C271.892,207.574,271.377,207.324,270.729,207.179z
		 M270.729,202.599c-0.537,0-0.994,0.135-1.37,0.403s-0.563,0.638-0.563,1.107c0,1.075,0.645,1.757,1.934,2.044
		c1.271-0.287,1.908-0.969,1.908-2.044c0-0.47-0.186-0.839-0.555-1.107S271.263,202.599,270.729,202.599z"/>
</g>
</svg>
