<?xml version="1.0" encoding="utf-8"?>
<!-- Generator: Adobe Illustrator 16.0.0, SVG Export Plug-In . SVG Version: 6.00 Build 0)  -->
<!DOCTYPE svg PUBLIC "-//W3C//DTD SVG 1.1//EN" "http://www.w3.org/Graphics/SVG/1.1/DTD/svg11.dtd">
<svg version="1.1" id="Layer_1" xmlns="http://www.w3.org/2000/svg" xmlns:xlink="http://www.w3.org/1999/xlink" x="0px" y="0px"
	 width="904px" height="416.503px" viewBox="0 0 904 416.503" enable-background="new 0 0 904 416.503" xml:space="preserve">
<g>
	<circle fill="none" stroke="#303030" stroke-width="2" stroke-miterlimit="10" cx="537.898" cy="199.842" r="9.051"/>
	<path fill="#303030" d="M536.071,194.95c-2.93,0-5.305,2.375-5.305,5.305c0,2.93,2.375,5.305,5.305,5.305s5.305-2.375,5.305-5.305
		C541.375,197.325,539,194.95,536.071,194.95z M537.394,202.569c-1.351,0-2.446-1.096-2.446-2.445c0-1.352,1.097-2.447,2.446-2.447
		s2.446,1.096,2.446,2.447C539.84,201.473,538.743,202.569,537.394,202.569z"/>
	<path fill="none" stroke="#303030" stroke-width="2" stroke-miterlimit="10" d="M531.406,234.238
		c-0.881,0.641-1.784,1.225-2.697,1.781c4.097,6.501,6.491,12.83,6.77,17.395c2.11,0.797,3.949,0.84,5.31-0.035
		c4.188-2.687,2.404-13.058-3.831-23.994C535.275,231.126,533.439,232.763,531.406,234.238z"/>
	<path fill="none" stroke="#303030" stroke-width="2" stroke-miterlimit="10" d="M535.479,253.414
		c-0.277-4.563-2.673-10.894-6.77-17.395c-2.642,1.607-5.406,2.857-8.233,3.768c-3.863,1.242-7.835,1.838-11.758,1.754
		c0.566,0.877,1.155,1.756,1.782,2.631c8.294,11.596,18.602,18.431,23.021,15.267C535.041,258.35,535.648,256.207,535.479,253.414z"
		/>
	<path fill="none" stroke="#303030" stroke-width="2" stroke-miterlimit="10" d="M453.604,224.729
		c0.285,1.435,0.883,2.562,1.857,3.241c2.63,1.838,7.271,0.167,12.312-3.913c-3.896-0.445-7.839-0.537-11.669-1.397
		C455.264,223.417,454.429,224.102,453.604,224.729z"/>
	<path fill="none" stroke="#303030" stroke-width="2" stroke-miterlimit="10" d="M453.44,221.897
		c-0.335-0.114-0.673-0.216-1.006-0.349c-4.146-1.641-7.707-4.012-10.681-6.918c-2.244,6.334-2.29,11.461,0.4,13.34
		c2.479,1.73,6.746,0.339,11.449-3.241c0.824-0.627,1.659-1.312,2.502-2.069C455.209,222.458,454.323,222.196,453.44,221.897z"/>
	<path fill="none" stroke="#303030" stroke-width="2" stroke-miterlimit="10" d="M425.287,163.574
		c-3.11,1.315-5.294,4.396-5.294,7.985c0,4.787,3.88,8.667,8.666,8.667c0.374,0,1.282-0.23,2.503-0.601
		c1.075-7.411,3.944-14.684,8.67-20.875C433.19,160.94,425.53,163.471,425.287,163.574z"/>
	<g>
		<path fill="none" stroke="#303030" stroke-width="2" stroke-miterlimit="10" d="M530.397,214.25
			c-5.459-7.055-8.131-14.929-7.715-21.111c-4.389-0.823-10.739-4.927-16.568-11.103c-8.275-8.769-12.35-18.366-9.095-21.438
			c3.253-3.07,12.601,1.55,20.876,10.318c4.326,4.584,7.487,9.385,9.071,13.371c1.464-1.085,3.195-1.69,5.091-1.885
			c1.732-2.492,5.537-5.189,10.512-7.379c-3.594-5.314-8.611-9.606-15.023-12.146c-6.914-2.737-14.396-1.559-21.428-3.664
			c-7.393-2.213-11.98-7.67-18.361-11.567c-11.777-7.195-27.136-6.201-39.186,2.545c-3.412,2.477-6.312,5.378-8.738,8.559
			c-4.726,6.191-7.595,13.464-8.67,20.875c-1.881,12.979,1.743,26.36,10.592,35.006c2.974,2.906,6.535,5.277,10.681,6.918
			c0.333,0.132,0.671,0.232,1.006,0.348c0.883,0.299,1.771,0.562,2.666,0.764c3.83,0.859,7.772,0.951,11.669,1.396
			c2.046,0.232,4.081,0.559,6.079,1.156c7.396,2.211,11.99,7.668,18.373,11.568c5.022,3.07,10.699,4.637,16.49,4.758
			c3.923,0.084,7.895-0.512,11.758-1.754c2.827-0.908,5.593-2.16,8.232-3.768c0.914-0.557,1.817-1.143,2.698-1.781
			c2.032-1.475,3.868-3.111,5.55-4.854c1.614-1.674,3.053-3.467,4.348-5.336C537.47,221.807,533.666,218.475,530.397,214.25z"/>
		<path fill="none" stroke="#303030" stroke-width="2" stroke-miterlimit="10" d="M548.288,188.642
			c-0.051-0.236-0.115-0.467-0.171-0.701c-0.19,0.046-0.378,0.083-0.567,0.127C547.797,188.259,548.044,188.442,548.288,188.642z"/>
		<path fill="none" stroke="#303030" stroke-width="2" stroke-miterlimit="10" d="M531.147,186.007
			c-0.348-1.076,0.012-2.312,0.91-3.604c-1.896,0.194-3.627,0.8-5.091,1.885c1.445,3.64,1.577,6.602,0.025,8.066
			c-0.963,0.909-2.468,1.129-4.311,0.784c-0.416,6.184,2.256,14.058,7.715,21.111c3.269,4.226,7.072,7.558,10.906,9.797
			c6.396,3.738,12.878,4.438,17.093,1.176c6.74-5.215,5.132-18.582-3.592-29.855c-2.009-2.596-4.22-4.85-6.517-6.725
			c-0.244-0.2-0.491-0.383-0.738-0.574C539.157,189.998,532.196,189.252,531.147,186.007z"/>
		<path fill="none" stroke="#303030" stroke-width="2" stroke-miterlimit="10" d="M568.1,174.06
			c-1.225-3.783-10.488-4.18-20.692-0.88c-1.706,0.552-3.32,1.176-4.838,1.844c-4.975,2.189-8.778,4.887-10.512,7.379
			c-0.898,1.292-1.258,2.528-0.91,3.604c1.049,3.245,8.011,3.99,16.402,2.061c0.189-0.044,0.377-0.081,0.567-0.127
			c1.217-0.296,2.462-0.646,3.722-1.053C562.044,183.589,569.324,177.847,568.1,174.06z"/>
		<path fill="none" stroke="#303030" stroke-width="2" stroke-miterlimit="10" d="M497.02,160.598
			c-3.255,3.071,0.818,12.669,9.095,21.438c5.829,6.176,12.181,10.279,16.568,11.103c1.843,0.345,3.348,0.125,4.311-0.784
			c1.553-1.465,1.42-4.427-0.025-8.066c-1.584-3.986-4.745-8.787-9.071-13.371C509.619,162.148,500.272,157.528,497.02,160.598z"/>
	</g>
</g>
<g>
	<path fill="none" stroke="#303030" stroke-width="2" stroke-miterlimit="10" d="M109.694,337.675
		c0.713-1.16,1.679-2.111,2.81-2.895c-3.679-2.477-9.73-4.596-16.74-5.584c-11.938-1.689-22.125,0.535-22.75,4.965
		c-0.628,4.432,8.545,9.389,20.483,11.076c5.654,0.799,10.901,0.711,14.94-0.062C107.993,342.421,108.365,339.841,109.694,337.675z"
		/>
	<path fill="none" stroke="#303030" stroke-width="2" stroke-miterlimit="10" d="M144.785,316.556
		c-2.483-3.105-11.289-0.197-19.665,6.498c-0.72,0.574-1.399,1.16-2.063,1.75c-3.168,2.812-5.687,5.746-7.288,8.387
		c4.214-1.365,9.754-1.068,15.542,0.875c0.702,0.234,1.405,0.49,2.112,0.775c0.23-0.18,0.463-0.35,0.693-0.533
		C142.493,327.613,147.271,319.666,144.785,316.556z"/>
	<path fill="none" stroke="#303030" stroke-width="2" stroke-miterlimit="10" d="M139.764,338.029
		c-2.092-1.283-4.223-2.336-6.341-3.188c-0.707-0.285-1.41-0.541-2.112-0.775c-5.788-1.943-11.328-2.24-15.542-0.875
		c-1.21,0.393-2.302,0.926-3.266,1.592c-1.131,0.781-2.096,1.732-2.81,2.895c-1.329,2.164-1.7,4.746-1.257,7.5
		c1.048,6.48,6.654,13.918,15.182,19.15c4.564,2.805,9.316,4.574,13.707,5.309c7.288,1.223,13.58-0.42,16.362-4.955
		C158.147,357.419,151.912,345.486,139.764,338.029z M128.737,356.664c-4.675,1.768-9.898-0.588-11.668-5.262
		c-1.271-3.365-0.4-7.008,1.926-9.447c0.905-0.951,2.025-1.727,3.337-2.223c1.439-0.545,2.932-0.695,4.357-0.512
		c3.207,0.416,6.087,2.539,7.312,5.773C135.77,349.669,133.413,354.894,128.737,356.664z"/>
	<path fill="none" stroke="#303030" stroke-width="2" stroke-miterlimit="10" d="M134,344.996c-1.225-3.236-4.104-5.359-7.312-5.773
		c-1.427-0.186-2.918-0.035-4.357,0.512c-1.312,0.494-2.432,1.27-3.337,2.221c-2.326,2.439-3.197,6.084-1.926,9.447
		c1.77,4.674,6.993,7.029,11.668,5.262C133.413,354.894,135.77,349.669,134,344.996z M125.85,354.191
		c-2.74,1.035-5.802-0.346-6.839-3.084c-1.037-2.74,0.344-5.803,3.084-6.84c2.74-1.035,5.802,0.346,6.839,3.084
		C129.971,350.091,128.59,353.154,125.85,354.191z"/>
	<path fill="#303030" d="M128.934,347.351c-1.037-2.738-4.099-4.119-6.839-3.084c-2.74,1.037-4.121,4.1-3.084,6.84
		c1.037,2.738,4.099,4.119,6.839,3.084C128.59,353.154,129.971,350.091,128.934,347.351z M126.028,350.925
		c-1.264,0.479-2.676-0.158-3.152-1.422c-0.479-1.264,0.158-2.676,1.422-3.154c1.263-0.477,2.676,0.16,3.154,1.426
		C127.928,349.037,127.291,350.449,126.028,350.925z"/>
	<path fill="none" stroke="#303030" stroke-width="2" stroke-miterlimit="10" d="M127.786,387.595
		c5.884,4.93,10.107,10.227,11.775,14.482c2.242,0.105,4.004-0.404,5.028-1.648c3.142-3.812-1.645-13.035-10.801-21.488
		c-0.655,1.262-1.356,2.51-2.154,3.725C130.469,384.441,129.172,386.078,127.786,387.595z"/>
	<path fill="none" stroke="#303030" stroke-width="2" stroke-miterlimit="10" d="M139.562,402.078
		c-1.668-4.256-5.893-9.553-11.775-14.48c-2.095,2.295-4.413,4.289-6.903,5.953c-3.431,2.295-7.176,3.955-11.075,4.922
		c0.998,0.836,2.042,1.662,3.131,2.471c11.446,8.498,23.353,11.848,26.592,7.48C140.646,406.917,140.587,404.695,139.562,402.078z"
		/>
	<path fill="none" stroke="#303030" stroke-width="2" stroke-miterlimit="10" d="M31.377,389.837
		c-1.535,10.801,0.192,19.441,4.562,20.547c3.279,0.832,7.271-2.775,10.662-8.951c-0.162-1.109-0.266-2.309-0.309-3.58
		C40.641,396.509,35.602,393.691,31.377,389.837z"/>
	<path fill="none" stroke="#303030" stroke-width="2" stroke-miterlimit="10" d="M48.188,398.257
		c-0.51,1.119-1.04,2.184-1.586,3.176c0.66,4.533,2.292,7.613,4.784,8.244c3.904,0.988,8.816-4.314,12.524-12.75
		c-3.463,0.979-6.939,1.871-10.628,1.814C51.539,398.716,49.842,398.544,48.188,398.257z"/>
	<path fill="none" stroke="#303030" stroke-width="2" stroke-miterlimit="10" d="M46.294,397.853
		c0.043,1.271,0.146,2.471,0.309,3.58c0.546-0.992,1.076-2.057,1.586-3.176C47.548,398.146,46.92,398.001,46.294,397.853z"/>
	<path fill="none" stroke="#303030" stroke-width="2" stroke-miterlimit="10" d="M19.836,342.734L8.169,353.976l0.215,0.17
		c-0.365,0.305-0.708,0.631-1.014,0.982c-2.208,2.555-2.804,6.283-1.216,9.502c2.117,4.295,7.313,6.059,11.606,3.941
		c0.352-0.174,0.673-0.383,0.99-0.598C16.779,359.839,16.97,351.019,19.836,342.734z"/>
	<path fill="none" stroke="#303030" stroke-width="2" stroke-miterlimit="10" d="M123.618,364.328
		c-8.526-5.232-14.134-12.67-15.182-19.15c-4.039,0.773-9.286,0.859-14.94,0.062c-11.938-1.689-21.111-6.646-20.483-11.076
		c0.625-4.43,10.812-6.652,22.75-4.965c7.01,0.99,13.062,3.107,16.74,5.584c0.964-0.666,2.056-1.199,3.266-1.592
		c1.603-2.641,4.12-5.572,7.288-8.387c-5.627-4.564-12.521-7.396-20.285-7.516c-7.436-0.113-14.015,3.637-21.337,4.156
		c-7.697,0.547-13.921-2.936-21.268-4.32c-13.562-2.562-27.573,3.801-35.749,16.246c-1.964,2.988-3.466,6.137-4.582,9.363
		c-2.866,8.285-3.058,17.105-1.084,25.242c2.062,8.518,6.485,16.266,12.625,21.861c4.225,3.854,9.264,6.672,14.917,8.016
		c0.626,0.148,1.254,0.293,1.895,0.404c1.653,0.287,3.352,0.459,5.096,0.484c3.688,0.057,7.166-0.836,10.628-1.814
		c3.515-0.994,7.015-2.074,10.701-2.338c7.7-0.549,13.929,2.93,21.278,4.318c4.673,0.885,9.395,0.686,13.916-0.438
		c3.899-0.967,7.646-2.627,11.075-4.922c2.49-1.664,4.81-3.658,6.903-5.953c1.386-1.52,2.683-3.156,3.85-4.932
		c0.798-1.215,1.499-2.463,2.154-3.725c1.562-3.01,2.746-6.127,3.535-9.305C132.936,368.902,128.184,367.13,123.618,364.328z"/>
</g>
<g>
	<g>
		<path fill="none" stroke="#303030" stroke-width="2" stroke-miterlimit="10" d="M278.299,361.048
			c-1.875,0.641-3.78,1.246-5.716,1.814"/>
		<path fill="none" stroke="#303030" stroke-width="2" stroke-miterlimit="10" stroke-dasharray="11.2756,11.2756" d="
			M261.653,365.615c-10.312,2.17-21.456,3.354-33.574,3.354c-19.331,0-36.176,0-50.773,0"/>
		<path fill="none" stroke="#303030" stroke-width="2" stroke-miterlimit="10" d="M171.664,368.966c-2.046,0-4.044,0-5.996,0"/>
	</g>
</g>
<g>
	<path fill="none" d="M278.299,361.048"/>
</g>
<g>
	<path fill="none" d="M311.318,344.642"/>
</g>
<g>
	<g>
		<path fill="none" stroke="#303030" stroke-width="2" stroke-miterlimit="10" d="M420.295,227.014
			c-1.468,1.346-2.917,2.723-4.354,4.127"/>
		<path fill="none" stroke="#303030" stroke-width="2" stroke-miterlimit="10" stroke-dasharray="11.4555,11.4555" d="
			M407.976,239.371c-28.226,30.616-51.732,70.93-87.142,98.412"/>
		<path fill="none" stroke="#303030" stroke-width="2" stroke-miterlimit="10" d="M316.246,341.218
			c-1.617,1.17-3.261,2.312-4.929,3.424"/>
	</g>
</g>
<g>
	<g>
		<path fill="none" stroke="#303030" stroke-width="2" stroke-miterlimit="10" d="M895.857,368.966c0,0-1.848,0-5.996,0"/>
		<path fill="none" stroke="#303030" stroke-width="2" stroke-miterlimit="10" stroke-dasharray="11.753,11.753" d="
			M878.111,368.966c-19.131,0-55.336,0-116.188,0c-98.189,0-132.353-77.637-179.233-128.875"/>
		<path fill="none" stroke="#303030" stroke-width="2" stroke-miterlimit="10" d="M578.666,235.798
			c-1.392-1.449-2.795-2.875-4.214-4.271"/>
	</g>
</g>
<g>
	<path fill="none" stroke="#303030" stroke-width="2" stroke-miterlimit="10" d="M500.117,415.503h-18.009v-85.842
		c0-4.975,4.031-9.004,9.004-9.004l0,0c4.975,0,9.005,4.029,9.005,9.004V415.503z"/>
	<rect x="489.094" y="344.716" fill="none" stroke="#303030" stroke-width="2" stroke-miterlimit="10" width="3.705" height="21"/>
	<rect x="489.094" y="382.216" fill="none" stroke="#303030" stroke-width="2" stroke-miterlimit="10" width="3.705" height="21"/>
</g>
<g>
	<g>
		
			<rect x="73.111" y="149.583" fill="none" stroke="#303030" stroke-width="2" stroke-miterlimit="10" width="4.211" height="138.67"/>
		
			<rect x="100.902" y="149.583" fill="none" stroke="#303030" stroke-width="2" stroke-miterlimit="10" width="4.209" height="138.67"/>
	</g>
	<g>
		
			<rect x="77.637" y="272.505" fill="none" stroke="#303030" stroke-width="2" stroke-miterlimit="10" width="23.159" height="8.664"/>
		<g>
			
				<line fill="none" stroke="#303030" stroke-width="2" stroke-miterlimit="10" x1="86.396" y1="272.505" x2="84.896" y2="196.169"/>
			
				<line fill="none" stroke="#303030" stroke-width="2" stroke-miterlimit="10" x1="92.038" y1="272.505" x2="93.538" y2="196.169"/>
		</g>
	</g>
	<line fill="none" stroke="#303030" stroke-width="5" stroke-miterlimit="10" x1="84.896" y1="196.169" x2="84.896" y2="99.167"/>
	<line fill="none" stroke="#303030" stroke-width="5" stroke-miterlimit="10" x1="93.538" y1="196.169" x2="93.538" y2="99.167"/>
</g>
<g>
	
		<rect x="258.569" y="22.843" fill="none" stroke="#303030" stroke-width="2" stroke-miterlimit="10" width="71.926" height="106.725"/>
	
		<rect x="283.926" y="141.828" fill="none" stroke="#303030" stroke-width="2" stroke-miterlimit="10" width="21.21" height="135.82"/>
	<path fill="none" stroke="#303030" stroke-width="2" stroke-miterlimit="10" d="M305.136,277.648
		c0,5.857-4.747,10.605-10.604,10.605c-5.856,0-10.604-4.748-10.604-10.605"/>
	
		<rect x="290.625" y="129.306" fill="none" stroke="#303030" stroke-width="2" stroke-miterlimit="10" width="7.812" height="12.521"/>
	
		<rect x="263.184" y="27.674" fill="none" stroke="#303030" stroke-width="2" stroke-miterlimit="10" width="62.696" height="97.062"/>
	<g>
		
			<rect x="283.926" y="8.146" fill="none" stroke="#303030" stroke-width="2" stroke-miterlimit="10" width="21.21" height="14.476"/>
		<rect x="283.926" y="2.565" fill="none" stroke="#303030" stroke-width="2" stroke-miterlimit="10" width="21.21" height="1.86"/>
		<polygon fill="none" stroke="#303030" stroke-width="2" stroke-miterlimit="10" points="305.136,4.425 283.926,4.425 
			278.065,4.425 278.065,8.146 283.926,8.146 305.136,8.146 310.997,8.146 310.997,4.425 		"/>
	</g>
	
		<polyline fill="none" stroke="#303030" stroke-width="2" stroke-linecap="round" stroke-linejoin="round" stroke-miterlimit="10" points="
		307.88,19.98 281.64,19.98 307.88,15.552 281.64,15.552 307.88,11.071 281.64,11.071 	"/>
</g>
<g>
	<line fill="none" stroke="#F2777A" stroke-width="3" stroke-miterlimit="10" x1="304.487" y1="343.58" x2="284.575" y2="363.492"/>
	<line fill="none" stroke="#F2777A" stroke-width="3" stroke-miterlimit="10" x1="284.575" y1="343.58" x2="304.487" y2="363.492"/>
</g>
<g>
	<path fill="#99CC99" d="M479.927,395.128c0,0,0.083,0.363,0.182,0.992c0.049,0.312,0.108,0.695,0.149,1.127
		c0.023,0.215,0.05,0.445,0.076,0.688s-0.127,0.459-0.152,0.715c-0.216,0.988-0.497,2.156-0.735,3.381
		c-0.114,0.613-0.278,1.25-0.36,1.893c-0.098,0.643-0.194,1.293-0.293,1.947c-0.052,0.65-0.102,1.303-0.15,1.943
		s0.007,1.271,0.003,1.883c0.005,0.307,0.01,0.605,0.015,0.9c0.034,0.293,0.068,0.58,0.102,0.857
		c0.063,0.559,0.126,1.088,0.182,1.574c-0.014,0.25,0.156,0.463,0.107,0.699c-0.029,0.234-0.06,0.459-0.085,0.67
		c-0.048,0.422-0.11,0.797-0.159,1.107c-0.102,0.625-0.178,0.996-0.178,0.996s-0.217-0.293-0.562-0.83
		c-0.169-0.268-0.38-0.596-0.597-0.982c-0.111-0.193-0.23-0.4-0.355-0.617c-0.136-0.219-0.096-0.479-0.147-0.736
		c-0.062-0.521-0.127-1.088-0.196-1.686c-0.034-0.301-0.07-0.607-0.105-0.922c-0.007-0.316-0.013-0.643-0.019-0.973
		c0.002-0.658-0.054-1.342-0.002-2.031c0.054-0.688,0.106-1.389,0.161-2.088c0.104-0.688,0.207-1.375,0.309-2.051
		c0.09-0.684,0.255-1.32,0.373-1.955c0.248-1.271,0.523-2.41,0.741-3.406c0.085-0.24,0.037-0.5,0.161-0.711
		c0.125-0.209,0.244-0.408,0.355-0.596c0.218-0.375,0.431-0.697,0.604-0.963C479.699,395.425,479.927,395.128,479.927,395.128z"/>
</g>
<g>
	<path fill="#99CC99" d="M469.932,406.449c0,0,0.239-0.061,0.637-0.123c0.2-0.025,0.438-0.074,0.709-0.076
		c0.146,0.006,0.299,0.014,0.461,0.021c0.166,0.014,0.248,0.186,0.402,0.246c0.28,0.174,0.529,0.396,0.82,0.617
		c0.284,0.225,0.544,0.514,0.832,0.785c0.251,0.307,0.536,0.609,0.764,0.959c0.242,0.342,0.464,0.701,0.65,1.078
		c0.786,1.502,1.092,3.152,1.194,4.348c-0.02,0.152,0.104,0.289,0.019,0.434c-0.07,0.139-0.139,0.271-0.2,0.395
		c-0.121,0.246-0.259,0.453-0.364,0.623c-0.223,0.338-0.374,0.525-0.374,0.525s-0.152-0.189-0.382-0.514
		c-0.111-0.156-0.246-0.348-0.4-0.566c-0.074-0.105-0.155-0.219-0.239-0.336c-0.098-0.115-0.005-0.248-0.05-0.377
		c-0.089-1.053-0.355-2.432-0.979-3.615c-0.148-0.299-0.323-0.582-0.512-0.848c-0.176-0.275-0.402-0.506-0.595-0.748
		c-0.229-0.209-0.426-0.438-0.652-0.613c-0.229-0.168-0.435-0.361-0.639-0.48c-0.086-0.09-0.234-0.062-0.288-0.186
		c-0.057-0.129-0.109-0.25-0.159-0.365c-0.14-0.234-0.26-0.439-0.358-0.607C470.031,406.671,469.932,406.449,469.932,406.449z"/>
</g>
<g>
	<path fill="#99CC99" d="M474.836,416.503c0,0-0.073-0.283-0.158-0.764c-0.04-0.24-0.091-0.531-0.123-0.857
		c-0.021-0.164-0.04-0.338-0.062-0.52c-0.024-0.184,0.15-0.328,0.129-0.492c0.051-0.32,0.104-0.668,0.16-1.037
		c0.026-0.184,0.072-0.369,0.087-0.566c0-0.203,0-0.412,0-0.625c-0.018-0.426,0.048-0.854-0.04-1.311
		c-0.061-0.455-0.104-0.91-0.178-1.377c-0.188-0.959-0.38-1.918-0.557-2.818c-0.197-0.904-0.296-1.811-0.422-2.557
		c-0.016-0.094-0.028-0.188-0.041-0.277c-0.03-0.09-0.034-0.18,0.007-0.271c0.064-0.182,0.127-0.354,0.186-0.514
		c0.111-0.318,0.23-0.594,0.327-0.816c0.195-0.447,0.33-0.695,0.33-0.695s0.169,0.244,0.425,0.656
		c0.126,0.207,0.282,0.453,0.437,0.73c0.079,0.141,0.163,0.285,0.252,0.441c0.106,0.15-0.003,0.332,0.063,0.504
		c0.122,0.709,0.205,1.521,0.399,2.42c0.181,0.912,0.372,1.885,0.563,2.857c0.081,0.504,0.135,1.029,0.199,1.537
		c0.091,0.5,0.032,1.031,0.048,1.525c-0.002,0.25-0.004,0.496-0.005,0.736c-0.019,0.242-0.069,0.484-0.104,0.719
		c-0.079,0.467-0.153,0.908-0.224,1.316c-0.056,0.207-0.026,0.387-0.148,0.527c-0.127,0.137-0.247,0.266-0.36,0.387
		c-0.221,0.244-0.435,0.447-0.61,0.619C475.063,416.32,474.836,416.503,474.836,416.503z"/>
</g>
<g>
	<path fill="#99CC99" d="M508.818,406.216c0,0,0.064,0.232,0.135,0.619c0.033,0.193,0.075,0.428,0.101,0.688
		c0.02,0.127,0.014,0.275,0.02,0.43c0.002,0.154-0.159,0.23-0.205,0.377c-0.292,0.525-0.663,1.086-1.099,1.672
		c-0.219,0.275-0.444,0.562-0.675,0.852c-0.223,0.277-0.454,0.551-0.59,0.775c-0.167,0.236-0.205,0.406-0.249,0.588
		c-0.016,0.189,0.01,0.43,0.063,0.688c0.146,0.533,0.363,1.086,0.593,1.555c0.025,0.133,0.177,0.199,0.144,0.346
		c-0.021,0.143-0.039,0.277-0.049,0.404c-0.021,0.254-0.057,0.486-0.081,0.678c-0.058,0.385-0.106,0.619-0.106,0.619
		s-0.217-0.09-0.564-0.271c-0.174-0.092-0.387-0.203-0.608-0.346c-0.115-0.066-0.234-0.145-0.359-0.229
		c-0.139-0.078-0.1-0.25-0.189-0.365c-0.245-0.512-0.515-1.145-0.722-1.93c-0.091-0.412-0.155-0.873-0.103-1.402
		c0.078-0.523,0.294-1.051,0.548-1.41c0.247-0.395,0.498-0.674,0.723-0.957c0.215-0.271,0.427-0.539,0.631-0.799
		c0.379-0.51,0.714-1.014,0.951-1.443c0.087-0.094,0.054-0.244,0.177-0.307c0.124-0.066,0.247-0.117,0.355-0.191
		c0.216-0.145,0.425-0.258,0.597-0.352C508.598,406.312,508.818,406.216,508.818,406.216z"/>
</g>
<g>
	<path fill="#99CC99" d="M501.368,406.449c0,0,0.242,0,0.637,0.035c0.194,0.02,0.435,0.041,0.688,0.088
		c0.131,0.02,0.27,0.041,0.415,0.064s0.177,0.188,0.301,0.254c0.416,0.344,0.891,0.918,1.397,1.447
		c0.27,0.264,0.476,0.584,0.706,0.896c0.222,0.316,0.472,0.621,0.673,0.963c0.189,0.35,0.382,0.699,0.569,1.045
		c0.199,0.336,0.303,0.721,0.449,1.064c0.149,0.348,0.258,0.693,0.33,1.033c0.075,0.338,0.186,0.65,0.213,0.951
		c-0.012,0.154,0.114,0.283,0.042,0.432c-0.06,0.145-0.115,0.279-0.17,0.406c-0.099,0.25-0.244,0.463-0.345,0.633
		c-0.213,0.34-0.356,0.52-0.356,0.52s-0.159-0.188-0.398-0.486c-0.122-0.148-0.251-0.328-0.414-0.52
		c-0.083-0.094-0.172-0.193-0.265-0.299c-0.106-0.1-0.017-0.23-0.064-0.35c-0.02-0.248-0.117-0.502-0.176-0.777
		c-0.058-0.277-0.146-0.562-0.271-0.85c-0.125-0.283-0.197-0.598-0.37-0.881c-0.157-0.289-0.317-0.582-0.479-0.875
		c-0.168-0.289-0.391-0.551-0.579-0.826c-0.198-0.266-0.374-0.549-0.601-0.764c-0.448-0.455-0.771-0.896-1.204-1.254
		c-0.084-0.113-0.251-0.121-0.295-0.262s-0.085-0.273-0.124-0.398c-0.081-0.246-0.139-0.48-0.185-0.67
		C501.404,406.687,501.368,406.449,501.368,406.449z"/>
</g>
<g>
	<path fill="#99CC99" d="M502.759,416.503c0,0-0.038-0.35-0.062-0.945c-0.011-0.299-0.022-0.658-0.014-1.064
		c0.002-0.203,0.004-0.42,0.007-0.648c-0.005-0.227,0.152-0.396,0.192-0.627c0.136-0.436,0.281-0.906,0.438-1.404
		c0.165-0.492,0.276-1.049,0.427-1.604c0.14-0.561,0.303-1.133,0.406-1.73c0.119-0.596,0.239-1.197,0.359-1.803
		c0.174-1.221,0.39-2.434,0.475-3.588c0.05-0.576,0.127-1.129,0.146-1.66c0.025-0.527,0.051-1.027,0.073-1.49
		c0.043-0.229-0.052-0.453,0.05-0.662c0.077-0.209,0.151-0.408,0.222-0.596c0.134-0.375,0.271-0.707,0.384-0.979
		c0.229-0.547,0.38-0.867,0.38-0.867s0.151,0.311,0.377,0.863c0.111,0.273,0.249,0.611,0.383,1.004
		c0.068,0.195,0.143,0.404,0.221,0.623c0.083,0.223-0.037,0.449-0.016,0.689c-0.023,0.479-0.05,0.998-0.076,1.549
		c-0.021,0.551-0.102,1.127-0.152,1.725c-0.09,1.199-0.312,2.463-0.494,3.73c-0.125,0.629-0.25,1.258-0.373,1.877
		c-0.109,0.621-0.279,1.221-0.424,1.805c-0.157,0.582-0.271,1.146-0.448,1.68c-0.166,0.533-0.323,1.037-0.469,1.502
		c-0.102,0.221-0.072,0.482-0.215,0.662c-0.148,0.174-0.289,0.34-0.421,0.494c-0.259,0.311-0.506,0.576-0.709,0.793
		C503.018,416.263,502.759,416.503,502.759,416.503z"/>
</g>
<g>
	<path fill="#99CC99" d="M484.885,406.449c0,0-0.102,0.225-0.296,0.576c-0.101,0.168-0.221,0.373-0.358,0.607
		c-0.05,0.115-0.104,0.236-0.16,0.365c-0.053,0.123-0.202,0.096-0.288,0.186c-0.204,0.119-0.409,0.312-0.638,0.48
		c-0.229,0.176-0.424,0.404-0.653,0.613c-0.19,0.242-0.419,0.473-0.594,0.748c-0.188,0.266-0.363,0.549-0.512,0.848
		c-0.623,1.186-0.892,2.562-0.979,3.615c-0.044,0.129,0.048,0.262-0.049,0.377c-0.084,0.117-0.165,0.229-0.24,0.336
		c-0.153,0.219-0.289,0.41-0.399,0.566c-0.229,0.322-0.382,0.514-0.382,0.514s-0.151-0.188-0.374-0.525
		c-0.105-0.17-0.243-0.377-0.364-0.623c-0.062-0.123-0.13-0.256-0.2-0.395c-0.087-0.145,0.037-0.279,0.019-0.434
		c0.104-1.193,0.407-2.846,1.193-4.348c0.188-0.377,0.409-0.736,0.651-1.078c0.227-0.35,0.513-0.652,0.764-0.959
		c0.288-0.273,0.547-0.561,0.832-0.785c0.291-0.221,0.54-0.445,0.82-0.617c0.153-0.062,0.235-0.232,0.401-0.246
		c0.162-0.008,0.316-0.016,0.461-0.021c0.271,0.002,0.51,0.051,0.709,0.076C484.646,406.388,484.885,406.449,484.885,406.449z"/>
</g>
</svg>
