<?xml version="1.0" encoding="utf-8"?>
<!-- Generator: Adobe Illustrator 16.0.0, SVG Export Plug-In . SVG Version: 6.00 Build 0)  -->
<!DOCTYPE svg PUBLIC "-//W3C//DTD SVG 1.1//EN" "http://www.w3.org/Graphics/SVG/1.1/DTD/svg11.dtd">
<svg version="1.1" id="Layer_1" xmlns="http://www.w3.org/2000/svg" xmlns:xlink="http://www.w3.org/1999/xlink" x="0px" y="0px"
	 width="904px" height="416.503px" viewBox="0 0 904 416.503" enable-background="new 0 0 904 416.503" xml:space="preserve">
<g>
	<circle fill="none" stroke="#474747" stroke-width="2" stroke-miterlimit="10" cx="537.898" cy="199.842" r="9.051"/>
	<path fill="#474747" d="M536.071,194.95c-2.93,0-5.305,2.375-5.305,5.305s2.375,5.305,5.305,5.305s5.305-2.375,5.305-5.305
		S539.001,194.95,536.071,194.95z M537.394,202.569c-1.351,0-2.446-1.096-2.446-2.445c0-1.352,1.096-2.447,2.446-2.447
		s2.446,1.096,2.446,2.447C539.84,201.473,538.744,202.569,537.394,202.569z"/>
	<path fill="none" stroke="#474747" stroke-width="2" stroke-miterlimit="10" d="M531.407,234.238
		c-0.881,0.64-1.784,1.225-2.698,1.781c4.097,6.501,6.492,12.83,6.77,17.394c2.11,0.797,3.949,0.84,5.31-0.034
		c4.188-2.687,2.404-13.058-3.831-23.995C535.275,231.126,533.439,232.763,531.407,234.238z"/>
	<path fill="none" stroke="#474747" stroke-width="2" stroke-miterlimit="10" d="M535.479,253.413
		c-0.277-4.563-2.673-10.893-6.77-17.394c-2.641,1.607-5.406,2.858-8.233,3.768c-3.863,1.242-7.835,1.837-11.758,1.754
		c0.567,0.877,1.155,1.755,1.782,2.631c8.294,11.595,18.602,18.43,23.022,15.266C535.042,258.35,535.648,256.207,535.479,253.413z"
		/>
	<path fill="none" stroke="#474747" stroke-width="2" stroke-miterlimit="10" d="M453.604,224.729
		c0.285,1.435,0.883,2.561,1.857,3.241c2.63,1.838,7.271,0.167,12.313-3.913c-3.896-0.445-7.839-0.537-11.669-1.397
		C455.264,223.417,454.429,224.102,453.604,224.729z"/>
	<path fill="none" stroke="#474747" stroke-width="2" stroke-miterlimit="10" d="M453.44,221.897
		c-0.335-0.114-0.673-0.216-1.006-0.348c-4.145-1.641-7.707-4.012-10.681-6.918c-2.244,6.333-2.29,11.46,0.401,13.339
		c2.479,1.731,6.746,0.339,11.449-3.241c0.824-0.627,1.659-1.312,2.502-2.069C455.21,222.458,454.323,222.196,453.44,221.897z"/>
	<path fill="none" stroke="#474747" stroke-width="2" stroke-miterlimit="10" d="M425.288,163.574
		c-3.111,1.315-5.294,4.396-5.294,7.985c0,4.787,3.88,8.667,8.666,8.667c0.374,0,1.282-0.23,2.503-0.601
		c1.075-7.411,3.944-14.684,8.67-20.875C433.19,160.94,425.53,163.471,425.288,163.574z"/>
	<g>
		<path fill="none" stroke="#474747" stroke-width="2" stroke-miterlimit="10" d="M530.397,214.25
			c-5.459-7.055-8.131-14.929-7.715-21.112c-4.389-0.823-10.739-4.927-16.568-11.103c-8.276-8.769-12.35-18.366-9.095-21.438
			c3.253-3.07,12.601,1.55,20.876,10.318c4.326,4.584,7.487,9.385,9.071,13.371c1.464-1.085,3.196-1.69,5.091-1.885
			c1.733-2.492,5.537-5.189,10.512-7.379c-3.594-5.314-8.611-9.606-15.024-12.146c-6.914-2.737-14.395-1.559-21.427-3.664
			c-7.393-2.213-11.981-7.67-18.362-11.567c-11.777-7.195-27.135-6.201-39.185,2.545c-3.412,2.477-6.312,5.378-8.738,8.559
			c-4.726,6.191-7.595,13.464-8.67,20.875c-1.881,12.979,1.743,26.36,10.591,35.006c2.974,2.906,6.536,5.277,10.681,6.918
			c0.333,0.132,0.671,0.233,1.006,0.348c0.883,0.299,1.77,0.562,2.666,0.763c3.83,0.86,7.772,0.952,11.669,1.397
			c2.046,0.233,4.081,0.559,6.079,1.156c7.396,2.212,11.99,7.669,18.373,11.569c5.023,3.07,10.699,4.636,16.49,4.758
			c3.923,0.083,7.895-0.512,11.758-1.754c2.827-0.909,5.593-2.16,8.233-3.768c0.914-0.557,1.817-1.142,2.698-1.781
			c2.032-1.475,3.868-3.111,5.55-4.854c1.614-1.673,3.052-3.466,4.347-5.336C537.47,221.807,533.666,218.475,530.397,214.25z"/>
		<path fill="none" stroke="#474747" stroke-width="2" stroke-miterlimit="10" d="M548.289,188.642
			c-0.051-0.236-0.116-0.467-0.171-0.701c-0.191,0.046-0.378,0.083-0.568,0.127C547.797,188.259,548.044,188.442,548.289,188.642z"
			/>
		<path fill="none" stroke="#474747" stroke-width="2" stroke-miterlimit="10" d="M531.147,186.007
			c-0.348-1.076,0.012-2.312,0.91-3.604c-1.895,0.194-3.627,0.8-5.091,1.885c1.446,3.64,1.578,6.602,0.026,8.066
			c-0.963,0.909-2.468,1.129-4.311,0.784c-0.416,6.184,2.256,14.058,7.715,21.112c3.269,4.225,7.072,7.557,10.906,9.797
			c6.397,3.738,12.878,4.437,17.093,1.175c6.74-5.214,5.132-18.582-3.592-29.855c-2.009-2.596-4.22-4.85-6.516-6.725
			c-0.245-0.2-0.492-0.383-0.739-0.574C539.158,189.998,532.196,189.252,531.147,186.007z"/>
		<path fill="none" stroke="#474747" stroke-width="2" stroke-miterlimit="10" d="M568.1,174.06
			c-1.224-3.783-10.488-4.18-20.692-0.88c-1.706,0.552-3.321,1.176-4.838,1.844c-4.975,2.189-8.778,4.887-10.512,7.379
			c-0.898,1.292-1.258,2.528-0.91,3.604c1.049,3.245,8.011,3.99,16.402,2.061c0.19-0.044,0.377-0.081,0.568-0.127
			c1.217-0.296,2.462-0.646,3.721-1.053C562.044,183.589,569.325,177.847,568.1,174.06z"/>
		<path fill="none" stroke="#474747" stroke-width="2" stroke-miterlimit="10" d="M497.02,160.598
			c-3.255,3.071,0.818,12.669,9.095,21.438c5.829,6.176,12.18,10.279,16.568,11.103c1.843,0.345,3.348,0.125,4.311-0.784
			c1.552-1.465,1.42-4.427-0.026-8.066c-1.584-3.986-4.745-8.787-9.071-13.371C509.62,162.148,500.272,157.528,497.02,160.598z"/>
	</g>
</g>
<g>
	<path fill="none" stroke="#474747" stroke-width="2" stroke-miterlimit="10" d="M109.694,337.676
		c0.713-1.161,1.678-2.112,2.809-2.895c-3.679-2.476-9.73-4.595-16.74-5.585c-11.938-1.688-22.125,0.535-22.75,4.965
		c-0.628,4.432,8.545,9.389,20.483,11.076c5.655,0.799,10.902,0.712,14.941-0.062C107.993,342.422,108.365,339.841,109.694,337.676z
		"/>
	<path fill="none" stroke="#474747" stroke-width="2" stroke-miterlimit="10" d="M144.785,316.556
		c-2.483-3.105-11.289-0.198-19.665,6.499c-0.719,0.574-1.399,1.16-2.063,1.749c-3.168,2.813-5.687,5.746-7.288,8.386
		c4.214-1.365,9.754-1.067,15.542,0.875c0.702,0.236,1.405,0.492,2.112,0.776c0.231-0.179,0.463-0.349,0.693-0.533
		C142.493,327.612,147.271,319.665,144.785,316.556z"/>
	<path fill="none" stroke="#474747" stroke-width="2" stroke-miterlimit="10" d="M139.764,338.029
		c-2.092-1.284-4.223-2.337-6.341-3.188c-0.707-0.284-1.41-0.54-2.112-0.776c-5.788-1.942-11.328-2.24-15.542-0.875
		c-1.21,0.393-2.302,0.926-3.266,1.592c-1.131,0.782-2.096,1.733-2.809,2.895c-1.329,2.165-1.701,4.746-1.257,7.5
		c1.048,6.48,6.654,13.918,15.181,19.151c4.565,2.804,9.317,4.574,13.707,5.309c7.289,1.221,13.581-0.421,16.363-4.955
		C158.147,357.419,151.912,345.486,139.764,338.029z M128.737,356.663c-4.675,1.769-9.899-0.588-11.668-5.262
		c-1.272-3.364-0.401-7.007,1.925-9.447c0.906-0.951,2.026-1.726,3.337-2.222c1.44-0.545,2.932-0.696,4.358-0.511
		c3.207,0.415,6.087,2.538,7.311,5.773C135.77,349.669,133.413,354.894,128.737,356.663z"/>
	<path fill="none" stroke="#474747" stroke-width="2" stroke-miterlimit="10" d="M134,344.995c-1.224-3.235-4.104-5.358-7.311-5.773
		c-1.427-0.186-2.918-0.034-4.358,0.511c-1.311,0.496-2.431,1.271-3.337,2.222c-2.326,2.44-3.197,6.083-1.925,9.447
		c1.769,4.674,6.993,7.03,11.668,5.262C133.413,354.894,135.77,349.669,134,344.995z M125.85,354.191
		c-2.74,1.036-5.802-0.345-6.839-3.084c-1.037-2.74,0.344-5.803,3.084-6.839c2.74-1.037,5.802,0.344,6.839,3.084
		S128.59,353.154,125.85,354.191z"/>
	<path fill="#474747" d="M128.934,347.352c-1.037-2.74-4.099-4.121-6.839-3.084c-2.74,1.036-4.121,4.099-3.084,6.839
		c1.037,2.739,4.099,4.12,6.839,3.084C128.59,353.154,129.971,350.092,128.934,347.352z M126.028,350.926
		c-1.264,0.478-2.676-0.159-3.153-1.422c-0.479-1.264,0.158-2.676,1.422-3.154c1.263-0.478,2.676,0.159,3.154,1.424
		C127.928,349.036,127.291,350.448,126.028,350.926z"/>
	<g>
	</g>
	<path fill="none" stroke="#474747" stroke-width="2" stroke-miterlimit="10" d="M127.786,387.596
		c5.884,4.929,10.108,10.225,11.776,14.481c2.242,0.107,4.004-0.404,5.028-1.648c3.142-3.812-1.644-13.035-10.801-21.488
		c-0.655,1.261-1.356,2.509-2.154,3.724C130.469,384.44,129.172,386.077,127.786,387.596z"/>
	<path fill="none" stroke="#474747" stroke-width="2" stroke-miterlimit="10" d="M139.562,402.078
		c-1.668-4.257-5.893-9.553-11.776-14.481c-2.094,2.295-4.413,4.289-6.903,5.954c-3.431,2.294-7.176,3.955-11.075,4.922
		c0.998,0.836,2.042,1.661,3.131,2.469c11.446,8.498,23.352,11.848,26.592,7.481C140.646,406.918,140.587,404.694,139.562,402.078z"
		/>
	<path fill="none" stroke="#474747" stroke-width="2" stroke-miterlimit="10" d="M31.377,389.837
		c-1.535,10.801,0.193,19.442,4.563,20.548c3.279,0.831,7.271-2.776,10.662-8.951c-0.162-1.111-0.266-2.31-0.309-3.581
		C40.641,396.51,35.602,393.69,31.377,389.837z"/>
	<path fill="none" stroke="#474747" stroke-width="2" stroke-miterlimit="10" d="M48.188,398.257c-0.51,1.12-1.04,2.183-1.586,3.177
		c0.66,4.532,2.292,7.612,4.784,8.243c3.904,0.989,8.816-4.315,12.524-12.75c-3.462,0.979-6.939,1.872-10.628,1.815
		C51.539,398.716,49.842,398.545,48.188,398.257z"/>
	<path fill="none" stroke="#474747" stroke-width="2" stroke-miterlimit="10" d="M46.294,397.853
		c0.043,1.271,0.146,2.47,0.309,3.581c0.546-0.994,1.076-2.057,1.586-3.177C47.548,398.146,46.92,398.001,46.294,397.853z"/>
	<path fill="none" stroke="#474747" stroke-width="2" stroke-miterlimit="10" d="M19.836,342.733L8.169,353.976l0.215,0.17
		c-0.365,0.305-0.708,0.63-1.014,0.982c-2.208,2.556-2.803,6.284-1.215,9.503c2.117,4.294,7.313,6.057,11.606,3.94
		c0.352-0.174,0.673-0.383,0.99-0.596C16.779,359.839,16.97,351.02,19.836,342.733z"/>
	<path fill="none" stroke="#474747" stroke-width="2" stroke-miterlimit="10" d="M123.618,364.328
		c-8.526-5.233-14.133-12.671-15.181-19.151c-4.039,0.773-9.286,0.86-14.941,0.062c-11.938-1.688-21.111-6.645-20.483-11.076
		c0.625-4.43,10.812-6.652,22.75-4.965c7.01,0.99,13.062,3.109,16.74,5.585c0.964-0.666,2.056-1.199,3.266-1.592
		c1.602-2.64,4.12-5.572,7.288-8.386c-5.627-4.565-12.521-7.397-20.285-7.516c-7.436-0.113-14.015,3.637-21.337,4.155
		c-7.697,0.547-13.921-2.934-21.268-4.32c-13.562-2.562-27.573,3.802-35.749,16.246c-1.964,2.989-3.466,6.138-4.582,9.363
		c-2.866,8.287-3.057,17.106-1.084,25.243c2.063,8.517,6.486,16.265,12.625,21.861c4.225,3.853,9.264,6.673,14.917,8.016
		c0.626,0.148,1.254,0.293,1.895,0.404c1.653,0.288,3.351,0.459,5.095,0.485c3.688,0.057,7.166-0.837,10.628-1.815
		c3.515-0.993,7.015-2.073,10.702-2.337c7.7-0.549,13.928,2.93,21.278,4.318c4.673,0.885,9.394,0.685,13.916-0.437
		c3.899-0.967,7.645-2.628,11.075-4.922c2.49-1.665,4.81-3.659,6.903-5.954c1.386-1.52,2.683-3.156,3.85-4.932
		c0.798-1.215,1.499-2.463,2.154-3.724c1.562-3.009,2.746-6.127,3.535-9.305C132.936,368.902,128.184,367.131,123.618,364.328z"/>
</g>
<g>
	<g>
		<path fill="none" stroke="#474747" stroke-width="2" stroke-miterlimit="10" d="M278.299,361.048
			c-1.875,0.641-3.78,1.246-5.716,1.815"/>
		<path fill="none" stroke="#474747" stroke-width="2" stroke-miterlimit="10" stroke-dasharray="11.2756,11.2756" d="
			M261.653,365.615c-10.312,2.17-21.456,3.353-33.575,3.353c-19.331,0-36.175,0-50.773,0"/>
		<path fill="none" stroke="#474747" stroke-width="2" stroke-miterlimit="10" d="M171.664,368.967c-2.046,0-4.044,0-5.996,0"/>
	</g>
</g>
<g>
	<path fill="none" d="M278.299,361.048"/>
</g>
<g>
	<path fill="none" d="M311.318,344.643"/>
</g>
<g>
	<g>
		<path fill="none" stroke="#474747" stroke-width="2" stroke-miterlimit="10" d="M420.295,227.014
			c-1.467,1.346-2.917,2.723-4.353,4.127"/>
		<path fill="none" stroke="#474747" stroke-width="2" stroke-miterlimit="10" stroke-dasharray="11.4555,11.4555" d="
			M407.976,239.371c-28.226,30.616-51.733,70.929-87.142,98.411"/>
		<path fill="none" stroke="#474747" stroke-width="2" stroke-miterlimit="10" d="M316.246,341.219
			c-1.617,1.169-3.26,2.311-4.928,3.424"/>
	</g>
</g>
<g>
	<g>
		<path fill="none" stroke="#474747" stroke-width="2" stroke-miterlimit="10" d="M895.857,368.967c0,0-1.848,0-5.996,0"/>
		<path fill="none" stroke="#474747" stroke-width="2" stroke-miterlimit="10" stroke-dasharray="11.753,11.753" d="
			M878.111,368.967c-19.131,0-55.336,0-116.189,0c-98.189,0-132.352-77.638-179.233-128.875"/>
		<path fill="none" stroke="#474747" stroke-width="2" stroke-miterlimit="10" d="M578.667,235.798
			c-1.392-1.449-2.795-2.874-4.214-4.271"/>
	</g>
</g>
<g>
	<path fill="none" stroke="#474747" stroke-width="2" stroke-miterlimit="10" d="M500.118,415.503h-18.009v-85.842
		c0-4.973,4.031-9.004,9.004-9.004l0,0c4.974,0,9.005,4.031,9.005,9.004V415.503z"/>
	<rect x="489.094" y="344.717" fill="none" stroke="#474747" stroke-width="2" stroke-miterlimit="10" width="3.705" height="21"/>
	<rect x="489.094" y="382.217" fill="none" stroke="#474747" stroke-width="2" stroke-miterlimit="10" width="3.705" height="21"/>
</g>
<g>
	<g>
		
			<rect x="73.111" y="149.583" fill="none" stroke="#474747" stroke-width="2" stroke-miterlimit="10" width="4.211" height="138.671"/>
		
			<rect x="100.902" y="149.583" fill="none" stroke="#474747" stroke-width="2" stroke-miterlimit="10" width="4.209" height="138.671"/>
	</g>
	<g>
		
			<rect x="77.637" y="272.505" fill="none" stroke="#474747" stroke-width="2" stroke-miterlimit="10" width="23.159" height="8.664"/>
		<g>
			
				<line fill="none" stroke="#474747" stroke-width="2" stroke-miterlimit="10" x1="86.396" y1="272.505" x2="84.896" y2="196.169"/>
			
				<line fill="none" stroke="#474747" stroke-width="2" stroke-miterlimit="10" x1="92.038" y1="272.505" x2="93.538" y2="196.169"/>
		</g>
	</g>
	<line fill="none" stroke="#474747" stroke-width="5" stroke-miterlimit="10" x1="84.896" y1="196.169" x2="84.896" y2="99.167"/>
	<line fill="none" stroke="#474747" stroke-width="5" stroke-miterlimit="10" x1="93.538" y1="196.169" x2="93.538" y2="99.167"/>
</g>
<g>
	
		<rect x="258.569" y="22.843" fill="none" stroke="#474747" stroke-width="2" stroke-miterlimit="10" width="71.925" height="106.725"/>
	
		<rect x="283.926" y="141.828" fill="none" stroke="#474747" stroke-width="2" stroke-miterlimit="10" width="21.21" height="135.82"/>
	<path fill="none" stroke="#474747" stroke-width="2" stroke-miterlimit="10" d="M305.136,277.648
		c0,5.857-4.747,10.605-10.604,10.605s-10.605-4.748-10.605-10.605"/>
	
		<rect x="290.625" y="129.306" fill="none" stroke="#474747" stroke-width="2" stroke-miterlimit="10" width="7.813" height="12.521"/>
	
		<rect x="263.184" y="27.674" fill="none" stroke="#474747" stroke-width="2" stroke-miterlimit="10" width="62.696" height="97.062"/>
	<g>
		
			<rect x="283.926" y="8.146" fill="none" stroke="#474747" stroke-width="2" stroke-miterlimit="10" width="21.21" height="14.476"/>
		<rect x="283.926" y="2.565" fill="none" stroke="#474747" stroke-width="2" stroke-miterlimit="10" width="21.21" height="1.86"/>
		<polygon fill="none" stroke="#474747" stroke-width="2" stroke-miterlimit="10" points="305.136,4.425 283.926,4.425 
			278.065,4.425 278.065,8.146 283.926,8.146 305.136,8.146 310.997,8.146 310.997,4.425 		"/>
	</g>
	
		<polyline fill="none" stroke="#474747" stroke-width="2" stroke-linecap="round" stroke-linejoin="round" stroke-miterlimit="10" points="
		307.88,19.98 281.64,19.98 307.88,15.552 281.64,15.552 307.88,11.071 281.64,11.071 	"/>
</g>
<g>
	<line fill="none" stroke="#474747" stroke-width="3" stroke-miterlimit="10" x1="304.487" y1="343.58" x2="284.575" y2="363.492"/>
	<line fill="none" stroke="#474747" stroke-width="3" stroke-miterlimit="10" x1="284.575" y1="343.58" x2="304.487" y2="363.492"/>
</g>
<g>
	<path fill="#474747" d="M479.927,395.128c0,0,0.083,0.364,0.182,0.992c0.049,0.313,0.108,0.695,0.149,1.127
		c0.024,0.216,0.05,0.446,0.077,0.689c0.026,0.242-0.127,0.458-0.153,0.713c-0.216,0.99-0.497,2.158-0.735,3.381
		c-0.114,0.614-0.278,1.251-0.361,1.893c-0.097,0.642-0.194,1.294-0.293,1.947c-0.051,0.651-0.101,1.303-0.15,1.944
		s0.007,1.272,0.003,1.883c0.005,0.306,0.01,0.606,0.015,0.9c0.034,0.293,0.068,0.58,0.101,0.858
		c0.064,0.559,0.126,1.087,0.182,1.574c-0.014,0.25,0.156,0.463,0.107,0.699c-0.029,0.235-0.059,0.459-0.085,0.669
		c-0.048,0.422-0.11,0.798-0.159,1.109c-0.101,0.625-0.178,0.995-0.178,0.995s-0.216-0.293-0.561-0.829
		c-0.169-0.269-0.38-0.597-0.597-0.983c-0.111-0.194-0.23-0.4-0.355-0.618c-0.136-0.218-0.096-0.478-0.148-0.735
		c-0.062-0.522-0.127-1.088-0.196-1.687c-0.034-0.3-0.07-0.606-0.105-0.921c-0.007-0.317-0.013-0.642-0.019-0.972
		c0.002-0.658-0.054-1.343-0.002-2.031c0.054-0.688,0.107-1.389,0.161-2.088c0.104-0.688,0.207-1.375,0.309-2.052
		c0.09-0.683,0.255-1.32,0.373-1.955c0.248-1.271,0.523-2.409,0.741-3.405c0.085-0.241,0.037-0.5,0.161-0.711
		c0.125-0.21,0.244-0.409,0.356-0.596c0.217-0.376,0.43-0.698,0.604-0.964C479.7,395.426,479.927,395.128,479.927,395.128z"/>
</g>
<g>
	<path fill="#474747" d="M469.932,406.448c0,0,0.239-0.06,0.637-0.122c0.2-0.026,0.438-0.075,0.709-0.077
		c0.145,0.007,0.299,0.015,0.461,0.022c0.166,0.014,0.248,0.185,0.402,0.246c0.28,0.173,0.529,0.397,0.82,0.618
		c0.285,0.224,0.544,0.512,0.832,0.785c0.251,0.307,0.537,0.608,0.764,0.958c0.242,0.342,0.464,0.701,0.651,1.079
		c0.786,1.502,1.091,3.152,1.194,4.348c-0.02,0.152,0.104,0.289,0.018,0.432c-0.07,0.14-0.138,0.272-0.2,0.396
		c-0.121,0.245-0.259,0.453-0.364,0.623c-0.223,0.338-0.374,0.525-0.374,0.525s-0.152-0.19-0.382-0.514
		c-0.111-0.157-0.246-0.348-0.4-0.567c-0.075-0.105-0.156-0.218-0.24-0.335c-0.097-0.116-0.005-0.249-0.049-0.378
		c-0.089-1.051-0.356-2.43-0.979-3.614c-0.148-0.3-0.323-0.582-0.512-0.848c-0.175-0.275-0.402-0.505-0.594-0.748
		c-0.229-0.209-0.426-0.438-0.653-0.613c-0.228-0.168-0.434-0.361-0.638-0.481c-0.086-0.089-0.235-0.062-0.288-0.185
		c-0.057-0.129-0.11-0.25-0.16-0.365c-0.139-0.235-0.259-0.44-0.358-0.609C470.032,406.672,469.932,406.448,469.932,406.448z"/>
</g>
<g>
	<path fill="#474747" d="M474.836,416.503c0,0-0.073-0.282-0.158-0.763c-0.04-0.24-0.091-0.531-0.123-0.857
		c-0.02-0.164-0.04-0.338-0.062-0.521c-0.025-0.182,0.15-0.327,0.129-0.491c0.05-0.321,0.104-0.669,0.16-1.037
		c0.026-0.185,0.072-0.369,0.087-0.567c0-0.204,0-0.412,0-0.624c-0.018-0.426,0.047-0.855-0.04-1.312
		c-0.061-0.454-0.104-0.909-0.178-1.377c-0.189-0.959-0.38-1.918-0.557-2.817c-0.197-0.906-0.296-1.812-0.422-2.557
		c-0.015-0.095-0.028-0.188-0.041-0.278c-0.03-0.089-0.034-0.179,0.007-0.271c0.065-0.181,0.127-0.353,0.186-0.514
		c0.111-0.319,0.23-0.594,0.327-0.817c0.195-0.447,0.33-0.694,0.33-0.694s0.169,0.244,0.425,0.656
		c0.126,0.206,0.282,0.453,0.436,0.731c0.079,0.139,0.163,0.285,0.252,0.44c0.107,0.151-0.003,0.332,0.064,0.505
		c0.122,0.709,0.205,1.521,0.399,2.42c0.181,0.912,0.372,1.885,0.564,2.857c0.081,0.504,0.134,1.029,0.199,1.536
		c0.091,0.501,0.032,1.032,0.048,1.527c-0.002,0.25-0.004,0.495-0.005,0.736c-0.019,0.242-0.07,0.484-0.104,0.718
		c-0.079,0.468-0.153,0.909-0.223,1.316c-0.056,0.207-0.027,0.388-0.149,0.528c-0.127,0.136-0.247,0.265-0.36,0.386
		c-0.221,0.244-0.435,0.449-0.61,0.619C475.063,416.319,474.836,416.503,474.836,416.503z"/>
</g>
<g>
	<path fill="#474747" d="M508.818,406.217c0,0,0.064,0.232,0.135,0.619c0.033,0.193,0.075,0.428,0.1,0.686
		c0.02,0.128,0.014,0.276,0.02,0.43c0.002,0.155-0.159,0.232-0.205,0.377c-0.292,0.526-0.663,1.086-1.099,1.672
		c-0.219,0.276-0.444,0.562-0.675,0.853c-0.222,0.277-0.454,0.549-0.59,0.774c-0.167,0.237-0.205,0.407-0.249,0.589
		c-0.015,0.188,0.01,0.429,0.064,0.686c0.146,0.534,0.363,1.086,0.593,1.556c0.025,0.132,0.176,0.198,0.143,0.346
		c-0.021,0.142-0.039,0.277-0.049,0.404c-0.02,0.253-0.056,0.485-0.081,0.677c-0.057,0.385-0.106,0.619-0.106,0.619
		s-0.217-0.09-0.565-0.271c-0.173-0.092-0.386-0.203-0.608-0.345c-0.115-0.067-0.234-0.146-0.359-0.23
		c-0.139-0.078-0.1-0.249-0.19-0.364c-0.245-0.513-0.514-1.146-0.722-1.931c-0.09-0.411-0.155-0.873-0.102-1.401
		c0.078-0.523,0.294-1.051,0.548-1.411c0.247-0.395,0.498-0.674,0.722-0.957c0.215-0.271,0.427-0.539,0.631-0.798
		c0.379-0.51,0.714-1.015,0.951-1.444c0.087-0.094,0.054-0.244,0.177-0.307c0.124-0.066,0.247-0.116,0.356-0.191
		c0.216-0.144,0.425-0.258,0.596-0.352C508.598,406.313,508.818,406.217,508.818,406.217z"/>
</g>
<g>
	<path fill="#474747" d="M501.369,406.448c0,0,0.242,0,0.636,0.036c0.195,0.019,0.435,0.041,0.689,0.087
		c0.131,0.021,0.269,0.042,0.415,0.065c0.145,0.024,0.177,0.188,0.301,0.255c0.416,0.342,0.89,0.917,1.397,1.446
		c0.27,0.265,0.476,0.585,0.706,0.896c0.222,0.318,0.472,0.622,0.673,0.964c0.19,0.35,0.382,0.699,0.569,1.044
		c0.2,0.337,0.303,0.721,0.45,1.065c0.149,0.347,0.257,0.694,0.33,1.034c0.075,0.338,0.185,0.65,0.213,0.951
		c-0.012,0.153,0.114,0.282,0.042,0.431c-0.06,0.144-0.116,0.279-0.17,0.407c-0.099,0.25-0.245,0.462-0.345,0.632
		c-0.213,0.34-0.357,0.52-0.357,0.52s-0.159-0.187-0.398-0.486c-0.122-0.149-0.251-0.329-0.414-0.521
		c-0.083-0.093-0.172-0.192-0.265-0.297c-0.106-0.1-0.016-0.231-0.064-0.351c-0.02-0.248-0.117-0.501-0.176-0.777
		c-0.057-0.278-0.145-0.563-0.271-0.849c-0.125-0.283-0.198-0.599-0.371-0.881c-0.157-0.289-0.317-0.582-0.478-0.876
		c-0.168-0.289-0.391-0.551-0.579-0.825c-0.198-0.267-0.374-0.55-0.601-0.765c-0.448-0.454-0.771-0.896-1.204-1.253
		c-0.084-0.113-0.251-0.122-0.295-0.262c-0.044-0.141-0.085-0.274-0.124-0.399c-0.081-0.246-0.138-0.479-0.184-0.669
		C501.404,406.687,501.369,406.448,501.369,406.448z"/>
</g>
<g>
	<path fill="#474747" d="M502.759,416.503c0,0-0.038-0.35-0.061-0.945c-0.011-0.298-0.023-0.659-0.014-1.064
		c0.002-0.204,0.004-0.421,0.007-0.649c-0.005-0.226,0.152-0.397,0.192-0.626c0.136-0.436,0.282-0.907,0.438-1.405
		c0.165-0.493,0.276-1.048,0.427-1.603c0.139-0.561,0.302-1.134,0.406-1.731c0.119-0.595,0.239-1.198,0.359-1.803
		c0.174-1.22,0.39-2.434,0.475-3.588c0.05-0.575,0.127-1.129,0.146-1.659c0.026-0.529,0.051-1.029,0.074-1.491
		c0.043-0.229-0.052-0.454,0.049-0.662c0.078-0.209,0.152-0.408,0.222-0.596c0.134-0.375,0.272-0.706,0.384-0.979
		c0.229-0.547,0.38-0.866,0.38-0.866s0.151,0.31,0.377,0.862c0.111,0.275,0.249,0.613,0.382,1.004
		c0.069,0.195,0.143,0.404,0.221,0.624c0.083,0.222-0.037,0.448-0.016,0.689c-0.023,0.479-0.049,0.999-0.076,1.549
		c-0.021,0.55-0.101,1.126-0.152,1.725c-0.09,1.198-0.312,2.463-0.494,3.73c-0.125,0.629-0.25,1.258-0.373,1.877
		c-0.11,0.622-0.279,1.221-0.424,1.805c-0.157,0.582-0.271,1.147-0.448,1.68c-0.166,0.532-0.323,1.036-0.469,1.501
		c-0.102,0.221-0.072,0.482-0.215,0.663c-0.148,0.174-0.289,0.339-0.421,0.493c-0.259,0.312-0.506,0.576-0.709,0.794
		C503.018,416.264,502.759,416.503,502.759,416.503z"/>
</g>
<g>
	<path fill="#474747" d="M484.885,406.448c0,0-0.101,0.225-0.296,0.576c-0.1,0.169-0.22,0.374-0.358,0.609
		c-0.05,0.115-0.104,0.236-0.16,0.365c-0.053,0.123-0.202,0.096-0.288,0.185c-0.204,0.12-0.41,0.313-0.638,0.481
		c-0.228,0.175-0.424,0.404-0.653,0.613c-0.191,0.243-0.419,0.473-0.594,0.748c-0.188,0.266-0.363,0.548-0.512,0.848
		c-0.623,1.185-0.891,2.563-0.979,3.614c-0.044,0.129,0.048,0.262-0.049,0.378c-0.084,0.117-0.165,0.229-0.24,0.335
		c-0.154,0.22-0.289,0.41-0.4,0.567c-0.229,0.323-0.382,0.514-0.382,0.514s-0.151-0.188-0.374-0.525
		c-0.105-0.17-0.243-0.378-0.364-0.623c-0.062-0.124-0.13-0.257-0.2-0.396c-0.087-0.143,0.037-0.279,0.018-0.432
		c0.104-1.195,0.408-2.846,1.194-4.348c0.188-0.378,0.409-0.737,0.651-1.079c0.227-0.35,0.513-0.651,0.764-0.958
		c0.288-0.273,0.547-0.562,0.832-0.785c0.291-0.221,0.54-0.445,0.82-0.618c0.154-0.062,0.236-0.232,0.402-0.246
		c0.162-0.008,0.316-0.016,0.461-0.022c0.271,0.002,0.509,0.051,0.709,0.077C484.646,406.388,484.885,406.448,484.885,406.448z"/>
</g>
</svg>
