<?xml version="1.0" encoding="utf-8"?>
<!-- Generator: Adobe Illustrator 16.0.0, SVG Export Plug-In . SVG Version: 6.00 Build 0)  -->
<!DOCTYPE svg PUBLIC "-//W3C//DTD SVG 1.1//EN" "http://www.w3.org/Graphics/SVG/1.1/DTD/svg11.dtd">
<svg version="1.1" id="Layer_1" xmlns="http://www.w3.org/2000/svg" xmlns:xlink="http://www.w3.org/1999/xlink" x="0px" y="0px"
	 width="904px" height="416.503px" viewBox="0 0 904 416.503" enable-background="new 0 0 904 416.503" xml:space="preserve">
<g>
	<path fill="#223344" d="M537.898,209.893c-5.543,0-10.052-4.509-10.052-10.051c0-5.542,4.509-10.051,10.052-10.051
		c5.542,0,10.051,4.509,10.051,10.051C547.949,205.384,543.44,209.893,537.898,209.893z M537.898,191.791
		c-4.439,0-8.052,3.611-8.052,8.051s3.612,8.051,8.052,8.051s8.051-3.612,8.051-8.051S542.338,191.791,537.898,191.791z"/>
</g>
<g>
	<path fill="#223344" d="M536.071,194.95c-2.932,0-5.307,2.375-5.307,5.305c0,2.93,2.375,5.305,5.307,5.305
		c2.93,0,5.305-2.375,5.305-5.305C541.375,197.325,539,194.95,536.071,194.95z M537.395,202.569c-1.352,0-2.445-1.096-2.445-2.445
		c0-1.352,1.097-2.447,2.445-2.447c1.35,0,2.445,1.096,2.445,2.447C539.84,201.473,538.743,202.569,537.395,202.569z"/>
</g>
<g>
	<path fill="#223344" d="M538.421,255.023L538.421,255.023c-1.003,0-2.111-0.227-3.296-0.674l-0.605-0.229l-0.039-0.646
		c-0.275-4.518-2.688-10.686-6.617-16.922l-0.541-0.858l0.866-0.528c1.022-0.624,1.858-1.176,2.63-1.736
		c1.894-1.373,3.666-2.924,5.422-4.74l0.927-0.959l0.661,1.159c6.67,11.701,8.143,22.354,3.502,25.331
		C540.501,254.752,539.521,255.023,538.421,255.023z M536.423,252.682c1.588,0.494,2.901,0.449,3.827-0.146
		c3.047-1.954,2.5-10.455-3.518-21.505c-1.532,1.5-3.092,2.82-4.739,4.016c-0.587,0.427-1.207,0.848-1.908,1.294
		C533.695,242.269,535.971,248.136,536.423,252.682z"/>
</g>
<g>
	<path fill="#223344" d="M530.882,261.213C530.882,261.213,530.882,261.213,530.882,261.213c-5.638-0.001-14.155-6.615-21.195-16.46
		c-0.575-0.804-1.167-1.677-1.809-2.67l-1.022-1.583l1.884,0.04c3.814,0.076,7.663-0.494,11.431-1.706
		c2.8-0.901,5.498-2.137,8.02-3.67l0.841-0.512l0.524,0.833c4.107,6.517,6.63,13.029,6.922,17.867
		c0.198,3.259-0.622,5.645-2.372,6.899C533.214,260.89,532.13,261.213,530.882,261.213z M510.573,242.531
		c0.252,0.368,0.497,0.72,0.739,1.059c6.475,9.053,14.704,15.623,19.568,15.624c0.001,0,0.001,0,0.001,0
		c0.822,0,1.515-0.197,2.058-0.587c1.469-1.053,1.648-3.383,1.541-5.152c-0.261-4.313-2.476-10.14-6.105-16.096
		c-2.407,1.383-4.956,2.512-7.592,3.36C517.419,241.821,513.99,242.421,510.573,242.531z"/>
</g>
<g>
	<path fill="#223344" d="M458.039,229.713C458.038,229.713,458.039,229.713,458.039,229.713c-1.214,0-2.274-0.311-3.151-0.924
		c-1.153-0.806-1.915-2.106-2.265-3.865l-0.122-0.613l0.498-0.378c0.857-0.652,1.653-1.312,2.435-2.016l0.384-0.347l0.505,0.113
		c2.558,0.574,5.247,0.804,7.848,1.026c1.24,0.105,2.481,0.212,3.717,0.354l2.369,0.271l-1.854,1.5
		C464.459,228.026,460.875,229.713,458.039,229.713z M454.728,225.124c0.271,0.93,0.71,1.61,1.307,2.027
		c1.797,1.255,5.196,0.341,9.088-2.351c-0.374-0.033-0.748-0.065-1.123-0.098c-2.5-0.213-5.081-0.434-7.61-0.958
		C455.854,224.215,455.297,224.676,454.728,225.124z"/>
</g>
<g>
	<path fill="#223344" d="M444.724,229.71L444.724,229.71c-1.211,0-2.269-0.31-3.144-0.92c-3.009-2.102-3.29-7.385-0.771-14.494
		l0.522-1.475l1.119,1.094c2.975,2.907,6.457,5.162,10.35,6.703c0.216,0.086,0.434,0.157,0.65,0.228l0.312,0.104
		c0.934,0.315,1.771,0.556,2.558,0.733l1.888,0.426l-1.438,1.293c-0.816,0.734-1.68,1.448-2.565,2.122
		C450.609,228.263,447.331,229.71,444.724,229.71z M442.211,216.425c-1.631,5.303-1.458,9.348,0.514,10.725
		c1.965,1.374,5.881,0.126,10.269-3.217c0.343-0.261,0.683-0.528,1.017-0.801c-0.288-0.089-0.585-0.185-0.891-0.288l-0.293-0.098
		c-0.256-0.084-0.512-0.169-0.765-0.27C448.418,221.035,445.11,219.002,442.211,216.425z"/>
</g>
<g>
	<path fill="#223344" d="M428.659,181.226c-5.33,0-9.666-4.336-9.666-9.667c0-3.894,2.318-7.39,5.905-8.906
		c0.092-0.039,0.338-0.144,14.621-4.853l3.069-1.012l-1.961,2.568c-4.454,5.833-7.384,12.891-8.475,20.412l-0.091,0.628
		l-0.607,0.185C429.585,181.149,428.993,181.226,428.659,181.226z M437.258,160.652c-7.12,2.35-11.301,3.738-11.602,3.852
		c-2.825,1.195-4.663,3.967-4.663,7.056c0,4.228,3.439,7.667,7.666,7.667c0.057,0,0.381-0.024,1.61-0.379
		C431.313,172.273,433.708,166.05,437.258,160.652z"/>
</g>
<g>
	<g>
		<path fill="#223344" d="M509.447,242.548C509.446,242.548,509.446,242.548,509.447,242.548c-0.251,0-0.501-0.003-0.75-0.008
			c-6.072-0.127-11.948-1.823-16.99-4.904c-2.293-1.401-4.363-3.002-6.365-4.55c-3.681-2.846-7.157-5.534-11.772-6.914
			c-1.689-0.504-3.51-0.849-5.903-1.119c-1.217-0.139-2.437-0.243-3.656-0.348c-2.669-0.228-5.429-0.464-8.121-1.066
			c-0.88-0.2-1.784-0.46-2.768-0.795l-0.339-0.113c-0.24-0.079-0.481-0.159-0.719-0.255c-4.136-1.637-7.841-4.036-11.007-7.131
			c-8.82-8.616-12.888-22.023-10.883-35.863c1.14-7.855,4.205-15.233,8.865-21.338c2.57-3.37,5.58-6.318,8.946-8.761
			c6.773-4.917,14.57-7.515,22.547-7.515c6.336,0,12.473,1.703,17.747,4.925c2.296,1.402,4.367,3.005,6.37,4.554
			c3.675,2.843,7.146,5.529,11.757,6.908c3.106,0.93,6.407,1.208,9.6,1.476c3.938,0.331,8.01,0.673,11.909,2.217
			c6.359,2.519,11.568,6.73,15.483,12.515l0.672,0.993l-1.098,0.483c-4.766,2.097-8.444,4.661-10.095,7.034l-0.263,0.377
			l-0.456,0.047c-1.782,0.184-3.329,0.753-4.598,1.694l-1.045,0.774l-0.48-1.208c-1.594-4.013-4.826-8.771-8.868-13.054
			c-6.086-6.45-13.227-10.954-17.363-10.954c-0.917,0-1.624,0.228-2.1,0.677c-2.441,2.304,0.71,11.094,9.138,20.024
			c5.435,5.758,11.725,10,16.023,10.807l0.873,0.164l-0.06,0.886c-0.416,6.179,2.391,13.816,7.509,20.43
			c3.087,3.99,6.76,7.291,10.621,9.546l0.934,0.545l-0.615,0.888c-1.382,1.994-2.879,3.832-4.45,5.461
			c-1.8,1.866-3.712,3.539-5.682,4.97c-0.828,0.598-1.731,1.194-2.766,1.825c-2.652,1.617-5.494,2.919-8.447,3.867
			C517.047,241.939,513.232,242.548,509.447,242.548z M470.531,143.868c-7.553,0-14.943,2.466-21.373,7.133
			c-3.208,2.33-6.079,5.141-8.53,8.356c-4.454,5.835-7.385,12.893-8.476,20.412c-1.915,13.209,1.937,25.974,10.301,34.146
			c2.975,2.907,6.457,5.162,10.35,6.703c0.203,0.081,0.403,0.146,0.604,0.213l0.365,0.122c0.91,0.31,1.748,0.551,2.557,0.734
			c2.558,0.573,5.248,0.803,7.851,1.025c1.238,0.105,2.478,0.212,3.712,0.353c2.515,0.284,4.442,0.651,6.25,1.19
			c4.972,1.486,8.76,4.415,12.424,7.248c1.959,1.515,3.984,3.081,6.185,4.425c4.74,2.897,10.27,4.492,15.989,4.611
			c3.823,0.076,7.66-0.494,11.432-1.706c2.803-0.9,5.5-2.135,8.018-3.67c0.988-0.604,1.85-1.172,2.633-1.738
			c1.874-1.36,3.697-2.955,5.416-4.738c1.267-1.313,2.484-2.771,3.63-4.345c-3.737-2.353-7.268-5.611-10.262-9.481
			c-5.178-6.692-8.113-14.443-7.961-20.931c-4.671-1.217-10.802-5.428-16.258-11.208c-8.935-9.468-12.827-19.292-9.056-22.852
			c1.552-1.464,4.187-1.583,7.37-0.449c-3.952-1.601-7.159-4.082-10.276-6.493c-1.96-1.517-3.987-3.084-6.189-4.429
			C482.275,145.47,476.499,143.868,470.531,143.868z M504.556,159.75c4.27,1.751,9.355,5.489,14.066,10.48
			c3.904,4.139,6.992,8.557,8.799,12.571c1.211-0.685,2.579-1.134,4.084-1.34c1.804-2.358,5.221-4.805,9.555-6.849
			c-3.6-4.948-8.265-8.58-13.882-10.805c-3.624-1.435-7.372-1.75-11.341-2.083c-3.294-0.277-6.7-0.563-10.006-1.553
			C505.397,160.042,504.972,159.901,504.556,159.75z"/>
	</g>
	<g>
		<path fill="#223344" d="M549.868,191.231l-2.214-1.816c-0.165-0.135-0.331-0.262-0.498-0.389l-1.886-1.456l3.587-0.836
			l0.297,1.233c0.039,0.154,0.078,0.308,0.111,0.464L549.868,191.231z"/>
	</g>
	<g>
		<path fill="#223344" d="M551.822,228.306c-3.413,0-7.227-1.175-11.028-3.396c-4.077-2.382-7.947-5.856-11.192-10.048
			c-5.408-6.988-8.369-15.134-7.922-21.791l0.076-1.123l1.105,0.207c1.57,0.293,2.764,0.113,3.442-0.528
			c1.155-1.09,1.058-3.63-0.269-6.97l-0.283-0.715l0.617-0.458c1.563-1.159,3.441-1.857,5.585-2.077l2.163-0.222l-1.24,1.787
			c-0.517,0.745-1.071,1.823-0.779,2.726c0.483,1.494,3.185,2.422,7.051,2.422c2.427,0,5.252-0.355,8.172-1.027l0.462-0.106
			l0.583,0.449c0.185,0.141,0.369,0.282,0.552,0.432c2.423,1.978,4.669,4.295,6.674,6.887c4.328,5.592,7.098,11.875,7.798,17.691
			c0.722,6.002-0.835,10.82-4.384,13.566C557.038,227.535,554.621,228.306,551.822,228.306z M523.636,194.271
			c-0.05,5.979,2.721,13.13,7.548,19.366c3.089,3.991,6.761,7.292,10.619,9.546c3.497,2.043,6.961,3.123,10.02,3.123
			c2.346,0,4.351-0.631,5.958-1.875c2.971-2.298,4.257-6.47,3.622-11.745c-0.657-5.463-3.282-11.396-7.394-16.707
			c-1.912-2.472-4.052-4.68-6.358-6.562c-0.114-0.094-0.228-0.183-0.342-0.271c-2.902,0.638-5.715,0.975-8.16,0.975
			c-4.979,0-8.159-1.352-8.953-3.806c-0.258-0.796-0.242-1.647,0.045-2.544c-0.742,0.22-1.431,0.522-2.061,0.905
			c1.392,3.882,1.222,6.779-0.503,8.407C526.714,193.991,525.354,194.398,523.636,194.271z"/>
	</g>
	<g>
		<path fill="#223344" d="M539.151,190.12L539.151,190.12c-4.98,0-8.16-1.352-8.954-3.806c-0.438-1.35-0.088-2.857,1.039-4.482
			c1.86-2.671,5.845-5.486,10.933-7.724c1.617-0.711,3.276-1.344,4.933-1.88c4.559-1.474,9.17-2.286,12.983-2.286
			c4.986,0,8.171,1.353,8.966,3.81c0.73,2.259-0.753,4.99-4.176,7.69c-3.162,2.494-7.683,4.766-12.729,6.397
			c-1.254,0.405-2.529,0.766-3.793,1.073l-0.578,0.129C544.708,189.748,541.727,190.12,539.151,190.12z M560.085,171.942
			c-3.61,0-8.003,0.777-12.368,2.189c-1.592,0.515-3.188,1.123-4.742,1.807c-4.761,2.094-8.441,4.658-10.097,7.035
			c-0.516,0.744-1.07,1.822-0.778,2.725c0.483,1.494,3.186,2.421,7.052,2.421c2.427,0,5.253-0.355,8.175-1.027l0.557-0.125
			c1.214-0.295,2.442-0.643,3.648-1.032c4.826-1.56,9.125-3.714,12.104-6.064c2.641-2.083,3.953-4.141,3.513-5.504
			C566.664,172.872,563.957,171.942,560.085,171.942z"/>
	</g>
	<g>
		<path fill="#223344" d="M524.225,194.293L524.225,194.293c-0.536,0-1.116-0.058-1.726-0.171
			c-4.762-0.895-11.317-5.263-17.11-11.399c-4.083-4.326-7.303-8.996-9.066-13.152c-1.894-4.462-1.89-7.907,0.011-9.7
			c0.859-0.811,2.027-1.222,3.472-1.222c4.79,0,12.179,4.547,18.823,11.583c4.27,4.527,7.562,9.388,9.271,13.688
			c1.692,4.263,1.617,7.431-0.218,9.163C526.83,193.886,525.667,194.293,524.225,194.293z M499.805,160.648
			c-0.917,0-1.623,0.228-2.099,0.677c-1.212,1.144-1.041,3.934,0.457,7.464c1.673,3.942,4.756,8.403,8.681,12.56
			c5.433,5.757,11.723,9.999,16.023,10.807c1.567,0.294,2.764,0.113,3.441-0.528c1.156-1.09,1.058-3.631-0.269-6.97
			c-1.594-4.012-4.826-8.77-8.867-13.054C511.082,165.154,503.939,160.648,499.805,160.648z"/>
	</g>
</g>
<g>
	<path fill="#223344" d="M101.21,346.797L101.21,346.797c-2.537,0-5.179-0.191-7.854-0.569c-5.889-0.833-11.319-2.474-15.289-4.619
		c-4.264-2.306-6.411-5-6.044-7.588c0.556-3.941,6.673-6.39,15.965-6.39c2.553,0,5.216,0.193,7.916,0.575
		c6.934,0.974,13.188,3.067,17.159,5.745l1.213,0.818l-1.203,0.833c-1.076,0.745-1.927,1.618-2.527,2.596
		c-1.167,1.902-1.544,4.196-1.122,6.817l0.154,0.959l-0.954,0.183C106.407,346.583,103.913,346.797,101.21,346.797z M87.989,329.631
		c-7.722,0-13.603,1.964-13.984,4.67c-0.234,1.65,1.641,3.724,5.014,5.548c3.767,2.036,8.958,3.599,14.619,4.398
		c4.911,0.695,9.769,0.728,13.687,0.107c-0.254-2.687,0.264-5.159,1.517-7.202c0.509-0.827,1.153-1.589,1.923-2.276
		c-3.724-2.14-9.251-3.862-15.14-4.689C93.017,329.818,90.448,329.631,87.989,329.631z"/>
</g>
<g>
	<path fill="#223344" d="M133.584,335.985l-0.535-0.216c-0.663-0.268-1.335-0.515-2.054-0.755
		c-5.491-1.844-10.942-2.16-14.917-0.872l-2.557,0.828l1.394-2.298c1.698-2.8,4.284-5.779,7.479-8.616
		c0.814-0.723,1.462-1.272,2.104-1.784c6.143-4.909,12.655-7.96,16.997-7.96c2.296,0,3.482,0.881,4.073,1.619
		c1.482,1.854,1.062,4.934-1.185,8.672c-2.075,3.451-5.499,7.176-9.641,10.486c-0.138,0.109-0.275,0.214-0.412,0.317
		L133.584,335.985z M121.569,331.349c3.179,0,6.563,0.595,10.06,1.769c0.566,0.189,1.105,0.383,1.635,0.586
		c0.077-0.058,0.153-0.117,0.229-0.178c3.96-3.165,7.219-6.7,9.174-9.954c1.732-2.882,2.232-5.271,1.337-6.392
		c-0.574-0.718-1.682-0.868-2.511-0.868c-3.85,0-10.031,2.953-15.749,7.523c-0.613,0.489-1.237,1.018-2.023,1.717
		c-2.219,1.969-4.173,4.064-5.677,6.069C119.16,331.44,120.338,331.349,121.569,331.349z"/>
</g>
<g>
	<path fill="#223344" d="M141.83,371.029C141.829,371.029,141.83,371.029,141.83,371.029c-1.497,0-3.068-0.137-4.67-0.406
		c-4.681-0.783-9.544-2.665-14.064-5.443c-8.517-5.225-14.512-12.828-15.646-19.843c-0.493-3.066-0.012-5.896,1.392-8.183
		c0.749-1.219,1.79-2.293,3.094-3.193c1.043-0.722,2.229-1.3,3.526-1.721c1.825-0.591,3.88-0.891,6.109-0.891
		c3.179,0,6.563,0.595,10.06,1.769c0.757,0.253,1.466,0.514,2.167,0.796c2.254,0.906,4.438,2.005,6.49,3.263
		c6.027,3.7,10.84,8.597,13.553,13.789c2.799,5.358,3.048,10.415,0.699,14.239C152.235,368.96,147.721,371.029,141.83,371.029z
		 M121.569,333.349c-2.019,0-3.867,0.267-5.492,0.793c-1.111,0.36-2.123,0.853-3.006,1.463c-1.074,0.742-1.924,1.615-2.526,2.596
		c-1.166,1.899-1.543,4.193-1.122,6.817c1.044,6.455,6.683,13.527,14.718,18.457c4.303,2.645,8.919,4.434,13.349,5.175
		c1.494,0.252,2.953,0.379,4.339,0.379c5.17,0,9.079-1.729,11.005-4.87c1.966-3.201,1.693-7.558-0.767-12.268
		c-2.547-4.876-7.103-9.496-12.826-13.01c-1.957-1.2-4.04-2.247-6.191-3.112c-0.664-0.268-1.336-0.515-2.055-0.755
		C127.749,333.924,124.49,333.349,121.569,333.349z M125.537,358.251c-4.153,0-7.932-2.61-9.403-6.495
		c-1.356-3.591-0.517-7.708,2.138-10.492c1.051-1.104,2.298-1.935,3.707-2.468c1.542-0.583,3.204-0.777,4.838-0.568
		c3.692,0.479,6.803,2.936,8.119,6.411c1.961,5.185-0.661,10.998-5.845,12.96C127.946,358.032,126.75,358.251,125.537,358.251z
		 M125.53,340.146c-0.973,0-1.93,0.175-2.844,0.521c-1.125,0.426-2.124,1.09-2.966,1.977c-2.128,2.231-2.801,5.53-1.715,8.404
		c1.178,3.111,4.206,5.203,7.532,5.203c0.971,0,1.929-0.177,2.847-0.523c4.153-1.571,6.253-6.229,4.682-10.381
		c-1.054-2.783-3.547-4.752-6.505-5.136C126.22,340.168,125.873,340.146,125.53,340.146z"/>
</g>
<g>
	<path fill="#223344" d="M125.539,358.253C125.538,358.253,125.538,358.253,125.539,358.253c-4.156,0-7.935-2.61-9.406-6.493
		c-1.357-3.591-0.518-7.709,2.138-10.492c1.058-1.112,2.307-1.942,3.71-2.467c1.531-0.587,3.195-0.784,4.836-0.57
		c3.69,0.476,6.802,2.933,8.118,6.41c1.962,5.182-0.66,10.995-5.845,12.961C127.945,358.035,126.75,358.253,125.539,358.253z
		 M120.566,354.526c1.393,1.092,3.136,1.728,4.971,1.728c0,0,0,0,0.001,0c0.97,0,1.927-0.176,2.844-0.521
		c4.153-1.574,6.253-6.232,4.682-10.382c-1.055-2.786-3.547-4.755-6.505-5.136c-1.315-0.172-2.639-0.013-3.872,0.457
		c-1.125,0.421-2.122,1.085-2.97,1.977c-1.938,2.03-2.669,4.946-1.965,7.622c-0.487-2.907,1.129-5.856,3.987-6.938
		c0.718-0.271,1.468-0.408,2.229-0.408c2.606,0,4.977,1.637,5.9,4.073c1.231,3.252-0.414,6.898-3.665,8.13
		C124.324,355.834,122.182,355.567,120.566,354.526z M123.969,344.923c-0.519,0-1.03,0.094-1.521,0.279
		c-2.219,0.84-3.342,3.33-2.502,5.551c0.63,1.663,2.249,2.781,4.029,2.781c0.519,0,1.03-0.094,1.521-0.279
		c2.22-0.84,3.342-3.33,2.502-5.551C127.369,346.042,125.75,344.923,123.969,344.923z"/>
</g>
<g>
	<path fill="#223344" d="M128.934,347.351c-1.037-2.738-4.099-4.119-6.839-3.084c-2.74,1.037-4.121,4.1-3.084,6.84
		c1.037,2.738,4.099,4.119,6.839,3.084C128.59,353.154,129.971,350.091,128.934,347.351z M126.028,350.925
		c-1.264,0.479-2.676-0.158-3.152-1.422c-0.479-1.264,0.158-2.676,1.422-3.154c1.263-0.477,2.676,0.16,3.154,1.426
		C127.928,349.037,127.291,350.449,126.028,350.925z"/>
</g>
<g>
	<path fill="#223344" d="M140.115,403.09L140.115,403.09c-0.196,0-0.396-0.004-0.6-0.014l-0.648-0.03l-0.237-0.604
		c-1.653-4.218-5.839-9.351-11.486-14.081l-0.8-0.67l0.704-0.771c1.409-1.544,2.671-3.16,3.75-4.805
		c0.696-1.06,1.365-2.216,2.103-3.637l0.604-1.162l0.962,0.889c9.942,9.179,14.422,18.578,10.894,22.858
		C144.254,402.409,142.49,403.09,140.115,403.09z M129.213,387.497c5.237,4.53,9.194,9.41,11.021,13.594
		c1.686-0.02,2.891-0.455,3.583-1.297c2.586-3.139-1.681-11.451-9.762-19.228c-0.537,0.978-1.052,1.838-1.585,2.648
		C131.512,384.674,130.419,386.111,129.213,387.497z"/>
</g>
<g>
	<path fill="#223344" d="M134.574,411.343L134.574,411.343c-5.742,0-14.26-3.677-22.23-9.594c-1.089-0.812-2.158-1.657-3.177-2.511
		l-1.509-1.264l1.91-0.474c3.807-0.943,7.427-2.553,10.759-4.782c2.432-1.625,4.693-3.575,6.721-5.796l0.646-0.708l0.734,0.615
		c5.896,4.939,10.293,10.364,12.064,14.882c1.188,3.034,1.134,5.561-0.157,7.307C139.209,410.54,137.217,411.343,134.574,411.343z
		 M111.941,398.917c0.525,0.416,1.059,0.826,1.597,1.228c7.524,5.587,15.782,9.198,21.036,9.198c1.384,0,3.228-0.263,4.155-1.514
		c1.086-1.471,0.546-3.741-0.098-5.388c-1.581-4.034-5.483-8.907-10.765-13.465c-1.963,2.049-4.122,3.864-6.426,5.404
		C118.469,396.369,115.282,397.89,111.941,398.917z"/>
</g>
<g>
	<path fill="#223344" d="M36.898,411.502C36.898,411.502,36.898,411.502,36.898,411.502c-0.41,0-0.815-0.05-1.206-0.148
		c-4.84-1.225-6.973-9.928-5.306-21.657l0.267-1.873l1.397,1.274c4.271,3.896,9.141,6.514,14.473,7.782l0.742,0.177l0.026,0.762
		c0.042,1.228,0.142,2.396,0.299,3.47l0.049,0.332l-0.162,0.294C44.083,408.097,40.325,411.502,36.898,411.502z M32.135,391.82
		c-1.036,9.448,0.591,16.72,4.049,17.595c2.623,0.667,6.202-2.495,9.38-8.174c-0.11-0.825-0.19-1.695-0.239-2.599
		C40.532,397.388,36.105,395.098,32.135,391.82z"/>
</g>
<g>
	<path fill="#223344" d="M52.343,410.795c-0.408,0-0.813-0.05-1.203-0.148c-2.816-0.714-4.78-3.935-5.528-9.069l-0.048-0.333
		l0.162-0.294c0.522-0.949,1.044-1.995,1.552-3.108l0.32-0.702l0.761,0.132c1.66,0.288,3.321,0.446,4.938,0.47l0.319,0.003
		c3.44,0,6.704-0.842,10.022-1.779l2.041-0.577l-0.854,1.941C61.119,405.761,56.453,410.795,52.343,410.795z M47.642,401.616
		c0.642,4.033,2.088,6.61,3.99,7.092c2.966,0.755,7.085-3.376,10.463-10.246c-2.757,0.724-5.526,1.283-8.478,1.283l-0.349-0.003
		c-1.474-0.021-2.981-0.147-4.491-0.376C48.403,400.155,48.023,400.909,47.642,401.616z"/>
</g>
<g>
	<path fill="#223344" d="M46.046,404.52l-0.432-2.941c-0.167-1.14-0.275-2.382-0.319-3.691l-0.044-1.31l1.274,0.303
		c0.606,0.144,1.214,0.284,1.835,0.392l1.276,0.222l-0.537,1.178c-0.525,1.154-1.07,2.245-1.62,3.244L46.046,404.52z"/>
</g>
<g>
	<path fill="#223344" d="M13.933,370.467c-3.711,0-7.036-2.067-8.676-5.395c-1.722-3.491-1.19-7.651,1.357-10.599
		c0.077-0.089,0.157-0.177,0.239-0.264l-0.202-0.16l15.493-14.929l-1.363,3.939c-2.708,7.828-3.074,16.36-1.059,24.674l0.162,0.668
		l-0.566,0.391c-0.313,0.216-0.69,0.465-1.115,0.675C16.858,370.131,15.422,370.467,13.933,370.467z M9.687,353.902l0.282,0.223
		l-0.944,0.789c-0.346,0.289-0.649,0.582-0.9,0.871c-2.018,2.335-2.44,5.634-1.074,8.403c1.301,2.64,3.938,4.279,6.882,4.279
		c1.179,0,2.318-0.267,3.384-0.792c0.102-0.051,0.201-0.104,0.298-0.162c-1.629-7.179-1.562-14.5,0.177-21.422L9.687,353.902z"/>
</g>
<g>
	<path fill="#223344" d="M101.805,400.457c-2.047,0-4.1-0.191-6.099-0.57c-2.641-0.499-5.144-1.264-7.564-2.003
		c-4.459-1.361-8.645-2.636-13.457-2.301c-3.237,0.231-6.425,1.142-9.508,2.021l-0.992,0.282c-3.458,0.978-6.868,1.855-10.566,1.855
		l-0.349-0.003c-1.723-0.025-3.49-0.193-5.252-0.499c-0.675-0.113-1.325-0.268-1.955-0.417c-5.67-1.348-10.838-4.123-15.36-8.25
		c-6.213-5.657-10.802-13.601-12.923-22.364c-2.108-8.688-1.724-17.609,1.111-25.801c1.186-3.428,2.764-6.653,4.691-9.585
		c7.099-10.807,18.536-17.258,30.595-17.258c2.068,0,4.146,0.194,6.175,0.578c2.649,0.498,5.159,1.265,7.587,2.007
		c4.448,1.36,8.623,2.635,13.425,2.299c3.235-0.229,6.419-1.139,9.5-2.018c3.695-1.054,7.515-2.145,11.577-2.145l0.346,0.003
		c7.575,0.116,14.802,2.792,20.9,7.739l0.915,0.742l-0.88,0.782c-3.046,2.706-5.5,5.526-7.097,8.157l-0.193,0.318l-0.354,0.114
		c-1.111,0.36-2.123,0.853-3.006,1.463l-0.561,0.389l-0.566-0.382c-3.668-2.47-9.77-4.497-16.321-5.423
		c-2.604-0.368-5.171-0.555-7.628-0.555c-7.726,0-13.61,1.964-13.992,4.669c-0.234,1.649,1.641,3.723,5.014,5.546
		c3.767,2.037,8.958,3.6,14.619,4.4c5.311,0.748,10.537,0.725,14.612-0.055l1.011-0.193l0.165,1.017
		c1.043,6.454,6.683,13.526,14.718,18.457c4.317,2.65,8.932,4.436,13.347,5.165l1.068,0.176l-0.261,1.052
		c-0.807,3.248-2.024,6.452-3.618,9.524c-0.766,1.479-1.467,2.691-2.206,3.816c-1.139,1.732-2.466,3.434-3.947,5.057
		c-2.131,2.337-4.516,4.393-7.086,6.11c-3.522,2.358-7.354,4.061-11.39,5.062C107.324,400.114,104.55,400.457,101.805,400.457z
		 M76.257,393.527c4.469,0,8.536,1.242,12.469,2.444c2.369,0.724,4.818,1.472,7.351,1.95c4.4,0.834,9.012,0.687,13.489-0.426
		c3.81-0.944,7.43-2.554,10.76-4.782c2.437-1.629,4.698-3.578,6.721-5.796c1.409-1.546,2.672-3.163,3.753-4.807
		c0.7-1.066,1.368-2.223,2.102-3.64c1.354-2.607,2.421-5.312,3.182-8.055c-4.334-0.868-8.802-2.667-12.989-5.236
		c-8.116-4.98-13.942-12.119-15.454-18.85c-4.114,0.652-9.168,0.619-14.285-0.101c-5.89-0.834-11.32-2.475-15.29-4.621
		c-4.264-2.306-6.41-4.999-6.043-7.586c0.556-3.94,6.676-6.389,15.972-6.389c2.551,0,5.211,0.193,7.908,0.574
		c6.621,0.936,12.618,2.885,16.599,5.382c0.799-0.49,1.672-0.902,2.605-1.231c1.533-2.443,3.728-5.013,6.401-7.498
		c-5.547-4.201-12.005-6.469-18.751-6.572l-0.316-0.003c-3.782,0-7.302,1.005-11.028,2.068c-3.178,0.906-6.465,1.844-9.907,2.088
		c-5.148,0.37-9.732-1.028-14.151-2.38c-2.375-0.727-4.831-1.478-7.372-1.955c-1.908-0.36-3.861-0.543-5.805-0.543
		c-11.383,0-22.196,6.114-28.924,16.355c-1.836,2.794-3.341,5.869-4.473,9.142c-2.709,7.828-3.075,16.36-1.057,24.676
		c2.028,8.38,6.406,15.965,12.327,21.357c4.269,3.896,9.139,6.514,14.475,7.782c0.604,0.143,1.21,0.287,1.829,0.391
		c1.665,0.289,3.327,0.447,4.946,0.471l0.319,0.003c3.442,0,6.705-0.842,10.022-1.779l0.987-0.281
		c3.181-0.907,6.471-1.846,9.915-2.092C75.122,393.546,75.693,393.527,76.257,393.527z"/>
</g>
<g>
	<g>
		<path fill="#223344" d="M272.865,363.823l-0.563-1.92c1.896-0.557,3.805-1.162,5.674-1.801l0.646,1.893
			C276.726,362.642,274.789,363.257,272.865,363.823z"/>
	</g>
	<g>
		<path fill="#223344" d="M228.079,369.968l-0.02-2c3.794,0,7.557-0.117,11.204-0.35l0.127,1.996
			C235.701,369.849,231.896,369.968,228.079,369.968z M216.783,369.968h-11.276v-2h11.276V369.968z M194.232,369.968h-11.276v-2
			h11.276V369.968z M250.676,368.509l-0.265-1.982c3.718-0.496,7.431-1.132,11.035-1.891l0.412,1.957
			C258.206,367.363,254.443,368.007,250.676,368.509z"/>
	</g>
	<g>
		<rect x="165.668" y="367.966" fill="#223344" width="5.996" height="2"/>
	</g>
</g>
<g>
	<path fill="none" d="M278.299,361.048"/>
</g>
<g>
	<path fill="none" d="M311.318,344.642"/>
</g>
<g>
	<g>
		<path fill="#223344" d="M416.641,231.856l-1.398-1.43c1.488-1.455,2.961-2.851,4.377-4.149l1.352,1.475
			C419.57,229.036,418.113,230.417,416.641,231.856z"/>
	</g>
	<g>
		<path fill="#223344" d="M325.968,334.945l-1.276-1.539c2.835-2.352,5.712-4.885,8.549-7.529l1.363,1.463
			C331.739,330.01,328.833,332.569,325.968,334.945z M342.818,319.288l-1.434-1.395c2.544-2.615,5.164-5.423,7.788-8.345
			l1.488,1.336C348.019,313.827,345.38,316.654,342.818,319.288z M358.195,302.214l-1.528-1.289
			c2.311-2.739,4.688-5.626,7.268-8.825l1.557,1.256C362.902,296.567,360.516,299.464,358.195,302.214z M372.625,284.376
			l-1.573-1.234c2.243-2.859,4.468-5.719,6.685-8.568l0.357-0.459l1.578,1.229l-0.357,0.459
			C377.096,278.654,374.869,281.515,372.625,284.376z M386.717,266.323l-1.572-1.236c2.639-3.356,4.976-6.289,7.145-8.965
			l1.554,1.26C391.68,260.049,389.349,262.973,386.717,266.323z M401.141,248.595l-1.521-1.299c2.659-3.111,5.152-5.926,7.62-8.604
			l1.471,1.355C406.259,242.708,403.783,245.503,401.141,248.595z"/>
	</g>
	<g>
		<path fill="#223344" d="M311.872,345.474l-1.109-1.664c1.639-1.093,3.287-2.237,4.898-3.402l1.172,1.621
			C315.201,343.208,313.532,344.368,311.872,345.474z"/>
	</g>
</g>
<g>
	<g>
		<rect x="889.861" y="367.966" fill="#223344" width="5.996" height="2"/>
	</g>
	<g>
		<path fill="#223344" d="M878.111,369.966h-11.75v-2h11.75V369.966z M854.609,369.966h-11.751v-2h11.751V369.966z M831.108,369.966
			h-11.751v-2h11.751V369.966z M807.604,369.966h-11.752v-2h11.752V369.966z M784.101,369.966h-11.753v-2h11.753V369.966z
			 M760.59,369.961c-3.982-0.028-7.949-0.188-11.79-0.474l0.148-1.994c3.797,0.282,7.718,0.44,11.655,0.468L760.59,369.961z
			 M737.065,368.19c-3.925-0.583-7.829-1.319-11.606-2.188l0.449-1.949c3.726,0.857,7.578,1.584,11.45,2.159L737.065,368.19z
			 M714.064,362.881c-3.748-1.196-7.481-2.564-11.097-4.067l0.768-1.848c3.563,1.482,7.243,2.831,10.937,4.009L714.064,362.881z
			 M692.255,353.823c-3.449-1.785-6.902-3.756-10.266-5.856l1.061-1.695c3.316,2.071,6.724,4.015,10.125,5.776L692.255,353.823z
			 M672.212,341.332c-3.101-2.276-6.224-4.737-9.282-7.313l1.289-1.529c3.023,2.548,6.111,4.98,9.177,7.23L672.212,341.332z
			 M654.13,326.145c-2.746-2.6-5.559-5.401-8.36-8.327l1.444-1.383c2.779,2.901,5.569,5.68,8.291,8.257L654.13,326.145z
			 M637.786,309.138c-2.492-2.815-5.002-5.741-7.673-8.945l1.535-1.281c2.659,3.189,5.156,6.101,7.636,8.9L637.786,309.138z
			 M622.671,291.061c-2.456-3.071-4.883-6.157-7.294-9.241l1.576-1.232c2.405,3.078,4.828,6.158,7.28,9.226L622.671,291.061z
			 M608.147,272.537c-2.419-3.104-4.832-6.191-7.25-9.243l1.568-1.242c2.42,3.056,4.837,6.146,7.26,9.257L608.147,272.537z
			 M593.527,254.158c-2.67-3.239-5.151-6.163-7.586-8.938l1.504-1.318c2.447,2.79,4.942,5.729,7.625,8.985L593.527,254.158z"/>
	</g>
	<g>
		<path fill="#223344" d="M577.945,236.492c-1.475-1.534-2.847-2.925-4.194-4.252l1.402-1.426c1.362,1.34,2.747,2.744,4.233,4.291
			L577.945,236.492z"/>
	</g>
</g>
<g>
	<path fill="#223344" d="M501.117,416.503h-20.009v-86.842c0-5.517,4.487-10.004,10.004-10.004s10.005,4.487,10.005,10.004V416.503z
		 M483.108,414.503h16.009v-84.842c0-4.413-3.591-8.004-8.005-8.004c-4.413,0-8.004,3.591-8.004,8.004V414.503z"/>
</g>
<g>
	<path fill="#223344" d="M493.799,366.716h-5.705v-23h5.705V366.716z M490.094,364.716h1.705v-19h-1.705V364.716z"/>
</g>
<g>
	<path fill="#223344" d="M493.799,404.216h-5.705v-23h5.705V404.216z M490.094,402.216h1.705v-19h-1.705V402.216z"/>
</g>
<g>
	<g>
		<path fill="#223344" d="M78.322,289.253h-6.211v-140.67h6.211V289.253z M74.111,287.253h2.211v-136.67h-2.211V287.253z"/>
	</g>
	<g>
		<path fill="#223344" d="M106.111,289.253h-6.209v-140.67h6.209V289.253z M101.902,287.253h2.209v-136.67h-2.209V287.253z"/>
	</g>
</g>
<g>
	<g>
		<path fill="#223344" d="M101.796,282.169H76.637v-10.664h25.159V282.169z M78.637,280.169h21.159v-6.664H78.637V280.169z"/>
	</g>
	<g>
		<g>
			
				<rect x="47.47" y="233.337" transform="matrix(0.0196 0.9998 -0.9998 0.0196 318.2553 144.1039)" fill="#223344" width="76.351" height="2"/>
		</g>
		<g>
			
				<rect x="91.788" y="196.162" transform="matrix(0.9998 0.0195 -0.0195 0.9998 4.5937 -1.7672)" fill="#223344" width="2" height="76.351"/>
		</g>
	</g>
</g>
<g>
	<rect x="82.396" y="99.167" fill="#223344" width="5" height="97.002"/>
</g>
<g>
	<rect x="91.038" y="99.167" fill="#223344" width="5" height="97.002"/>
</g>
<g>
	<path fill="#223344" d="M331.495,130.568h-73.926V21.843h73.926V130.568z M259.569,128.568h69.926V23.843h-69.926V128.568z"/>
</g>
<g>
	<path fill="#223344" d="M306.136,278.648h-23.21v-137.82h23.21V278.648z M284.926,276.648h19.21v-133.82h-19.21V276.648z"/>
</g>
<g>
	<path fill="#223344" d="M294.532,289.253c-6.399,0-11.604-5.206-11.604-11.605h2c0,5.297,4.309,9.605,9.604,9.605
		c5.295,0,9.604-4.309,9.604-9.605h2C306.136,284.047,300.931,289.253,294.532,289.253z"/>
</g>
<g>
	<path fill="#223344" d="M299.437,142.827h-9.812v-14.521h9.812V142.827z M291.625,140.827h5.812v-10.521h-5.812V140.827z"/>
</g>
<g>
	<path fill="#223344" d="M326.88,125.736h-64.696V26.674h64.696V125.736z M264.184,123.736h60.696V28.674h-60.696V123.736z"/>
</g>
<g>
	<g>
		<path fill="#223344" d="M306.136,23.622h-23.21V7.146h23.21V23.622z M284.926,21.622h19.21V9.146h-19.21V21.622z"/>
	</g>
	<g>
		<rect x="282.926" y="1.565" fill="#223344" width="23.21" height="3.86"/>
	</g>
	<g>
		<path fill="#223344" d="M311.997,9.146h-34.932V3.425h34.932V9.146z M279.065,7.146h30.932V5.425h-30.932V7.146z"/>
	</g>
</g>
<g>
	<path fill="#223344" d="M307.88,20.98h-26.24c-0.52,0-0.953-0.398-0.997-0.917s0.317-0.983,0.83-1.069l14.471-2.442H281.64
		c-0.52,0-0.953-0.398-0.997-0.916s0.316-0.983,0.828-1.07l14.612-2.495H281.64c-0.552,0-1-0.448-1-1s0.448-1,1-1h26.24
		c0.52,0,0.953,0.398,0.997,0.916s-0.316,0.983-0.828,1.07l-14.612,2.495h14.443c0.52,0,0.953,0.398,0.997,0.917
		s-0.317,0.983-0.83,1.069l-14.471,2.442h14.305c0.552,0,1,0.448,1,1S308.432,20.98,307.88,20.98z"/>
</g>
<g>
	
		<rect x="293.031" y="339.456" transform="matrix(0.7071 0.7071 -0.7071 0.7071 336.2536 -104.7167)" fill="#F2777A" width="3" height="28.16"/>
</g>
<g>
	
		<rect x="280.451" y="352.036" transform="matrix(0.7071 0.7071 -0.7071 0.7071 336.2592 -104.7162)" fill="#F2777A" width="28.16" height="3"/>
</g>
<g>
	<path fill="#223344" d="M479.162,418.887l-1.333-1.795c0,0-0.231-0.312-0.6-0.885l-0.063-0.101c-0.165-0.261-0.36-0.57-0.562-0.926
		l-0.351-0.61c-0.202-0.328-0.229-0.67-0.247-0.896c-0.004-0.047-0.005-0.094-0.015-0.141l-0.313-2.7l-0.024-1.064
		c0.001-0.238-0.006-0.458-0.012-0.681c-0.013-0.463-0.026-0.942,0.013-1.446l0.159-2.088l0.319-2.124
		c0.059-0.448,0.152-0.896,0.246-1.336c0.046-0.219,0.092-0.435,0.132-0.65c0.184-0.937,0.378-1.796,0.556-2.582l0.227-0.977
		c0.002-0.016,0.004-0.052,0.008-0.089c0.021-0.194,0.053-0.487,0.229-0.791l0.357-0.599c0.204-0.352,0.406-0.662,0.577-0.925
		c0.424-0.644,0.668-0.962,0.668-0.962l1.292-1.68l0.477,2.065c0,0,0.089,0.387,0.196,1.057c0.052,0.33,0.112,0.735,0.155,1.19
		l0.075,0.674c0.039,0.356-0.057,0.641-0.119,0.829c-0.013,0.035-0.026,0.07-0.034,0.108l-0.017,0.099l-0.21,0.942
		c-0.169,0.75-0.354,1.569-0.519,2.416c-0.04,0.215-0.088,0.44-0.136,0.669c-0.081,0.381-0.164,0.77-0.214,1.16l-0.297,1.971
		c-0.043,0.577-0.093,1.228-0.14,1.866c-0.029,0.376-0.017,0.745-0.007,1.107c0.007,0.239,0.014,0.476,0.012,0.71l0.015,0.805
		l0.29,2.492l-0.006,0.09c0.072,0.159,0.165,0.463,0.086,0.839l-0.07,0.584c-0.05,0.438-0.112,0.83-0.166,1.15
		c-0.105,0.647-0.185,1.034-0.185,1.034L479.162,418.887z"/>
</g>
<g>
	<path fill="#223344" d="M475.487,417.873l-0.783-0.965c0,0-0.166-0.206-0.418-0.56l-0.637-0.9c-0.247-0.287-0.244-0.652-0.23-0.833
		l-0.003-0.043c-0.06-0.706-0.252-2.064-0.867-3.233c-0.127-0.257-0.271-0.495-0.44-0.73c-0.124-0.191-0.237-0.319-0.347-0.447
		c-0.057-0.066-0.113-0.133-0.167-0.198c-0.08-0.075-0.156-0.151-0.231-0.227c-0.101-0.1-0.196-0.199-0.303-0.282
		c-0.077-0.056-0.171-0.132-0.263-0.206c-0.093-0.074-0.179-0.149-0.267-0.201l-0.034-0.02c-0.322-0.132-0.544-0.344-0.669-0.635
		l-0.132-0.304l-0.328-0.553c-0.237-0.426-0.35-0.679-0.35-0.679l-0.479-1.08l1.146-0.298c0,0,0.272-0.07,0.729-0.142l0.165-0.023
		c0.205-0.03,0.437-0.062,0.691-0.064l0.516,0.022c0.442,0.036,0.709,0.258,0.831,0.365l0.049,0.03
		c0.222,0.138,0.429,0.3,0.644,0.472l0.254,0.198c0.232,0.184,0.438,0.385,0.647,0.594c0.087,0.087,0.175,0.175,0.266,0.261
		l0.29,0.334c0.218,0.255,0.438,0.518,0.626,0.807c0.272,0.384,0.512,0.781,0.71,1.183c0.878,1.676,1.188,3.485,1.293,4.703
		l0.005,0.056c0.048,0.195,0.111,0.576-0.12,0.971l-0.168,0.335c-0.114,0.231-0.243,0.438-0.354,0.615l-0.056,0.088
		c-0.269,0.408-0.439,0.621-0.439,0.621L475.487,417.873z"/>
</g>
<g>
	<path fill="#223344" d="M474.262,418.25l-0.394-1.497c0,0-0.082-0.311-0.175-0.84c-0.054-0.317-0.102-0.609-0.134-0.933
		l-0.06-0.501c-0.044-0.338,0.062-0.606,0.134-0.761l0.159-1.035c0.01-0.071,0.025-0.16,0.042-0.25
		c0.015-0.08,0.03-0.161,0.037-0.246l-0.003-0.546c-0.006-0.13-0.002-0.302,0.002-0.476c0.007-0.245,0.013-0.456-0.024-0.646
		c-0.034-0.244-0.058-0.435-0.08-0.627c-0.031-0.259-0.062-0.52-0.104-0.783l-0.551-2.779c-0.132-0.603-0.223-1.225-0.307-1.798
		c-0.041-0.276-0.079-0.54-0.121-0.787l-0.035-0.237c-0.094-0.38-0.014-0.688,0.074-0.886c0.037-0.114,0.103-0.293,0.165-0.459
		c0.113-0.324,0.24-0.625,0.349-0.868c0.213-0.493,0.366-0.771,0.366-0.771l0.776-1.406l0.921,1.315c0,0,0.182,0.261,0.455,0.7
		l0.089,0.145c0.113,0.186,0.242,0.395,0.371,0.625l0.248,0.436c0.199,0.273,0.188,0.626,0.176,0.803l0.004,0.025
		c0.045,0.263,0.085,0.538,0.127,0.827c0.07,0.48,0.145,1,0.263,1.554l0.567,2.873c0.065,0.406,0.111,0.788,0.157,1.168l0.053,0.438
		c0.069,0.374,0.062,0.787,0.056,1.151c-0.003,0.155-0.006,0.31-0.001,0.46l-0.004,0.775c-0.021,0.275-0.052,0.471-0.083,0.663
		l-0.292,1.706c-0.024,0.185-0.07,0.527-0.347,0.845l-0.377,0.408c-0.19,0.208-0.376,0.392-0.539,0.551l-0.104,0.103
		c-0.401,0.388-0.653,0.592-0.653,0.592L474.262,418.25z M474.682,403.563c0.034,0.216,0.068,0.443,0.103,0.68
		c0.062,0.428,0.129,0.884,0.217,1.345c-0.086-0.456-0.149-0.894-0.21-1.306c-0.035-0.248-0.069-0.486-0.107-0.713
		C474.683,403.567,474.682,403.565,474.682,403.563z"/>
</g>
<g>
	<path fill="#223344" d="M507.562,417.888l-1.122-0.456c0,0-0.248-0.102-0.643-0.307l-0.089-0.047
		c-0.182-0.098-0.391-0.211-0.607-0.353c-0.075-0.04-0.218-0.134-0.366-0.234c-0.349-0.192-0.474-0.562-0.521-0.733l-0.016-0.033
		c-0.241-0.507-0.549-1.205-0.785-2.104c-0.096-0.432-0.202-1.036-0.131-1.757c0.104-0.7,0.373-1.388,0.727-1.888
		c0.192-0.311,0.411-0.578,0.604-0.815l0.779-0.981c0.347-0.466,0.65-0.926,0.862-1.309l0.006-0.012
		c0.062-0.18,0.205-0.5,0.582-0.697l0.131-0.066c0.047-0.022,0.093-0.042,0.134-0.069c0.234-0.159,0.467-0.287,0.661-0.393
		c0.393-0.225,0.652-0.335,0.652-0.335l1.057-0.452l0.307,1.109c0,0,0.07,0.261,0.152,0.695c0.045,0.264,0.086,0.507,0.112,0.773
		c0.014,0.066,0.021,0.218,0.023,0.377l0.002,0.112c0.006,0.442-0.202,0.729-0.307,0.859l-0.023,0.041
		c-0.307,0.553-0.702,1.153-1.173,1.785l-0.799,1.006c-0.16,0.197-0.318,0.388-0.416,0.546c-0.066,0.098-0.085,0.131-0.104,0.204
		c0.001,0.062,0.011,0.174,0.047,0.348c0.107,0.385,0.299,0.886,0.51,1.314l0.026,0.054c0.207,0.311,0.271,0.628,0.196,0.955
		c-0.003,0.044-0.019,0.158-0.028,0.268c-0.017,0.206-0.043,0.403-0.066,0.577l-0.019,0.144c-0.065,0.438-0.116,0.689-0.116,0.689
		L507.562,417.888z"/>
</g>
<g>
	<path fill="#223344" d="M506.944,417.859l-0.794-0.937c0,0-0.165-0.197-0.412-0.506l-0.177-0.224
		c-0.067-0.086-0.14-0.18-0.221-0.276l-0.259-0.291c-0.188-0.172-0.305-0.475-0.296-0.844l-0.006-0.073
		c-0.009-0.101-0.043-0.202-0.072-0.309c-0.03-0.11-0.061-0.224-0.086-0.34c-0.049-0.232-0.119-0.453-0.212-0.668
		c-0.052-0.117-0.099-0.246-0.146-0.377c-0.055-0.153-0.103-0.286-0.159-0.38l-0.501-0.911c-0.074-0.128-0.179-0.264-0.28-0.401
		c-0.086-0.115-0.171-0.23-0.251-0.349l-0.136-0.187c-0.116-0.163-0.226-0.317-0.323-0.409c-0.212-0.213-0.376-0.397-0.534-0.575
		c-0.222-0.25-0.414-0.466-0.623-0.64l-0.038-0.03c-0.161-0.098-0.451-0.305-0.575-0.706l-0.122-0.394
		c-0.086-0.26-0.151-0.521-0.202-0.732c-0.1-0.437-0.139-0.702-0.139-0.702l-0.171-1.145l1.159-0.006
		c0.001-0.001,0.278,0,0.726,0.039c0.275,0.027,0.521,0.053,0.781,0.101l0.393,0.061c0.426,0.069,0.665,0.331,0.774,0.467
		l0.004,0.004c0.338,0.278,0.671,0.645,1.023,1.031c0.149,0.164,0.303,0.332,0.459,0.496c0.253,0.245,0.467,0.545,0.655,0.81
		l0.327,0.449c0.188,0.252,0.377,0.509,0.539,0.788l0.587,1.079c0.153,0.257,0.264,0.556,0.361,0.819
		c0.04,0.106,0.079,0.213,0.122,0.314c0.18,0.426,0.306,0.822,0.391,1.221c0.021,0.094,0.047,0.194,0.073,0.292
		c0.071,0.269,0.134,0.526,0.157,0.776v0.005c0.058,0.19,0.142,0.552-0.055,0.955l-0.151,0.364
		c-0.093,0.234-0.229,0.464-0.349,0.658l-0.057,0.092c-0.26,0.414-0.425,0.624-0.425,0.624L506.944,417.859z M504.804,409.96
		c0.045,0.062,0.085,0.116,0.125,0.17c0.137,0.185,0.273,0.37,0.391,0.565l-0.015-0.026c-0.107-0.183-0.254-0.376-0.397-0.568
		L504.804,409.96z"/>
</g>
<g>
	<path fill="#223344" d="M501.983,418.583l-0.219-1.972c0,0-0.041-0.375-0.066-1.015c-0.013-0.314-0.023-0.692-0.017-1.12
		l0.008-0.641c-0.009-0.319,0.11-0.588,0.183-0.748l0.141-0.444l0.354-1.129c0.099-0.294,0.171-0.597,0.247-0.906
		c0.054-0.219,0.107-0.441,0.169-0.662l0.097-0.383c0.105-0.407,0.214-0.823,0.288-1.253l0.499-2.753
		c0.135-0.891,0.263-1.731,0.323-2.541c0.019-0.217,0.04-0.419,0.061-0.619c0.035-0.343,0.071-0.677,0.083-1.002l0.09-1.64
		c-0.021-0.216-0.042-0.554,0.133-0.913l0.184-0.508c0.14-0.386,0.282-0.734,0.401-1.019c0.238-0.571,0.397-0.906,0.397-0.906
		l0.896-1.892l0.91,1.885c0,0,0.159,0.329,0.4,0.916c0.118,0.289,0.264,0.646,0.405,1.063l0.216,0.61
		c0.135,0.361,0.083,0.691,0.051,0.888l0.007,0.069l-0.017,0.113l-0.076,1.548c-0.014,0.365-0.054,0.752-0.095,1.147
		c-0.021,0.202-0.043,0.408-0.061,0.616c-0.068,0.923-0.216,1.895-0.357,2.835l-0.277,1.644l-0.246,1.237
		c-0.085,0.486-0.212,0.982-0.337,1.467l-0.1,0.388c-0.056,0.208-0.103,0.399-0.148,0.589c-0.098,0.397-0.194,0.785-0.317,1.16
		l-0.513,1.61c-0.044,0.252-0.104,0.57-0.344,0.868l-0.439,0.517c-0.266,0.318-0.525,0.599-0.74,0.827
		c-0.439,0.464-0.716,0.719-0.716,0.719L501.983,418.583z M503.851,413.467c-0.003,0.015-0.007,0.03-0.011,0.045l0.446-1.427
		c0.112-0.343,0.195-0.682,0.28-1.028c0.05-0.202,0.1-0.406,0.155-0.612l0.099-0.387c0.112-0.435,0.228-0.88,0.309-1.336
		l0.511-2.811c0.143-0.945,0.277-1.837,0.342-2.696c0.02-0.23,0.042-0.448,0.064-0.664c0.037-0.35,0.073-0.691,0.086-1.024
		l0.074-1.508c-0.001-0.003-0.001-0.007-0.001-0.01c-0.001,0.011-0.002,0.021-0.004,0.032l-0.07,1.438
		c-0.013,0.357-0.052,0.736-0.092,1.127c-0.02,0.188-0.04,0.378-0.057,0.571c-0.064,0.874-0.204,1.793-0.34,2.682l-0.303,1.774
		l-0.206,1.042c-0.08,0.461-0.199,0.929-0.317,1.388l-0.1,0.392c-0.062,0.226-0.112,0.429-0.161,0.629
		c-0.089,0.366-0.178,0.724-0.288,1.053L503.851,413.467z"/>
</g>
<g>
	<path fill="#223344" d="M479.347,417.886l-0.791-0.981c0,0-0.173-0.215-0.427-0.597l-0.09-0.145
		c-0.106-0.17-0.228-0.366-0.338-0.59l-0.197-0.394c-0.216-0.353-0.13-0.753-0.085-0.923l0.004-0.045
		c0.107-1.224,0.421-3.037,1.304-4.724c0.192-0.388,0.438-0.795,0.719-1.192c0.167-0.256,0.386-0.517,0.603-0.77l0.547-0.588
		c0.214-0.214,0.424-0.419,0.646-0.594l0.271-0.213c0.213-0.17,0.418-0.331,0.637-0.468l0.06-0.037
		c0.145-0.123,0.395-0.315,0.766-0.354l0.54-0.025c0.287,0.002,0.52,0.034,0.725,0.064l0.137,0.02
		c0.485,0.078,0.756,0.148,0.756,0.148l1.148,0.296l-0.483,1.085c0,0-0.113,0.253-0.332,0.647l-0.471,0.88
		c-0.134,0.3-0.356,0.51-0.669,0.638l-0.036,0.021c-0.086,0.051-0.17,0.124-0.261,0.197c-0.095,0.076-0.192,0.154-0.294,0.229
		c-0.088,0.067-0.185,0.169-0.285,0.271c-0.072,0.072-0.146,0.146-0.222,0.218c-0.053,0.064-0.108,0.129-0.163,0.193
		c-0.11,0.129-0.227,0.26-0.319,0.407c-0.199,0.281-0.346,0.523-0.465,0.761c-0.628,1.195-0.817,2.547-0.875,3.248l-0.004,0.045
		c0.013,0.193,0.006,0.557-0.276,0.893l-0.187,0.267c-0.157,0.225-0.296,0.42-0.409,0.576c-0.239,0.338-0.405,0.548-0.405,0.548
		L479.347,417.886z M481.424,408.996c-0.114,0.136-0.227,0.275-0.325,0.426c-0.149,0.212-0.279,0.414-0.394,0.61
		c0.113-0.194,0.241-0.392,0.379-0.586C481.173,409.304,481.295,409.15,481.424,408.996z M482.475,407.918l-0.011,0.009
		c-0.106,0.084-0.215,0.187-0.325,0.296C482.249,408.116,482.359,408.012,482.475,407.918z M483.163,407.39
		c-0.138,0.09-0.267,0.196-0.403,0.305l-0.218,0.171c0.093-0.068,0.163-0.125,0.231-0.181c0.14-0.112,0.276-0.219,0.411-0.307
		C483.178,407.382,483.17,407.386,483.163,407.39z"/>
</g>
</svg>
