<?xml version="1.0" encoding="utf-8"?>
<!-- Generator: Adobe Illustrator 16.0.0, SVG Export Plug-In . SVG Version: 6.00 Build 0)  -->
<!DOCTYPE svg PUBLIC "-//W3C//DTD SVG 1.1//EN" "http://www.w3.org/Graphics/SVG/1.1/DTD/svg11.dtd">
<svg version="1.1" id="Layer_1" xmlns="http://www.w3.org/2000/svg" xmlns:xlink="http://www.w3.org/1999/xlink" x="0px" y="0px"
	 width="1469.317px" height="987.098px" viewBox="0 0 1469.317 987.098" enable-background="new 0 0 1469.317 987.098"
	 xml:space="preserve">
<g enable-background="new    ">
	<path fill="#223344" d="M82.297,693.715c-28.209,0-53.489-6.491-75.842-19.479l10.538-34.329
		c10.004,5.536,20.889,10.007,32.652,13.412c11.76,3.408,23.231,5.109,34.408,5.109c13.731,0,24.11-2.953,31.135-8.861
		c7.025-5.907,10.538-14.395,10.538-25.467c0-14.689-9.794-24.854-29.379-30.496c-1.385-0.425-5.269-1.569-11.656-3.434
		c-6.387-1.861-12.374-3.672-17.963-5.429c-5.588-1.756-9.607-3.113-12.055-4.071c-31.402-11.069-47.102-31.719-47.102-61.951
		c0-21.181,7.529-37.521,22.593-49.018c15.061-11.496,35.047-17.244,59.955-17.244c28.207,0,52.531,5.803,72.968,17.403
		l-13.093,31.614c-20.864-9.365-40.236-14.051-58.119-14.051c-12.881,0-22.593,2.263-29.139,6.786
		c-6.547,4.525-10.034,12.055-10.458,22.593c0,12.988,6.439,21.45,19.32,25.387c2.555,0.959,8.834,3.034,18.841,6.228
		c10.004,3.193,16.498,5.269,19.479,6.228c21.396,7.025,36.696,15.754,45.904,26.186c9.206,10.433,13.812,24.963,13.812,43.589
		c0,22.249-7.878,39.358-23.631,51.333C130.25,687.728,109.014,693.715,82.297,693.715z"/>
	<path fill="#223344" d="M202.527,690.522V450.381l41.833-2.715v50.615c0,2.45-0.16,9.235-0.479,20.357
		c-0.319,11.125-0.479,16.793-0.479,17.005c13.943-16.605,32.677-24.908,56.203-24.908c19.584,0,34.78,5.616,45.585,16.845
		c10.802,11.231,16.206,28.501,16.206,51.812v111.129h-41.833V584.024c0-14.371-2.29-24.908-6.866-31.615
		c-4.578-6.705-12.349-10.059-23.312-10.059c-9.368,0-17.671,2.37-24.908,7.105c-7.24,4.737-12.668,10.832-16.286,18.281
		c-2.555,9.795-3.832,22.568-3.832,38.32v84.465H202.527z"/>
	<path fill="#223344" d="M483.702,693.875c-28.209,0-50.163-8.116-65.863-24.35c-15.703-16.231-23.551-38.665-23.551-67.301
		c0-27.887,7.397-50.08,22.194-66.581c14.794-16.498,34.967-24.801,60.514-24.908c24.162,0,42.923,7.56,56.283,22.673
		c13.357,15.116,20.039,35.182,20.039,60.195c0,1.811-0.027,4.737-0.08,8.781c-0.055,4.047-0.08,7.025-0.08,8.941H436.44
		c0.424,16.394,4.922,29.087,13.492,38.081c8.567,8.996,20.358,13.491,35.367,13.491c19.16,0,37.574-5.002,55.245-15.008
		l5.908,29.697C528.888,688.446,507.972,693.875,483.702,693.875z M437.239,584.981h76.641c0-14.263-3.248-25.227-9.74-32.891
		c-6.494-7.664-15.488-11.496-26.984-11.496c-10.752,0-19.826,3.727-27.224,11.176C442.533,559.222,438.302,570.292,437.239,584.981
		z"/>
	<path fill="#223344" d="M587.327,763.491V515.047h35.925l4.471,24.588c5.748-9.26,13.385-16.418,22.912-21.475
		c9.525-5.055,20.144-7.584,31.854-7.584c14.37,0,27.009,3.991,37.921,11.975c10.91,7.983,19.185,18.868,24.829,32.652
		c5.641,13.786,8.462,29.354,8.462,46.703c0,27.143-6.573,49.257-19.719,66.342c-13.147,17.084-30.95,25.627-53.409,25.627
		c-11.072,0-21.104-2.211-30.097-6.627c-8.997-4.416-16.526-10.403-22.593-17.963c0.851,15.328,1.277,23.951,1.277,25.867v66.262
		L587.327,763.491z M671.631,661.942c12.454,0,22.274-5.215,29.458-15.648c7.186-10.431,10.778-25.332,10.778-44.707
		c0-19.691-3.62-34.488-10.857-44.387c-7.24-9.9-17.299-14.85-30.177-14.85c-27.677,0-41.673,18.841-41.993,56.522
		c0,21.715,3.592,37.656,10.778,47.82C646.803,656.86,657.473,661.942,671.631,661.942z"/>
	<path fill="#223344" d="M787.87,690.522V450.381l41.833-2.715v50.615c0,2.45-0.159,9.235-0.479,20.357
		c-0.318,11.125-0.479,16.793-0.479,17.005c13.943-16.605,32.678-24.908,56.203-24.908c19.584,0,34.78,5.616,45.586,16.845
		c10.802,11.231,16.205,28.501,16.205,51.812v111.129h-41.832V584.024c0-14.371-2.291-24.908-6.866-31.615
		c-4.578-6.705-12.349-10.059-23.312-10.059c-9.368,0-17.671,2.37-24.908,7.105c-7.24,4.737-12.668,10.832-16.286,18.281
		c-2.555,9.795-3.832,22.568-3.832,38.32v84.465H787.87z"/>
	<path fill="#223344" d="M1069.045,693.875c-28.209,0-50.164-8.116-65.863-24.35c-15.702-16.231-23.551-38.665-23.551-67.301
		c0-27.887,7.396-50.08,22.193-66.581c14.794-16.498,34.967-24.801,60.514-24.908c24.163,0,42.924,7.56,56.283,22.673
		c13.357,15.116,20.039,35.182,20.039,60.195c0,1.811-0.028,4.737-0.08,8.781c-0.055,4.047-0.08,7.025-0.08,8.941h-116.717
		c0.424,16.394,4.922,29.087,13.491,38.081c8.567,8.996,20.358,13.491,35.366,13.491c19.16,0,37.575-5.002,55.246-15.008
		l5.907,29.697C1114.231,688.446,1093.315,693.875,1069.045,693.875z M1022.582,584.981h76.641c0-14.263-3.248-25.227-9.739-32.891
		c-6.494-7.664-15.488-11.496-26.984-11.496c-10.753,0-19.826,3.727-27.224,11.176
		C1027.875,559.222,1023.644,570.292,1022.582,584.981z"/>
	<path fill="#223344" d="M1172.83,690.522V515.047h35.127l5.429,26.824c11.496-18.415,28.154-27.623,49.977-27.623
		c4.575,0,8.303,0.215,11.176,0.639l-0.639,34.967c-4.258-0.639-8.677-0.957-13.252-0.957c-15.436,0-26.959,4.099-34.568,12.294
		c-7.611,8.198-11.416,19.587-11.416,34.169v95.162H1172.83z"/>
	<path fill="#223344" d="M1363.792,693.875c-22.888,0-40.875-8.408-53.968-25.229c-13.093-16.817-19.639-39.277-19.639-67.379
		c0-27.249,6.519-49.15,19.559-65.704c13.038-16.551,31.001-24.828,53.889-24.828c24.908,0,42.523,8.837,52.85,26.505
		c-1.065-10.431-1.597-20.49-1.597-30.178v-56.682l41.833-2.715v242.855h-36.244l-4.631-23.95c-1.812,2.874-3.487,5.349-5.029,7.425
		c-1.545,2.075-3.808,4.471-6.786,7.185c-2.981,2.715-6.202,4.897-9.66,6.547c-3.46,1.651-7.823,3.086-13.093,4.311
		C1376.007,693.261,1370.179,693.875,1363.792,693.875z M1373.692,662.101c28.102,0,42.364-19.105,42.791-57.321
		c0-21.607-3.62-37.361-10.857-47.262c-7.24-9.898-18.043-14.849-32.412-14.849c-12.562,0-22.594,5.029-30.098,15.089
		c-7.505,10.059-11.257,24.883-11.257,44.467c0,19.48,3.752,34.329,11.257,44.548
		C1350.62,656.992,1360.811,662.101,1373.692,662.101z"/>
</g>
<g>
	<g>
		<path fill="#223344" d="M542.474,450.821L330.138,271.912c-30.215-25.457-48.83-61.436-52.414-101.309
			c-3.6-40.044,8.457-78.76,33.95-109.016C339.694,28.332,381.175,9.28,425.525,9.28c0.138,0,0.27,0,0.409,0
			c44.569,0.118,86.179,19.438,114.162,53.006c38.562,46.26,32.583,95.329,27.308,138.622c-3.673,30.146-7.142,58.619,3.234,85.777
			c12.593,32.958,37.875,59.019,71.189,73.38c33.455,14.422,69.922,14.909,102.686,1.371l20.795-8.592l17.184,41.59l-20.795,8.591
			c-43.447,17.95-93.631,17.353-137.684-1.637c-44.562-19.21-78.447-54.242-95.411-98.643c-14.36-37.583-9.848-74.611-5.868-107.28
			c4.973-40.813,8.9-73.049-17.204-104.366c-19.437-23.317-48.492-36.737-79.714-36.819c-0.095,0-0.194,0-0.289,0
			c-31.052,0-59.99,13.22-79.438,36.302c-17.7,21.006-26.061,47.994-23.544,75.992c2.515,27.976,15.51,53.164,36.59,70.924
			l212.337,178.91L542.474,450.821z"/>
	</g>
	<g>
		<path fill="#223344" d="M1165.209,975.513l-69.248-58.345c-46.611-39.271-93.224-78.543-139.832-117.817l-17.206-14.498
			l28.996-34.412l17.206,14.498c46.608,39.273,93.22,78.545,139.83,117.816l69.249,58.345L1165.209,975.513z"/>
	</g>
</g>
</svg>
