<?xml version="1.0" encoding="utf-8"?>
<!-- Generator: Adobe Illustrator 16.0.0, SVG Export Plug-In . SVG Version: 6.00 Build 0)  -->
<!DOCTYPE svg PUBLIC "-//W3C//DTD SVG 1.1//EN" "http://www.w3.org/Graphics/SVG/1.1/DTD/svg11.dtd">
<svg version="1.1" id="Layer_1" xmlns="http://www.w3.org/2000/svg" xmlns:xlink="http://www.w3.org/1999/xlink" x="0px" y="0px"
	 width="876.279px" height="652.744px" viewBox="0 0 876.279 652.744" enable-background="new 0 0 876.279 652.744"
	 xml:space="preserve">
<linearGradient id="SVGID_1_" gradientUnits="userSpaceOnUse" x1="49.5972" y1="181.5054" x2="757.5972" y2="613.5054">
	<stop  offset="0.0269" style="stop-color:#EE2A7B"/>
	<stop  offset="0.1615" style="stop-color:#D94979"/>
	<stop  offset="0.4452" style="stop-color:#AB706E"/>
	<stop  offset="0.8515" style="stop-color:#558D4F"/>
	<stop  offset="1" style="stop-color:#009444"/>
</linearGradient>
<path fill="url(#SVGID_1_)" d="M183.869,8c27.3,0,52.971,10.276,72.285,28.936c30.261,29.239,29.804,63.031,29.362,95.719
	c-0.316,23.365-0.613,45.434,9.927,66.049c12.712,24.861,34.797,43.207,62.186,51.658c10.405,3.211,21.073,4.84,31.706,4.84
	c17.129,0,34.114-4.328,49.119-12.516c1.564-0.854,3.252-1.286,5.014-1.286c3.854,0,7.392,2.098,9.234,5.474
	c2.772,5.083,0.894,11.474-4.188,14.247c-17.948,9.792-38.517,14.967-59.481,14.967c-12.779,0-25.429-1.904-37.596-5.659
	c-32.851-10.138-59.376-32.215-74.691-62.165c-12.913-25.254-12.549-52.161-12.228-75.904c0.416-30.796,0.775-57.392-22.956-80.322
	c-15.376-14.855-35.874-23.037-57.72-23.037c-3.025,0-6.094,0.162-9.121,0.48c-24.873,2.624-46.938,15.716-60.538,35.919
	c-12.336,18.328-16.692,40.61-12.267,62.744c4.42,22.096,16.971,41.075,35.342,53.44L294.62,287.504
	c2.326,1.566,3.904,3.945,4.441,6.697c0.538,2.752-0.027,5.549-1.596,7.876c-1.954,2.905-5.217,4.639-8.726,4.639
	c-2.084,0-4.105-0.62-5.847-1.792L125.532,199.006c-22.995-15.478-38.695-39.18-44.207-66.743
	c-5.533-27.667-0.051-55.577,15.438-78.588c17.077-25.37,44.689-41.8,75.758-45.077C176.284,8.201,180.103,8,183.869,8 M183.869,0
	c-4.042,0-8.111,0.212-12.188,0.643c-33.427,3.526-63.152,21.227-81.555,48.565c-16.688,24.795-22.601,54.848-16.646,84.624
	c5.929,29.645,22.828,55.147,47.585,71.811l157.361,105.919c3.169,2.133,6.76,3.155,10.313,3.155c5.949,0,11.792-2.865,15.363-8.172
	c5.706-8.476,3.46-19.972-5.017-25.677L141.726,174.948c-16.609-11.18-27.961-28.358-31.964-48.372
	c-4.004-20.024-0.077-40.163,11.059-56.708c12.274-18.234,32.227-30.055,54.741-32.43c2.772-0.292,5.535-0.437,8.281-0.437
	c19.601,0,38.258,7.357,52.161,20.79c21.245,20.527,20.923,44.329,20.516,74.463c-0.334,24.669-0.713,52.63,13.104,79.652
	c16.307,31.889,44.523,55.387,79.455,66.167c13.049,4.027,26.537,6.015,39.955,6.015c22.085,0,43.968-5.391,63.312-15.944
	c8.969-4.894,12.272-16.132,7.379-25.101c-3.359-6.156-9.706-9.643-16.257-9.643c-2.994,0-6.031,0.728-8.845,2.263
	c-14.031,7.656-29.512,11.539-45.288,11.539c-9.76,0-19.634-1.486-29.347-4.484c-25.309-7.81-45.701-24.734-57.422-47.656
	c-9.639-18.851-9.353-39.959-9.051-62.307c0.443-32.778,0.946-69.931-31.803-101.573C240.861,11.038,213.011,0,183.869,0L183.869,0z
	 M636.235,519.589c2.084,0,4.105,0.62,5.847,1.792l154.734,104.149c4.803,3.233,6.08,9.771,2.848,14.574
	c-1.955,2.904-5.218,4.639-8.728,4.639c-2.084,0-4.105-0.619-5.847-1.791l-154.734-104.15c-2.327-1.566-3.904-3.944-4.442-6.697
	c-0.538-2.752,0.028-5.549,1.595-7.876C629.463,521.324,632.726,519.589,636.235,519.589 M636.235,511.589
	c-5.949,0-11.792,2.865-15.364,8.172c-5.705,8.477-3.459,19.973,5.018,25.678l154.734,104.15c3.169,2.133,6.76,3.154,10.313,3.154
	c5.949,0,11.792-2.865,15.364-8.172c5.705-8.477,3.458-19.973-5.018-25.678L646.549,514.745
	C643.38,512.611,639.788,511.589,636.235,511.589L636.235,511.589z M57.213,343.562c8.04,0,15.484,1.956,22.331,5.868
	c6.846,3.912,10.269,7.743,10.269,11.491c0,3.75-1.523,5.624-4.564,5.624c-1.955,0-5.325-2.119-10.105-6.356
	c-1.849-1.631-4.511-3.098-7.987-4.402c-3.479-1.303-7.335-1.955-11.573-1.955c-8.043,0-14.534,2.2-19.478,6.602
	c-4.946,4.4-7.417,10.35-7.417,17.848c0,8.15,6.301,16.846,18.908,26.08c5.216,3.806,10.432,7.771,15.647,11.899
	c5.217,4.131,9.671,9.021,13.366,14.67c3.693,5.651,5.542,11.683,5.542,18.093c0,12.062-3.939,21.572-11.817,28.525
	c-7.88,6.955-18.012,10.432-30.399,10.432s-22.494-3.367-30.318-10.105c-2.607-2.173-4.864-4.862-6.765-8.068
	C0.949,466.601,0,463.857,0,461.574c0-4.454,1.736-6.683,5.216-6.683c1.194,0,2.2,0.407,3.016,1.223
	c0.814,0.815,1.736,2.31,2.771,4.482c1.031,2.175,1.818,3.696,2.363,4.563c5.759,8.26,14.234,12.389,25.429,12.389
	c8.908,0,16.19-2.58,21.842-7.742c5.648-5.16,8.476-11.871,8.476-20.131c0-8.583-6.304-17.604-18.908-27.059
	c-5.216-3.912-10.46-7.931-15.729-12.062c-5.271-4.128-9.754-8.937-13.447-14.425c-3.695-5.486-5.542-11.329-5.542-17.523
	c0-11.084,3.938-19.695,11.817-25.835C35.18,346.634,45.15,343.562,57.213,343.562z M132.843,347.474
	c0,0.219-2.392,19.616-7.172,58.191h64.385c0.652-7.279,2.988-26.243,7.01-56.887c0.433-3.477,2.661-5.217,6.683-5.217
	c4.019,0,6.031,1.305,6.031,3.912c0,0.326-5.542,45.424-16.626,135.29c-0.436,3.477-2.637,5.216-6.602,5.216
	c-3.969,0-5.95-1.523-5.95-4.564c0-0.325,2.716-22.819,8.15-67.481H124.53l-8.313,66.83c-0.436,3.477-2.636,5.216-6.602,5.216
	c-3.968,0-5.949-1.523-5.949-4.564c0-0.325,5.486-45.203,16.463-134.637c0.433-3.477,2.661-5.217,6.683-5.217
	C130.831,343.562,132.843,344.867,132.843,347.474z M248.409,345.518h62.918c3.367,0,5.053,1.468,5.053,4.401
	c0,2.175-0.436,3.695-1.304,4.564c-0.871,0.871-2.445,1.303-4.727,1.303h-54.769l-5.379,51.02h45.151
	c3.802,0,5.705,1.414,5.705,4.238c0,2.175-0.464,3.723-1.386,4.646c-0.925,0.925-2.526,1.386-4.809,1.386h-46.129l-7.172,58.19
	h58.19c2.825,0,4.238,1.63,4.238,4.89c0,1.631-0.436,2.963-1.304,3.994c-0.871,1.033-1.956,1.549-3.26,1.549h-65.853
	c-3.586,0-5.379-1.412-5.379-4.238c0-0.652,0.054-1.467,0.163-2.445l15.485-127.955
	C244.171,347.367,245.691,345.518,248.409,345.518z M338.221,482.764c-0.436,3.477-2.636,5.216-6.602,5.216
	c-3.968,0-5.949-1.359-5.949-4.074c0-0.217,5.486-44.879,16.463-133.986c0.326-2.173,1.956-3.477,4.89-3.912
	c14.671-1.63,24.939-2.445,30.808-2.445c13.146,0,23.579,3.044,31.296,9.129c7.715,6.086,11.573,14.889,11.573,26.405
	c0,8.149-1.931,15.322-5.787,21.517c-3.858,6.193-9.103,11.084-15.729,14.67c-13.04,7.064-28.96,10.595-47.759,10.595
	c-2.827,0-4.946-0.054-6.356-0.163L338.221,482.764z M407.496,379.096c0-8.257-2.636-14.532-7.905-18.827
	c-5.272-4.291-12.144-6.438-20.62-6.438c-8.476,0-16.845,0.545-25.102,1.63l-7.172,59.006
	C387.228,414.467,407.496,402.677,407.496,379.096z M459.818,347.474c0,0.219-2.392,19.616-7.172,58.191h64.385
	c0.652-7.279,2.988-26.243,7.01-56.887c0.433-3.477,2.661-5.217,6.683-5.217c4.019,0,6.031,1.305,6.031,3.912
	c0,0.326-5.542,45.424-16.626,135.29c-0.436,3.477-2.637,5.216-6.602,5.216c-3.969,0-5.95-1.523-5.95-4.564
	c0-0.325,2.716-22.819,8.15-67.481h-64.222l-8.313,66.83c-0.436,3.477-2.636,5.216-6.602,5.216c-3.968,0-5.949-1.523-5.949-4.564
	c0-0.325,5.486-45.203,16.463-134.637c0.433-3.477,2.661-5.217,6.683-5.217C457.807,343.562,459.818,344.867,459.818,347.474z
	 M575.384,345.518h62.918c3.367,0,5.053,1.468,5.053,4.401c0,2.175-0.436,3.695-1.304,4.564c-0.871,0.871-2.445,1.303-4.727,1.303
	h-54.769l-5.379,51.02h45.151c3.802,0,5.705,1.414,5.705,4.238c0,2.175-0.464,3.723-1.386,4.646
	c-0.925,0.925-2.526,1.386-4.809,1.386H575.71l-7.172,58.19h58.19c2.825,0,4.238,1.63,4.238,4.89c0,1.631-0.436,2.963-1.304,3.994
	c-0.871,1.033-1.956,1.549-3.26,1.549h-65.853c-3.586,0-5.379-1.412-5.379-4.238c0-0.652,0.054-1.467,0.163-2.445L570.82,351.06
	C571.146,347.367,572.666,345.518,575.384,345.518z M658.676,487.98c-4.021,0-6.031-1.359-6.031-4.074v-0.652l16.463-133.497
	c0.326-2.173,1.793-3.423,4.401-3.749c8.04-1.63,18.635-2.445,31.785-2.445c13.146,0,23.525,2.664,31.133,7.987
	c7.604,5.325,11.41,13.203,11.41,23.635c0,8.802-3.098,16.464-9.291,22.983c-6.194,6.52-14.67,10.814-25.429,12.877
	c7.172,3.043,12.714,8.911,16.626,17.604c1.847,4.348,3.612,9.156,5.298,14.426c1.684,5.271,2.743,8.504,3.179,9.699l10.105,29.502
	c0.107,0.326,0.163,0.953,0.163,1.875c0,0.924-0.626,1.793-1.874,2.607c-1.251,0.815-2.799,1.223-4.646,1.223
	c-3.37,0-5.436-1.197-6.194-3.586l-11.41-33.578c-2.934-8.692-5.569-15.51-7.905-20.456c-2.338-4.944-5.109-8.448-8.312-10.514
	c-3.207-2.063-8.668-3.097-16.382-3.097h-18.582l-8.15,66.83c-0.219,1.63-0.814,2.771-1.793,3.423
	C662.262,487.654,660.738,487.98,658.676,487.98z M693.721,405.992c8.692,0,17.385-2.282,26.08-6.847
	c4.345-2.282,7.905-5.485,10.676-9.616c2.771-4.129,4.157-8.803,4.157-14.019c0-6.847-2.853-12.226-8.558-16.138
	c-5.705-3.911-12.852-5.867-21.435-5.867c-8.586,0-16.52,0.652-23.798,1.956l-6.194,50.53H693.721z M876.279,398.33
	c0,25.213-5.216,46.13-15.648,62.756c-5.325,8.476-12.632,15.077-21.923,19.805c-9.291,4.727-20.676,7.09-34.149,7.09
	c-13.475,0-24.123-0.545-31.947-1.63c-4.131-0.545-6.194-2.063-6.194-4.563c0-1.521,0.107-3.041,0.326-4.564l15.322-127.955
	c0.106-1.085,0.651-1.981,1.63-2.689c0.978-0.705,2.009-1.113,3.097-1.223c12.388-1.194,24.124-1.793,35.208-1.793
	c18.037,0,31.594,4.756,40.669,14.263C871.74,367.335,876.279,380.835,876.279,398.33z M863.239,396.537
	c0-12.82-3.695-23.146-11.084-30.969c-7.392-7.824-17.359-11.736-29.911-11.736c-12.551,0-21.923,0.545-28.117,1.63l-14.344,120.131
	c6.953,0.978,15.592,1.467,25.917,1.467c10.322,0,19.315-2.308,26.977-6.927c7.661-4.618,13.61-10.84,17.849-18.664
	C859.001,435.929,863.239,417.621,863.239,396.537z"/>
</svg>
